<svg width="434" height="457" viewBox="0 0 434 457" fill="none" xmlns="http://www.w3.org/2000/svg">
<path d="M58.4842 164.73C77.7114 164.73 93.2982 149.143 93.2982 129.916C93.2982 110.689 77.7114 95.1021 58.4842 95.1021C39.2569 95.1021 23.6702 110.689 23.6702 129.916C23.6702 149.143 39.2569 164.73 58.4842 164.73Z" fill="#FAFAFA"/>
<path d="M93.6401 129.849C93.5731 129.848 93.4781 129.076 93.3581 127.618C93.3171 126.887 93.2381 125.988 93.0251 124.939C92.8481 123.887 92.6831 122.668 92.2751 121.343C91.6511 118.654 90.3891 115.479 88.4141 112.115C86.4241 108.765 83.5601 105.266 79.6641 102.289C75.7801 99.3401 70.8851 96.8221 65.2271 95.7771C59.6071 94.7681 53.2591 94.8891 47.2011 97.1291C44.1521 98.1551 41.2071 99.7221 38.4951 101.709C37.0941 102.65 35.8671 103.834 34.5801 104.97C33.4181 106.233 32.1941 107.466 31.1881 108.902C26.9181 114.455 24.4691 121.62 24.3121 129.033C24.2931 136.451 26.5741 143.674 30.7121 149.327C31.6841 150.786 32.8781 152.048 34.0111 153.338C35.2711 154.504 36.4691 155.717 37.8491 156.691C40.5141 158.742 43.4221 160.377 46.4471 161.475C52.4521 163.857 58.7961 164.125 64.4391 163.249C70.1201 162.336 75.0731 159.933 79.0251 157.075C82.9891 154.19 85.9341 150.758 88.0021 147.456C90.0541 144.14 91.3901 140.995 92.0761 138.321C92.5151 137.006 92.7081 135.792 92.9101 134.744C93.1481 133.7 93.2471 132.803 93.3061 132.074C93.4601 130.618 93.5731 129.848 93.6401 129.849C93.7071 129.85 93.7241 130.622 93.6951 132.102C93.6981 132.844 93.6601 133.76 93.4791 134.83C93.3351 135.904 93.1951 137.153 92.8041 138.512C92.2131 141.273 90.9511 144.544 88.9241 148.018C86.8801 151.478 83.9091 155.098 79.8421 158.17C75.7891 161.213 70.6521 163.798 64.7161 164.826C58.8221 165.817 52.1641 165.596 45.8221 163.141C42.6311 162.007 39.5561 160.306 36.7361 158.161C35.2791 157.14 34.0051 155.873 32.6751 154.645C31.4711 153.293 30.2101 151.963 29.1761 150.429C24.7901 144.481 22.3551 136.841 22.3821 129.009C22.5411 121.181 25.1541 113.603 29.6781 107.761C30.7471 106.252 32.0391 104.953 33.2741 103.63C34.6331 102.435 35.9361 101.198 37.4161 100.212C40.2851 98.1341 43.3991 96.5061 46.6151 95.4471C53.0111 93.1411 59.6731 93.0751 65.5411 94.2041C71.4511 95.3691 76.5251 98.0741 80.5071 101.211C84.5011 104.377 87.3871 108.065 89.3501 111.571C91.2961 115.092 92.4821 118.392 93.0081 121.167C93.3671 122.535 93.4781 123.787 93.5971 124.864C93.7531 125.938 93.7701 126.855 93.7491 127.597C93.7411 129.079 93.7061 129.85 93.6401 129.849Z" fill="#E0E0E0"/>
<path d="M86.3331 107.981C86.4121 108.089 85.7851 108.647 84.5731 109.573C83.9081 110.063 83.1641 110.611 82.3321 111.225C81.8881 111.537 81.4231 111.891 80.9051 112.224C80.3561 112.52 79.7821 112.829 79.1861 113.15C74.5181 115.927 67.1021 118.795 58.5901 118.613C57.5341 118.579 56.4901 118.546 55.4611 118.513C54.4441 118.367 53.4401 118.223 52.4541 118.081C51.9621 118.004 51.4721 117.945 50.9921 117.854C50.5191 117.734 50.0501 117.616 49.5861 117.499C48.6611 117.255 47.7471 117.05 46.8751 116.782C43.4111 115.626 40.4151 114.266 38.0581 112.853C33.3131 110.065 30.9881 107.503 31.1641 107.334C31.3511 107.114 33.9381 109.25 38.7131 111.653C41.0861 112.875 44.0351 114.055 47.3871 115.075C48.2301 115.308 49.1121 115.482 50.0021 115.699C50.4481 115.804 50.8981 115.909 51.3531 116.016C51.8161 116.08 52.2821 116.145 52.7531 116.21C53.6961 116.337 54.6541 116.465 55.6261 116.596C56.6071 116.623 57.6021 116.651 58.6091 116.679C66.7011 116.856 73.8361 114.342 78.5591 111.935C79.1631 111.664 79.7441 111.403 80.3001 111.153C80.8301 110.868 81.3101 110.563 81.7721 110.299C82.6561 109.797 83.4471 109.348 84.1541 108.947C85.4781 108.226 86.2541 107.873 86.3331 107.981Z" fill="#E0E0E0"/>
<path d="M30.647 151.417C30.568 151.309 31.195 150.75 32.407 149.825C33.072 149.335 33.816 148.787 34.648 148.173C35.092 147.861 35.557 147.507 36.075 147.174C36.624 146.878 37.198 146.569 37.794 146.248C42.462 143.471 49.878 140.603 58.39 140.785C59.446 140.819 60.49 140.852 61.519 140.885C62.536 141.031 63.54 141.175 64.526 141.317C65.018 141.393 65.508 141.453 65.987 141.543C66.46 141.663 66.929 141.781 67.393 141.899C68.318 142.143 69.233 142.349 70.104 142.616C73.568 143.772 76.563 145.133 78.921 146.545C83.666 149.333 85.991 151.895 85.815 152.064C85.628 152.284 83.041 150.148 78.266 147.745C75.893 146.524 72.944 145.343 69.592 144.322C68.748 144.089 67.866 143.915 66.977 143.698C66.531 143.593 66.081 143.487 65.626 143.381C65.163 143.317 64.697 143.253 64.226 143.187C63.283 143.06 62.325 142.932 61.353 142.801C60.372 142.774 59.377 142.746 58.37 142.718C50.278 142.541 43.143 145.055 38.42 147.462C37.816 147.733 37.235 147.994 36.679 148.244C36.149 148.53 35.669 148.835 35.207 149.098C34.322 149.6 33.532 150.049 32.825 150.45C31.502 151.172 30.726 151.525 30.647 151.417Z" fill="#E0E0E0"/>
<path d="M93.6302 130.666C93.6242 131.2 77.8822 131.448 58.4742 131.221C39.0592 130.994 23.3312 130.377 23.3372 129.843C23.3432 129.31 39.0822 129.061 58.4962 129.288C77.9042 129.515 93.6362 130.132 93.6302 130.666Z" fill="#E0E0E0"/>
<path d="M57.2951 164.562C56.7611 164.556 56.5131 148.819 56.7401 129.418C56.9671 110.01 57.5842 94.287 58.1172 94.293C58.6502 94.299 58.8991 110.033 58.6721 129.441C58.4451 148.841 57.8281 164.568 57.2951 164.562Z" fill="#E0E0E0"/>
<path d="M57.2951 164.509C57.1651 164.715 53.2601 162.139 48.7171 156.252C46.4701 153.312 44.1041 149.521 42.2931 144.927C40.4901 140.342 39.3291 134.93 39.3761 129.215C39.4051 123.482 40.7791 118.1 42.7271 113.583C44.6761 109.048 47.1471 105.333 49.4521 102.444C54.1121 96.6661 57.9841 94.0821 58.1171 94.2831C58.3091 94.5001 54.8101 97.4211 50.5391 103.272C48.4271 106.197 46.1541 109.874 44.3701 114.27C42.5861 118.652 41.3371 123.78 41.3081 129.228C41.2641 134.68 42.3151 139.854 43.9581 144.295C45.6081 148.744 47.7731 152.483 49.8231 155.449C53.9651 161.386 57.4881 164.294 57.2951 164.509Z" fill="#E0E0E0"/>
<path d="M58.904 94.2922C59.034 94.0862 62.939 96.6622 67.482 102.549C69.729 105.489 72.095 109.28 73.906 113.874C75.709 118.459 76.87 123.871 76.823 129.586C76.794 135.319 75.421 140.701 73.472 145.218C71.523 149.753 69.052 153.468 66.747 156.357C62.087 162.135 58.215 164.72 58.082 164.518C57.89 164.301 61.389 161.38 65.66 155.529C67.772 152.605 70.045 148.927 71.828 144.532C73.612 140.15 74.861 135.022 74.89 129.574C74.934 124.122 73.883 118.948 72.241 114.507C70.591 110.058 68.426 106.319 66.377 103.354C62.234 97.4152 58.711 94.5072 58.904 94.2922Z" fill="#E0E0E0"/>
<path d="M58.0671 163.489C58.2111 163.489 58.3271 168.559 58.3271 174.812C58.3271 181.067 58.2101 186.137 58.0671 186.137C57.9231 186.137 57.8071 181.068 57.8071 174.812C57.8071 168.56 57.9241 163.489 58.0671 163.489Z" fill="#EBEBEB"/>
<path d="M84.6431 74.375C84.6431 74.393 84.4831 74.41 84.1771 74.427C83.8111 74.44 83.3701 74.457 82.8421 74.476C81.5981 74.497 79.9411 74.525 77.9311 74.559C73.7851 74.606 68.0571 74.635 61.7301 74.635C60.3361 74.634 58.9721 74.632 57.6611 74.631L57.9171 74.375C57.8821 79.685 57.8511 84.364 57.8291 87.819C57.7971 89.441 57.7721 90.773 57.7521 91.784C57.7241 92.713 57.6931 93.221 57.6611 93.221C57.6291 93.221 57.5981 92.713 57.5701 91.784C57.5501 90.773 57.5251 89.441 57.4931 87.819C57.4701 84.364 57.4391 79.686 57.4051 74.375L57.4031 74.119H57.6611C58.9721 74.118 60.3361 74.116 61.7301 74.115C68.0561 74.115 73.7841 74.144 77.9311 74.191C79.9401 74.225 81.5981 74.253 82.8421 74.274C83.3711 74.293 83.8111 74.309 84.1771 74.323C84.4831 74.339 84.6431 74.357 84.6431 74.375Z" fill="#EBEBEB"/>
<path d="M306.59 405.441H295.806V456.332H306.59V405.441Z" fill="#EBEBEB"/>
<path d="M398.224 405.441H387.44V456.332H398.224V405.441Z" fill="#EBEBEB"/>
<path d="M414.007 341.462H277.968V354.047H414.007V341.462Z" fill="#EBEBEB"/>
<path d="M408.588 406.08L286.249 406.345V354.047H408.588V406.08Z" fill="#EBEBEB"/>
<path d="M414.008 354.047C414.008 354.182 383.552 354.292 345.992 354.292C308.418 354.292 277.969 354.182 277.969 354.047C277.969 353.912 308.418 353.802 345.992 353.802C383.552 353.802 414.008 353.912 414.008 354.047Z" fill="#E0E0E0"/>
<path d="M408.138 406.345C408.138 406.48 380.95 406.59 347.421 406.59C313.88 406.59 286.698 406.481 286.698 406.345C286.698 406.21 313.879 406.1 347.421 406.1C380.951 406.1 408.138 406.21 408.138 406.345Z" fill="#E0E0E0"/>
<path d="M398.5 395.747C398.5 395.747 398.489 395.539 398.484 395.146C398.48 394.741 398.474 394.163 398.467 393.409C398.458 391.872 398.445 389.625 398.428 386.717C398.407 380.891 398.377 372.429 398.34 361.81L398.501 361.971C373.967 361.991 337.264 362.021 296.344 362.055H296.337L296.582 361.81C296.579 373.6 296.577 385.038 296.574 395.747L296.337 395.51C325.721 395.554 351.229 395.592 369.406 395.62C378.5 395.648 385.757 395.671 390.759 395.687C393.249 395.7 395.175 395.711 396.495 395.718C397.14 395.725 397.635 395.729 397.984 395.733C398.321 395.737 398.5 395.747 398.5 395.747C398.5 395.747 398.341 395.757 398.014 395.762C397.671 395.766 397.186 395.771 396.553 395.777C395.244 395.784 393.336 395.794 390.867 395.808C385.878 395.824 378.64 395.846 369.569 395.875C351.351 395.902 325.787 395.941 296.337 395.985H296.1V395.748C296.098 385.04 296.095 373.601 296.092 361.811V361.566H296.337H296.344C337.264 361.6 373.966 361.63 398.501 361.65H398.662L398.661 361.811C398.623 372.471 398.594 380.966 398.573 386.814C398.556 389.707 398.543 391.941 398.534 393.47C398.526 394.212 398.521 394.78 398.517 395.179C398.511 395.561 398.5 395.747 398.5 395.747Z" fill="#E0E0E0"/>
<path d="M300.386 391.295C300.485 391.387 299.691 392.4 298.612 393.557C297.533 394.715 296.579 395.578 296.48 395.486C296.381 395.394 297.175 394.381 298.254 393.224C299.333 392.067 300.287 391.203 300.386 391.295Z" fill="#E0E0E0"/>
<path d="M300.386 366.262C300.286 366.353 299.299 365.432 298.181 364.205C297.063 362.977 296.238 361.909 296.338 361.818C296.438 361.727 297.425 362.648 298.543 363.875C299.661 365.103 300.486 366.172 300.386 366.262Z" fill="#E0E0E0"/>
<path d="M398.682 361.917C398.787 362.017 397.809 363.111 396.458 364.273C395.106 365.436 394.003 366.347 393.911 366.261C393.806 366.161 394.784 365.067 396.136 363.905C397.486 362.742 398.591 361.831 398.682 361.917Z" fill="#E0E0E0"/>
<path d="M398.503 395.75C398.409 395.847 397.305 394.929 396.038 393.701C394.771 392.472 393.82 391.397 393.914 391.3C394.008 391.203 395.112 392.12 396.379 393.35C397.645 394.578 398.597 395.653 398.503 395.75Z" fill="#E0E0E0"/>
<path d="M393.911 391.297C393.911 391.297 393.901 391.143 393.896 390.856C393.892 390.554 393.887 390.133 393.88 389.584C393.872 388.452 393.859 386.807 393.844 384.672C393.825 380.386 393.797 374.146 393.762 366.26L393.911 366.409C372.573 366.431 338.592 366.465 300.391 366.504H300.385L300.63 366.259C300.628 374.864 300.626 383.255 300.624 391.295L300.385 391.056C327.085 391.099 350.432 391.138 367.122 391.165C375.469 391.194 382.151 391.217 386.764 391.233C389.058 391.247 390.834 391.257 392.057 391.264C392.651 391.271 393.107 391.276 393.434 391.279C393.744 391.287 393.911 391.297 393.911 391.297C393.911 391.297 393.765 391.307 393.464 391.312C393.145 391.316 392.698 391.321 392.116 391.328C390.905 391.335 389.146 391.346 386.875 391.359C382.275 391.375 375.612 391.398 367.288 391.427C350.556 391.454 327.151 391.492 300.385 391.536H300.146V391.296C300.144 383.256 300.142 374.865 300.141 366.26V366.015H300.386H300.392C338.593 366.054 372.574 366.089 393.912 366.11H394.062L394.061 366.259C394.026 374.183 393.998 380.453 393.978 384.759C393.962 386.879 393.95 388.513 393.942 389.637C393.935 390.175 393.93 390.587 393.926 390.883C393.92 391.163 393.911 391.297 393.911 391.297Z" fill="#E0E0E0"/>
<path d="M356.414 376.446C355.646 375.932 354.786 375.588 353.903 375.304C353.101 375.045 352.263 374.918 351.42 374.918H344.536C342.508 374.918 340.52 375.639 339.052 377.039C338.688 377.386 338.399 377.729 338.231 378.032C337.64 379.092 337.614 380.568 338.499 381.398C339.384 382.228 341.191 381.823 341.341 380.62C341.297 382.21 342.923 383.542 344.51 383.435C346.097 383.328 347.448 382.024 347.896 380.498C347.879 381.848 349.033 383.109 350.379 383.211C351.725 383.313 353.057 382.241 353.244 380.904C354.094 382.011 355.351 383.044 356.801 382.574C357.629 382.305 358.24 381.578 358.449 380.734C358.882 378.988 357.809 377.379 356.414 376.446Z" fill="#E0E0E0"/>
<path d="M345.763 374.886C345.834 375.019 344.176 375.736 342.936 377.475C341.663 379.19 341.49 380.989 341.342 380.962C341.284 380.959 341.24 380.504 341.38 379.785C341.517 379.069 341.879 378.098 342.54 377.187C343.204 376.278 344.015 375.635 344.655 375.284C345.296 374.93 345.742 374.832 345.763 374.886Z" fill="#EBEBEB"/>
<path d="M348.4 375.173C348.534 375.194 348.515 376.419 348.359 377.909C348.203 379.399 347.966 380.601 347.831 380.594C347.696 380.587 347.714 379.362 347.872 377.857C348.03 376.354 348.267 375.152 348.4 375.173Z" fill="#EBEBEB"/>
<path d="M351.72 375.094C351.751 375.044 352.11 375.188 352.519 375.641C352.929 376.086 353.331 376.854 353.486 377.759C353.641 378.663 353.574 379.482 353.499 380.056C353.419 380.633 353.325 380.981 353.258 380.976C353.189 380.971 353.162 380.61 353.153 380.036C353.14 379.464 353.147 378.677 353.003 377.844C352.859 377.013 352.549 376.309 352.244 375.852C351.944 375.391 351.676 375.154 351.72 375.094Z" fill="#EBEBEB"/>
<path d="M389.229 422.577H305.403V432.396H389.229V422.577Z" fill="#EBEBEB"/>
<path d="M368.153 328.721V341.365H313.785C310.294 341.365 307.463 338.535 307.463 335.043C307.463 331.552 310.293 328.721 313.785 328.721" fill="#E0E0E0"/>
<path d="M368.153 338.714H349.854C348.045 338.714 346.579 337.248 346.579 335.439V334.646C346.579 332.837 348.045 331.371 349.854 331.371H368.153V338.714Z" fill="#EBEBEB"/>
<path d="M368.153 316.077V328.721H313.785C310.294 328.721 307.463 325.891 307.463 322.399C307.463 318.908 310.293 316.077 313.785 316.077H368.153Z" fill="#EBEBEB"/>
<path d="M368.153 326.071H349.854C348.045 326.071 346.579 324.605 346.579 322.796V322.003C346.579 320.194 348.045 318.728 349.854 318.728H368.153V326.071Z" fill="#F5F5F5"/>
<path d="M328.888 295.796L320.254 316.077H325.811L329.647 305.245L328.888 295.796Z" fill="#E0E0E0"/>
<path d="M355.402 277.443L358.737 316.077H330.517L327.416 277.443H355.402Z" fill="#F5F5F5"/>
<path d="M352.645 280.508L355.567 312.868L334.383 313.146L331.522 280.32L352.645 280.508Z" fill="#FAFAFA"/>
<path d="M348.15 284.988L349.812 307.255H338.513L336.519 284.988H348.15Z" fill="#E0E0E0"/>
<path d="M306.637 73.702C306.546 72.77 306.443 71.85 306.313 70.931C306.187 69.96 306.043 68.994 305.881 68.033C306.042 68.994 306.186 69.96 306.313 70.931C306.443 71.85 306.546 72.769 306.637 73.702Z" fill="#263238"/>
<path d="M299.205 85.187C298.402 83.374 298.221 81.367 297.69 79.464C297.405 78.441 296.926 77.353 295.968 76.9C295.334 76.602 294.582 76.641 293.909 76.434C291.487 75.709 290.827 72.33 288.535 71.281C287.81 70.957 287.007 70.893 286.23 70.802C283.161 70.44 279.989 69.378 278.06 66.97C277.426 66.193 276.946 65.274 276.169 64.639C275.379 64.004 274.162 63.733 273.398 64.38C274.045 65.675 274.68 66.97 275.315 68.251C275.898 69.416 276.493 70.62 277.464 71.475C278.448 72.342 279.898 72.796 281.077 72.252C281.465 72.071 281.854 71.773 282.294 71.825C282.605 71.864 282.877 72.084 283.084 72.33C284.754 74.181 284.211 77.25 282.579 79.141C280.96 81.018 278.552 82.002 276.234 82.922C275.405 83.246 274.525 83.582 273.644 83.427C272.038 83.129 271.184 81.381 270.718 79.814C269.669 76.344 269.164 72.576 267.015 69.65C266.329 68.731 265.474 67.889 265.06 66.814C264.62 65.649 264.723 64.289 264.024 63.266C263.299 62.191 261.758 61.57 261.655 60.275C261.59 59.369 262.341 58.566 263.17 58.177C263.999 57.776 264.931 57.659 265.786 57.309C266.123 57.166 266.498 56.921 266.511 56.558C266.511 56.014 265.76 55.794 265.566 55.289C265.359 54.719 265.942 54.188 266.188 53.631C266.719 52.362 265.398 51.08 264.116 50.562C262.847 50.044 261.306 49.669 260.711 48.426C260.439 47.856 260.413 47.196 260.297 46.574C259.999 45.007 258.847 43.492 257.267 43.233C255.674 42.974 253.913 44.385 254.172 45.965C254.327 46.833 254.975 47.506 255.324 48.309C255.686 49.112 255.583 50.303 254.754 50.562C253.394 50.976 252.087 48.49 250.947 49.345C251.413 50.938 251.866 52.531 252.332 54.136C250.545 55.042 248.409 53.398 247.645 51.533C246.881 49.681 246.855 47.558 245.949 45.771C245.043 43.971 242.595 42.638 241.042 43.907C240.964 46.212 244.007 47.144 245.354 49.009C246.325 50.356 246.183 52.544 244.745 53.398C243.321 54.253 241.055 52.764 241.599 51.197C241.793 50.653 242.246 50.2 242.298 49.617C242.35 48.892 241.741 48.309 241.185 47.843C240.317 47.105 239.45 46.38 238.582 45.655C238.025 45.189 237.429 44.697 236.73 44.49C234.943 43.972 233.156 45.422 232.211 47.015C231.266 48.621 230.735 50.498 229.427 51.832C227.55 53.774 223.989 53.891 222.228 51.858C220.454 49.825 221.36 46.018 223.963 45.28C224.947 45.008 226.19 45.034 226.708 44.166C227.614 42.625 225.025 40.657 225.918 39.103C226.604 37.912 228.417 38.456 229.738 38.054C231.046 37.653 231.784 36.332 232.56 35.193C233.324 34.066 234.528 32.927 235.875 33.225C235.771 32.435 235.668 31.58 236.017 30.868C236.367 30.143 237.351 29.677 237.998 30.143C237.338 31.23 238.128 32.745 239.28 33.289C240.432 33.833 241.779 33.704 243.048 33.561C244.317 33.406 245.91 32.94 246.013 31.671C246.052 31.257 245.896 30.817 246.052 30.428C246.609 28.913 249.405 30.998 250.48 29.781C251.101 29.147 250.415 28.02 249.548 27.813C248.694 27.593 247.8 27.917 246.92 27.943C246.039 27.982 244.964 27.516 244.926 26.635C244.887 25.767 245.858 25.146 245.962 24.291C246.13 22.841 243.67 22.465 242.802 23.643C241.947 24.821 242.245 26.44 242.504 27.877C242.776 29.314 242.905 31.01 241.844 32.021C241.391 32.707 240.213 32.345 239.824 31.62C239.423 30.895 239.513 30.014 239.448 29.199C239.384 28.37 239.021 27.438 238.218 27.218C237.661 27.063 237.066 27.335 236.496 27.412C234.243 27.684 232.676 24.771 233.388 22.621C234.087 20.458 236.133 19.073 238.114 17.972C239.564 17.169 241.364 16.418 242.801 17.234C243.474 17.609 243.941 18.257 244.601 18.645C245.74 19.318 247.152 19.072 248.46 19.098C250.519 19.15 252.551 19.94 254.092 21.286C254.675 21.817 255.219 22.697 254.766 23.332C254.274 24.005 252.863 24.148 253.108 24.938C254.636 25.443 256.462 24.265 256.63 22.672C257.381 23.009 257.925 23.773 257.989 24.588C259.634 22.918 262.793 23.164 264.139 25.093C264.501 25.598 264.76 26.206 265.278 26.556C265.796 26.893 266.702 26.724 266.767 26.116C266.793 25.922 266.728 25.727 266.663 25.546C266.352 24.665 266.029 23.798 265.718 22.931C266.922 22.284 268.347 23.294 269.162 24.381C272.192 28.434 274.355 25.999 278.627 26.66C281.514 27.1 282.783 28.952 284.415 31.192C289.413 38.08 296.017 43.726 300.561 50.925C301.04 51.676 301.48 52.44 301.894 53.217C301.817 53.023 301.752 52.829 301.674 52.635C299.887 47.935 297.673 43.442 295.071 39.208C294.514 38.302 293.944 37.408 293.362 36.528C292.999 35.984 292.624 35.427 292.249 34.896C291.77 34.197 291.265 33.524 290.76 32.85C290.358 32.306 289.957 31.775 289.543 31.257C289.258 30.895 288.961 30.532 288.663 30.169C288.352 29.755 288.015 29.353 287.653 28.952L286.565 27.696C286.461 27.567 286.345 27.437 286.215 27.308C285.84 26.868 285.438 26.44 285.037 26.013C285.011 25.961 284.972 25.923 284.92 25.884C284.817 25.767 284.7 25.651 284.583 25.534C284.259 25.171 283.91 24.822 283.573 24.472C283.016 23.902 282.447 23.333 281.864 22.789C281.385 22.31 280.893 21.857 280.388 21.404C279.948 21.003 279.507 20.601 279.054 20.213C278.614 19.824 278.174 19.449 277.72 19.074C277.176 18.608 276.62 18.155 276.05 17.701H276.037C274.47 16.445 272.852 15.254 271.195 14.14C270.781 13.855 270.379 13.583 269.965 13.312C269.551 13.027 269.123 12.768 268.709 12.509C268.282 12.25 267.867 11.978 267.44 11.732C267.013 11.46 266.586 11.214 266.158 10.968C265.808 10.761 265.472 10.567 265.122 10.385C264.941 10.268 264.773 10.178 264.591 10.087C263.853 9.673 263.102 9.271 262.351 8.896C261.976 8.702 261.6 8.508 261.212 8.326C260.733 8.08 260.241 7.847 259.749 7.627C259.684 7.588 259.607 7.549 259.529 7.523C259.089 7.316 258.649 7.109 258.195 6.914C257.561 6.642 256.926 6.37 256.292 6.111C255.567 5.813 254.842 5.515 254.104 5.243C253.288 4.932 252.472 4.634 251.644 4.363C250.815 4.078 249.974 3.806 249.132 3.547C248.29 3.288 247.449 3.055 246.594 2.822C244.911 2.369 243.202 1.968 241.48 1.618C241.454 1.605 241.415 1.605 241.389 1.592C240.728 1.463 240.068 1.333 239.408 1.23C239.356 1.217 239.317 1.204 239.278 1.204C238.993 1.152 238.695 1.1 238.397 1.062C237.167 0.855 235.924 0.687001 234.668 0.544001C234.526 0.518001 234.37 0.505001 234.215 0.492001C233.852 0.440001 233.49 0.414 233.115 0.375C232.287 0.297 231.457 0.233002 230.616 0.181002C229.749 0.116002 228.868 0.077 227.988 0.052C227.069 0.013 226.149 0 225.23 0C222.796 0 220.387 0.104001 218.005 0.324001C217.435 0.363001 216.879 0.415001 216.322 0.480001C215.739 0.545001 215.157 0.609 214.574 0.687C213.991 0.765 213.409 0.842001 212.839 0.933001C212.256 1.024 211.687 1.114 211.104 1.218C210.612 1.296 210.107 1.386 209.615 1.49C208.398 1.723 207.194 1.982 206.002 2.267C205.445 2.396 204.888 2.539 204.332 2.694C203.775 2.836 203.218 2.992 202.675 3.147C201.756 3.406 200.862 3.691 199.969 3.976H199.956C199.231 4.222 198.493 4.468 197.781 4.714C197.768 4.714 197.742 4.727 197.729 4.74C196.991 4.999 196.279 5.271 195.554 5.556C195.515 5.569 195.476 5.582 195.437 5.595C194.777 5.854 194.116 6.126 193.469 6.398C192.653 6.735 191.85 7.097 191.06 7.46C190.387 7.771 189.727 8.082 189.079 8.405C188.38 8.755 187.681 9.104 186.994 9.467C186.968 9.48 186.942 9.493 186.916 9.506C186.256 9.856 185.595 10.218 184.948 10.594C184.275 10.969 183.614 11.358 182.954 11.773H182.941C182.32 12.148 181.711 12.524 181.102 12.912C180.869 13.054 180.649 13.21 180.416 13.365C179.769 13.78 179.147 14.207 178.513 14.647C177.736 15.178 176.985 15.735 176.234 16.292C175.573 16.784 174.926 17.289 174.292 17.794C170.628 20.72 167.209 23.944 164.115 27.44C163.014 28.657 161.978 29.9 160.969 31.169C160.114 32.257 159.286 33.357 158.496 34.497C158.703 34.471 158.911 34.445 159.118 34.432C160.283 34.341 161.513 34.38 162.562 33.875C163.533 33.396 164.219 32.528 165.1 31.907C167.353 30.301 171.043 30.004 171.652 27.31C171.859 26.404 171.613 25.42 171.95 24.552C172.585 22.933 174.747 22.7 176.482 22.726C177.22 22.726 178.087 22.829 178.424 23.477C178.67 23.93 178.527 24.5 178.346 24.979C177.284 28.009 175.135 30.624 172.403 32.282C170.15 33.655 167.211 34.716 166.589 37.28C166.9 38.148 168.479 38.083 168.609 38.989C168.7 39.714 167.768 40.09 167.431 40.737C166.939 41.682 168.065 42.835 169.14 42.783C170.215 42.731 171.108 41.954 171.898 41.229C174.254 39.041 176.727 36.684 177.582 33.577C177.945 32.295 178.074 30.793 179.11 29.938C180.34 28.928 182.541 29.627 182.956 31.168C183.979 30.599 185.572 30.171 186.102 31.233C186.283 31.608 186.232 32.049 186.322 32.45C186.659 34.107 188.925 34.858 189.158 36.529C189.43 38.458 186.957 39.455 185.028 39.753C183.28 40.025 181.532 40.297 179.784 40.582C179.02 40.699 178.23 40.828 177.609 41.281C176.987 41.747 176.599 42.628 176.961 43.314C177.168 43.69 177.57 43.936 177.868 44.246C179.318 45.696 178.127 48.687 176.081 48.752C175.382 48.778 174.695 48.519 173.996 48.493C171.924 48.402 170.28 50.228 169.296 52.054C168.312 53.88 167.574 55.964 165.916 57.207C163.249 59.214 158.652 58.748 157.357 61.83C156.839 63.073 157.111 64.471 157.318 65.805C157.525 67.126 157.616 68.602 156.839 69.702C156.075 70.79 154.081 71.023 153.511 69.806C153.265 69.275 153.343 68.654 153.433 68.084C153.744 66.168 154.041 64.251 154.339 62.335C154.559 60.911 154.753 59.318 153.912 58.152C152.734 56.52 150.092 56.676 148.564 57.984C147.049 59.292 146.415 61.338 145.988 63.293C145.677 64.743 145.315 66.789 144.512 68.446C144.24 70.052 144.02 71.683 143.852 73.327C143.684 75.01 143.567 76.681 143.503 78.39C143.71 78.222 143.93 78.015 144.163 77.769C144.979 76.927 146.623 73.367 148.099 75.115C148.474 75.555 148.487 76.267 148.125 76.734C147.672 77.317 146.765 77.446 146.416 78.08C145.989 78.831 146.584 79.763 147.284 80.255C147.983 80.76 148.838 81.071 149.33 81.783C150.275 83.143 149.369 85.202 150.288 86.587C151.078 87.778 152.761 87.856 154.198 88.011C154.366 88.037 154.522 88.063 154.69 88.089C155.091 85.24 156.425 82.923 160.309 82.042C165.67 80.825 172.714 85.266 175.73 89.306C179.097 93.825 180.689 100.221 185.843 102.487C189.533 104.105 194.777 103.523 196.577 107.135C198.183 110.372 195.386 114.011 194.959 117.597C194.687 119.967 195.464 122.323 195.645 124.692C195.814 127.075 195.114 129.846 192.952 130.843C191.748 131.387 190.233 131.322 189.262 132.228C187.54 133.86 188.951 137.226 187.229 138.858C186.62 139.428 185.779 139.635 185.041 140.01C181.17 141.965 181.273 147.663 183.073 151.612C183.138 151.755 183.203 151.884 183.267 152.026C188.99 155.458 195.153 158.202 201.666 160.144C209.124 162.41 217.036 163.614 225.232 163.614C239.099 163.614 252.177 160.157 263.623 154.058H263.636C266.122 152.724 268.544 151.274 270.874 149.694C274.486 147.273 277.879 144.566 281.038 141.614C283.226 139.568 285.311 137.406 287.253 135.127C288.626 133.547 289.92 131.903 291.163 130.219C291.797 129.352 292.419 128.484 293.002 127.591C294.789 124.976 296.421 122.243 297.884 119.421C300.008 115.355 301.781 111.082 303.18 106.654C304.617 102.187 305.666 97.551 306.301 92.786C306.547 90.947 306.741 89.083 306.871 87.205C305.977 88.073 304.812 88.694 303.582 88.668C301.613 88.644 299.995 86.999 299.205 85.187Z" fill="#EEEEEE"/>
<path d="M154.106 103.314C153.847 100.97 154.624 98.6269 154.663 96.2569C154.689 94.6249 154.573 92.9029 154.546 91.2589C153.148 91.1939 151.749 90.9999 150.39 90.6759C150.105 90.6109 149.794 90.5209 149.626 90.2879C149.444 90.0419 149.47 89.7179 149.457 89.4199C149.353 87.5819 147.579 86.3639 145.987 85.4449C145.171 84.9659 144.342 84.4999 143.462 84.2019C143.462 84.3959 143.462 84.5779 143.475 84.7719C143.799 93.8749 145.611 102.615 148.68 110.733C150.078 114.436 151.749 118.023 153.678 121.454C154.481 122.943 155.361 124.406 156.281 125.843C157.42 127.617 158.612 129.352 159.894 131.022C161.085 132.628 162.354 134.194 163.688 135.696C165.514 137.781 167.443 139.762 169.476 141.652C171.276 143.335 173.153 144.928 175.109 146.443C170.642 134.453 166.434 122.217 158.794 112.014C156.787 109.348 154.482 106.629 154.106 103.314Z" fill="#F5F5F5"/>
<path d="M143.424 81.8071C143.424 82.2081 143.437 82.6051 143.444 83.0051C143.437 82.6051 143.424 82.2091 143.424 81.8071Z" fill="#263238"/>
<g opacity="0.6">
<path d="M179.688 149.761C180.376 150.226 181.072 150.679 181.778 151.119C181.071 150.679 180.375 150.226 179.688 149.761Z" fill="#263238"/>
</g>
<path d="M248.986 144.629C248.471 144.629 247.957 144.577 247.459 144.467C245.771 144.097 244.488 143.126 243.847 141.733C243.33 140.609 243.274 139.369 243.22 138.17C243.183 137.358 243.145 136.518 242.961 135.734C242.631 134.322 241.858 133.108 241.039 131.823C240.43 130.866 239.8 129.877 239.375 128.803C238.597 126.835 238.537 124.682 238.479 122.6L238.464 122.097C238.033 107.706 234.02 96.024 226.86 88.314C225.866 87.244 224.753 86.202 223.347 85.829C221.714 85.395 219.861 86.034 218.843 87.382C218.586 87.722 218.371 88.114 218.164 88.493C217.838 89.087 217.502 89.702 216.98 90.178C216.236 90.858 215.213 91.134 214.099 90.957C212.639 90.725 211.23 89.753 210.508 88.479C209.239 86.24 209.467 83.482 209.65 81.266L210.389 72.336C210.503 70.958 210.659 69.071 211.777 67.778C212.642 66.778 213.889 66.319 215.095 65.874C215.988 65.545 216.912 65.205 217.655 64.648C219.088 63.574 219.724 61.88 220.397 60.086C220.772 59.088 221.159 58.055 221.698 57.133C222.671 55.468 224.972 54.338 226.826 54.611C227.703 54.741 228.353 55.18 228.708 55.868C229.593 54.204 230.687 53.203 232.042 52.815C235.001 51.966 238.606 54.308 242.092 56.57C245.275 58.636 248.28 60.587 250.641 60.158C251.235 60.05 251.839 59.88 252.424 59.715C253.666 59.365 254.951 59.002 256.264 59.188C259.702 59.669 261.456 63.398 262.6 66.594L268.193 82.221C268.889 84.166 269.786 86.302 271.635 87.018C272.359 87.299 273.142 87.328 273.972 87.359C274.781 87.39 275.618 87.421 276.404 87.707C277.799 88.214 278.688 89.305 278.975 90.861C279.45 93.442 278.156 96.818 275.964 98.714C274.951 99.591 273.8 100.374 272.686 101.132C270.158 102.854 267.769 104.48 266.74 107.152C266.189 108.582 266.121 110.18 266.055 111.725C265.985 113.378 265.912 115.088 265.259 116.645C264.695 117.989 263.745 119.108 262.825 120.19C262.262 120.853 261.68 121.538 261.2 122.262C259.41 124.959 258.913 128.306 258.433 131.542C258.371 131.957 258.31 132.37 258.246 132.782C257.686 136.386 256.719 140.409 253.794 142.916C252.514 144.017 250.738 144.629 248.986 144.629Z" fill="#E0E0E0"/>
<g opacity="0.6">
<path d="M143.476 78.8549C143.457 79.3409 143.458 79.8379 143.45 80.3309C143.458 79.8369 143.456 79.3399 143.476 78.8549Z" fill="#263238"/>
</g>
<path d="M154.689 88.087C154.521 88.061 154.365 88.035 154.197 88.009C152.76 87.853 151.076 87.776 150.287 86.585C149.368 85.2 150.274 83.141 149.329 81.781C148.837 81.069 147.982 80.758 147.283 80.253C146.584 79.761 145.988 78.829 146.416 78.078C146.765 77.444 147.672 77.314 148.125 76.732C148.488 76.266 148.475 75.554 148.099 75.113C146.623 73.365 144.979 76.926 144.163 77.767C143.93 78.013 143.71 78.22 143.502 78.388V78.401C143.489 78.556 143.476 78.699 143.476 78.854C143.457 79.34 143.458 79.837 143.45 80.33C143.442 80.824 143.424 81.314 143.424 81.806C143.424 82.207 143.437 82.604 143.444 83.004C143.45 83.404 143.45 83.807 143.463 84.202C144.343 84.5 145.172 84.966 145.988 85.445C147.581 86.364 149.355 87.581 149.458 89.42C149.471 89.718 149.445 90.042 149.627 90.288C149.795 90.521 150.106 90.612 150.391 90.676C151.751 91 153.149 91.194 154.547 91.259" fill="#E0E0E0"/>
<path d="M154.547 91.26C154.573 92.904 154.69 94.627 154.664 96.258C154.625 98.628 153.848 100.971 154.107 103.315C154.483 106.63 156.787 109.349 158.794 112.016C166.433 122.219 170.641 134.455 175.109 146.445H175.122C175.951 147.105 176.792 147.727 177.647 148.336C178.32 148.822 179 149.298 179.688 149.762C180.376 150.227 181.072 150.68 181.778 151.12C182.27 151.431 182.762 151.729 183.267 152.026C183.202 151.884 183.137 151.754 183.073 151.612C181.273 147.663 181.169 141.966 185.041 140.01C185.779 139.634 186.621 139.427 187.229 138.858C188.951 137.226 187.54 133.86 189.262 132.228C190.233 131.322 191.748 131.386 192.952 130.843C195.114 129.846 195.814 127.075 195.645 124.692C195.464 122.323 194.687 119.966 194.959 117.597C195.386 114.01 198.183 110.372 196.577 107.135C194.777 103.522 189.533 104.105 185.843 102.487C180.69 100.221 179.097 93.825 175.73 89.306C172.713 85.266 165.669 80.825 160.309 82.042C156.425 82.923 155.091 85.24 154.69 88.089" fill="#E0E0E0"/>
<path d="M148.565 57.983C150.093 56.675 152.735 56.52 153.913 58.151C154.755 59.317 154.56 60.909 154.34 62.334C154.042 64.25 153.744 66.167 153.434 68.083C153.343 68.653 153.265 69.274 153.512 69.805C154.082 71.022 156.076 70.789 156.84 69.701C157.617 68.6 157.526 67.124 157.319 65.804C157.112 64.47 156.84 63.072 157.358 61.829C158.653 58.747 163.249 59.213 165.917 57.206C167.574 55.963 168.313 53.878 169.297 52.053C170.281 50.227 171.926 48.401 173.997 48.492C174.696 48.518 175.383 48.777 176.082 48.751C178.128 48.686 179.319 45.695 177.869 44.245C177.571 43.934 177.17 43.688 176.962 43.313C176.6 42.627 176.988 41.746 177.61 41.28C178.232 40.827 179.021 40.697 179.785 40.581C181.533 40.296 183.281 40.024 185.029 39.752C186.958 39.454 189.431 38.457 189.159 36.528C188.926 34.858 186.66 34.107 186.323 32.449C186.233 32.047 186.284 31.607 186.103 31.232C185.572 30.17 183.979 30.598 182.957 31.167C182.543 29.626 180.342 28.927 179.111 29.937C178.075 30.791 177.946 32.294 177.583 33.576C176.728 36.684 174.255 39.04 171.899 41.228C171.109 41.953 170.216 42.73 169.141 42.782C168.066 42.834 166.94 41.681 167.432 40.736C167.769 40.089 168.701 39.713 168.61 38.988C168.481 38.082 166.901 38.146 166.59 37.279C167.211 34.715 170.151 33.654 172.404 32.281C175.136 30.624 177.286 28.008 178.347 24.978C178.528 24.499 178.671 23.929 178.425 23.476C178.088 22.829 177.221 22.725 176.483 22.725C174.748 22.699 172.585 22.932 171.951 24.551C171.614 25.419 171.861 26.402 171.653 27.309C171.044 30.002 167.354 30.3 165.101 31.906C164.22 32.527 163.534 33.395 162.563 33.874C161.514 34.379 160.284 34.34 159.119 34.431C158.912 34.444 158.705 34.47 158.497 34.496C157.785 35.487 157.099 36.496 156.437 37.523C155.775 38.549 155.137 39.591 154.522 40.647C151.622 45.606 149.239 50.902 147.426 56.47C146.792 58.406 146.232 60.374 145.746 62.371C145.26 64.368 144.849 66.395 144.513 68.447C145.316 66.79 145.678 64.744 145.989 63.294C146.415 61.336 147.05 59.29 148.565 57.983Z" fill="#E0E0E0"/>
<path d="M217.199 20.032C217.972 19.017 217.746 17.558 218.248 16.386C219.081 14.438 221.67 13.74 222.568 11.821C222.913 11.082 222.998 10.18 223.601 9.63099C224.103 9.17299 224.848 9.08099 225.388 8.66799C226.594 7.74399 226.094 5.64199 224.814 4.82399C221.605 2.77499 215.698 5.14399 212.925 7.14999C209.36 9.72899 205.872 12.835 201.129 12.532C199.822 12.449 198.462 12.089 197.236 12.553C196.011 13.017 195.256 14.853 196.31 15.63C196.897 16.062 197.729 15.942 198.39 16.249C199.613 16.816 199.735 18.585 199.138 19.793C198.541 21.001 197.466 21.905 196.761 23.053C196.078 24.166 195.764 25.501 195.88 26.801C195.961 27.706 196.28 28.643 196.99 29.209C198.466 30.387 200.71 29.378 201.96 27.962C203.21 26.547 204.073 24.717 205.694 23.748C206.503 23.265 207.436 23.04 208.353 22.822C210.415 22.332 212.476 21.842 214.538 21.352C215.522 21.12 216.585 20.836 217.199 20.032Z" fill="#E0E0E0"/>
<g opacity="0.6">
<path d="M307.013 80.6809C307.006 79.5029 306.971 78.3339 306.908 77.1719C306.97 78.3339 307.006 79.5019 307.013 80.6809C307.039 81.0559 307.039 81.4319 307.039 81.8069C307.039 83.6199 306.974 85.4069 306.871 87.1939C306.975 85.4069 307.039 83.6199 307.039 81.8069C307.038 81.4319 307.038 81.0559 307.013 80.6809Z" fill="#263238"/>
</g>
<g opacity="0.6">
<path d="M301.898 53.231C302.287 54.267 302.652 55.309 302.997 56.36C302.652 55.309 302.286 54.266 301.898 53.231C301.898 53.231 301.911 53.218 301.898 53.218C301.898 53.231 301.898 53.231 301.898 53.231Z" fill="#263238"/>
</g>
<path d="M307.013 80.6809C307.006 79.5029 306.971 78.3339 306.908 77.1719C306.845 76.0099 306.754 74.8539 306.638 73.7019C306.547 72.7699 306.444 71.8499 306.314 70.9309C306.188 69.9599 306.044 68.9939 305.882 68.0329C305.398 65.1499 304.757 62.3139 303.97 59.5369C303.666 58.4689 303.342 57.4099 302.997 56.3599C302.652 55.3099 302.286 54.2669 301.898 53.2309C301.898 53.2309 301.898 53.2309 301.898 53.2179C301.484 52.4409 301.044 51.6769 300.565 50.9259C296.02 43.7269 289.417 38.0809 284.419 31.1929C282.787 28.9529 281.518 27.1009 278.631 26.6609C274.358 26.0009 272.196 28.4349 269.166 24.3819C268.35 23.2939 266.926 22.2839 265.722 22.9319C266.033 23.7999 266.356 24.6669 266.667 25.5469C266.732 25.7279 266.796 25.9229 266.771 26.1169C266.706 26.7259 265.8 26.8939 265.282 26.5569C264.764 26.2069 264.505 25.5989 264.143 25.0939C262.797 23.1649 259.637 22.9189 257.993 24.5889C257.928 23.7729 257.384 23.0089 256.634 22.6729C256.466 24.2659 254.64 25.4439 253.112 24.9389C252.866 24.1489 254.277 24.0069 254.77 23.3329C255.223 22.6989 254.679 21.8179 254.096 21.2869C252.555 19.9399 250.522 19.1499 248.464 19.0989C247.156 19.0729 245.745 19.3189 244.605 18.6459C243.945 18.2569 243.479 17.6099 242.805 17.2349C241.368 16.4189 239.568 17.1699 238.118 17.9729C236.137 19.0739 234.091 20.4589 233.392 22.6219C232.68 24.7709 234.247 27.6849 236.5 27.4129C237.07 27.3349 237.665 27.0629 238.222 27.2189C239.025 27.4389 239.387 28.3709 239.452 29.1999C239.517 30.0149 239.426 30.8959 239.828 31.6209C240.216 32.3459 241.395 32.7089 241.848 32.0219C242.91 31.0119 242.78 29.3159 242.508 27.8779C242.249 26.4409 241.951 24.8219 242.806 23.6439C243.674 22.4659 246.134 22.8409 245.966 24.2919C245.862 25.1459 244.891 25.7679 244.93 26.6359C244.969 27.5159 246.044 27.9829 246.924 27.9439C247.804 27.9179 248.698 27.5939 249.552 27.8139C250.42 28.0209 251.106 29.1479 250.484 29.7819C249.409 30.9989 246.612 28.9139 246.056 30.4289C245.9 30.8179 246.056 31.2579 246.017 31.6719C245.913 32.9409 244.321 33.4069 243.052 33.5619C241.783 33.7049 240.437 33.8339 239.284 33.2899C238.132 32.7459 237.342 31.2309 238.002 30.1439C237.355 29.6779 236.371 30.1439 236.021 30.8689C235.671 31.5809 235.775 32.4359 235.879 33.2259C234.533 32.9279 233.328 34.0679 232.564 35.1939C231.787 36.3329 231.049 37.6539 229.742 38.0549C228.421 38.4569 226.608 37.9129 225.922 39.1039C225.029 40.6579 227.618 42.6259 226.712 44.1669C226.194 45.0349 224.951 45.0089 223.967 45.2809C221.364 46.0189 220.458 49.8259 222.232 51.8589C223.993 53.8919 227.554 53.7759 229.431 51.8329C230.739 50.4989 231.27 48.6219 232.215 47.0159C233.16 45.4229 234.947 43.9729 236.734 44.4909C237.433 44.6979 238.029 45.1899 238.586 45.6559C239.453 46.3809 240.321 47.1059 241.189 47.8439C241.746 48.3099 242.354 48.8929 242.302 49.6179C242.25 50.2009 241.797 50.6539 241.603 51.1979C241.059 52.7649 243.325 54.2539 244.749 53.3989C246.186 52.5449 246.329 50.3559 245.358 49.0099C244.011 47.1449 240.968 46.2129 241.046 43.9079C242.6 42.6389 245.047 43.9729 245.953 45.7719C246.859 47.5589 246.885 49.6819 247.649 51.5339C248.413 53.3979 250.549 55.0429 252.336 54.1369C251.87 52.5319 251.417 50.9389 250.951 49.3459C252.09 48.4919 253.398 50.9779 254.758 50.5629C255.587 50.3039 255.69 49.1129 255.328 48.3099C254.979 47.5069 254.331 46.8339 254.176 45.9659C253.917 44.3859 255.678 42.9749 257.271 43.2339C258.85 43.4929 260.003 45.0079 260.301 46.5749C260.417 47.1959 260.443 47.8569 260.715 48.4269C261.311 49.6699 262.852 50.0459 264.12 50.5629C265.402 51.0809 266.723 52.3629 266.192 53.6319C265.946 54.1889 265.363 54.7199 265.57 55.2899C265.764 55.7949 266.515 56.0149 266.515 56.5589C266.502 56.9209 266.127 57.1669 265.79 57.3099C264.935 57.6599 264.003 57.7759 263.174 58.1779C262.345 58.5659 261.594 59.3689 261.659 60.2759C261.762 61.5709 263.303 62.1919 264.028 63.2669C264.727 64.2899 264.624 65.6489 265.064 66.8149C265.478 67.8899 266.333 68.7309 267.019 69.6509C269.168 72.5769 269.673 76.3449 270.722 79.8149C271.188 81.3819 272.043 83.1299 273.648 83.4279C274.529 83.5829 275.409 83.2469 276.238 82.9229C278.555 82.0039 280.964 81.0199 282.583 79.1419C284.215 77.2509 284.758 74.1829 283.088 72.3309C282.881 72.0849 282.609 71.8649 282.298 71.8259C281.858 71.7739 281.469 72.0719 281.081 72.2529C279.903 72.7969 278.453 72.3439 277.468 71.4759C276.497 70.6209 275.901 69.4169 275.319 68.2519C274.685 66.9699 274.05 65.6749 273.402 64.3809C274.166 63.7329 275.383 64.0049 276.173 64.6399C276.95 65.2749 277.429 66.1939 278.064 66.9709C279.993 69.3789 283.166 70.4409 286.234 70.8029C287.011 70.8939 287.814 70.9589 288.539 71.2819C290.831 72.3309 291.491 75.7099 293.913 76.4349C294.586 76.6419 295.337 76.6029 295.972 76.9009C296.93 77.3539 297.409 78.4419 297.694 79.4649C298.225 81.3679 298.406 83.3749 299.209 85.1879C299.999 87.0009 301.618 88.6449 303.586 88.6709C304.816 88.6969 305.981 88.0749 306.875 87.2079V87.1949C306.979 85.4079 307.043 83.6209 307.043 81.8079C307.038 81.4319 307.038 81.0559 307.013 80.6809Z" fill="#E0E0E0"/>
<path d="M273.896 114.643C272.677 114.883 272.434 115.6 271.771 116.503C270.909 117.678 269.674 118.855 268.889 120.014C267.558 121.981 268.756 125.048 267.006 126.702C266.649 127.039 266.188 127.26 265.868 127.632C265.165 128.45 265.427 129.838 266.287 130.489C267.147 131.14 268.409 131.094 269.336 130.544C270.264 129.994 270.882 129.021 271.204 127.992C271.436 127.25 271.566 126.411 272.151 125.9C273.153 125.023 274.71 125.674 276.028 125.489C281.64 124.704 279.229 113.593 273.896 114.643Z" fill="#E0E0E0"/>
<path d="M425.398 133.241H318.003V213.426H425.398V133.241Z" fill="#F5F5F5"/>
<path d="M425.398 133.241H318.003V141.336H425.398V133.241Z" fill="#E0E0E0"/>
<path d="M323.127 137.288C323.127 137.886 322.642 138.37 322.045 138.37C321.448 138.37 320.963 137.885 320.963 137.288C320.963 136.69 321.448 136.206 322.045 136.206C322.642 136.206 323.127 136.691 323.127 137.288Z" fill="#F5F5F5"/>
<path d="M326.497 137.288C326.497 137.886 326.012 138.37 325.415 138.37C324.817 138.37 324.333 137.885 324.333 137.288C324.333 136.69 324.818 136.206 325.415 136.206C326.013 136.206 326.497 136.691 326.497 137.288Z" fill="#F5F5F5"/>
<path d="M329.868 137.288C329.868 137.886 329.383 138.37 328.786 138.37C328.189 138.37 327.704 137.885 327.704 137.288C327.704 136.69 328.189 136.206 328.786 136.206C329.383 136.206 329.868 136.691 329.868 137.288Z" fill="#F5F5F5"/>
<path d="M413.533 147.294H306.138V227.479H413.533V147.294Z" fill="#EBEBEB"/>
<path d="M413.533 147.294H306.138V155.389H413.533V147.294Z" fill="#E0E0E0"/>
<path d="M311.261 151.342C311.261 151.94 310.776 152.424 310.179 152.424C309.581 152.424 309.097 151.939 309.097 151.342C309.097 150.745 309.582 150.26 310.179 150.26C310.777 150.26 311.261 150.744 311.261 151.342Z" fill="#F5F5F5"/>
<path d="M314.632 151.342C314.632 151.94 314.147 152.424 313.55 152.424C312.952 152.424 312.468 151.939 312.468 151.342C312.468 150.745 312.953 150.26 313.55 150.26C314.148 150.26 314.632 150.744 314.632 151.342Z" fill="#F5F5F5"/>
<path d="M316.921 152.424C317.519 152.424 318.003 151.94 318.003 151.342C318.003 150.744 317.519 150.26 316.921 150.26C316.324 150.26 315.839 150.744 315.839 151.342C315.839 151.94 316.324 152.424 316.921 152.424Z" fill="#F5F5F5"/>
<path d="M395.567 161.464H288.172V241.649H395.567V161.464Z" fill="#F5F5F5"/>
<path d="M395.567 161.464H288.172V169.559H395.567V161.464Z" fill="#E0E0E0"/>
<path d="M293.295 165.512C293.295 166.11 292.81 166.594 292.213 166.594C291.615 166.594 291.131 166.109 291.131 165.512C291.131 164.914 291.616 164.43 292.213 164.43C292.811 164.429 293.295 164.914 293.295 165.512Z" fill="#F5F5F5"/>
<path d="M296.666 165.512C296.666 166.11 296.181 166.594 295.584 166.594C294.986 166.594 294.502 166.109 294.502 165.512C294.502 164.914 294.987 164.43 295.584 164.43C296.182 164.429 296.666 164.914 296.666 165.512Z" fill="#F5F5F5"/>
<path d="M300.037 165.512C300.037 166.11 299.552 166.594 298.955 166.594C298.357 166.594 297.873 166.109 297.873 165.512C297.873 164.914 298.358 164.43 298.955 164.43C299.552 164.429 300.037 164.914 300.037 165.512Z" fill="#F5F5F5"/>
<path d="M350.624 241.649C350.633 241.649 350.641 241.757 350.65 241.97C350.656 242.209 350.664 242.52 350.675 242.914C350.686 243.776 350.702 244.996 350.722 246.555C350.741 249.757 350.769 254.351 350.803 260.058L350.804 260.236H350.624C338.423 260.256 320.98 260.286 301.631 260.318C283.028 260.288 266.189 260.261 253.964 260.242C247.889 260.207 242.962 260.179 239.519 260.159C237.839 260.138 236.522 260.122 235.592 260.11C235.165 260.099 234.828 260.091 234.571 260.084C234.341 260.075 234.223 260.066 234.223 260.057C234.223 260.048 234.341 260.039 234.571 260.03C234.828 260.023 235.166 260.015 235.592 260.004C236.522 259.992 237.839 259.976 239.519 259.955C242.962 259.935 247.889 259.907 253.964 259.872C266.189 259.852 283.028 259.826 301.631 259.796C320.98 259.828 338.423 259.858 350.624 259.878L350.446 260.056C350.48 254.349 350.508 249.755 350.527 246.553C350.547 244.993 350.563 243.774 350.574 242.912C350.584 242.519 350.593 242.207 350.599 241.968C350.607 241.757 350.615 241.649 350.624 241.649Z" fill="#EBEBEB"/>
<path d="M349.599 133.116C349.455 133.116 349.339 123.941 349.339 112.626C349.339 101.307 349.456 92.135 349.599 92.135C349.742 92.135 349.859 101.308 349.859 112.626C349.86 123.942 349.743 133.116 349.599 133.116Z" fill="#EBEBEB"/>
<path d="M392.413 342.459C384.571 330.464 385.714 313.326 395.081 302.479C397.988 299.112 402.051 296.186 406.483 296.565C411.021 296.953 414.677 300.845 416.058 305.186C417.439 309.526 416.96 314.229 416.149 318.71C415.013 324.985 413.112 331.406 408.759 336.067C404.405 340.728 398.009 345.517 392.413 342.459Z" fill="#72BBA6"/>
<path d="M396.75 400.195C393.796 393.304 395.939 384.579 401.747 379.838C403.55 378.367 405.908 377.227 408.158 377.824C410.461 378.435 411.992 380.772 412.31 383.133C412.628 385.494 411.955 387.874 411.131 390.109C409.977 393.239 408.416 396.375 405.751 398.382C403.085 400.39 399.356 402.278 396.75 400.195Z" fill="#72BBA6"/>
<path d="M377.838 396.078C379.994 385.444 374.39 373.709 364.763 368.703C361.775 367.149 358.097 366.229 355.086 367.737C352.003 369.281 350.521 373.043 350.766 376.483C351.011 379.923 352.664 383.096 354.49 386.022C357.047 390.118 360.183 394.102 364.55 396.161C368.917 398.219 374.758 399.796 377.838 396.078Z" fill="#72BBA6"/>
<path d="M379.197 367.322C382.952 355.205 376.585 340.514 365.975 333.562C362.682 331.404 358.512 329.902 354.832 331.304C351.065 332.739 348.9 336.941 348.781 340.971C348.662 345.001 350.214 348.886 351.995 352.503C354.489 357.567 357.669 362.568 362.508 365.475C367.347 368.382 375.178 371.286 379.197 367.322Z" fill="#72BBA6"/>
<path d="M386.738 426.546C386.72 426.547 386.679 426.345 386.615 425.959C386.549 425.518 386.466 424.958 386.363 424.269C386.311 423.896 386.255 423.488 386.193 423.048C386.107 422.601 386.014 422.12 385.915 421.607C385.718 420.573 385.514 419.392 385.175 418.111C385.019 417.466 384.856 416.792 384.687 416.091C384.483 415.396 384.272 414.675 384.053 413.929C383.649 412.425 383.052 410.87 382.492 409.212C381.25 405.94 379.708 402.41 377.815 398.84C375.886 395.288 373.797 392.051 371.756 389.207C370.684 387.824 369.718 386.467 368.688 385.299C368.187 384.705 367.703 384.13 367.237 383.576C366.747 383.047 366.275 382.539 365.824 382.052C364.943 381.061 364.072 380.239 363.319 379.503C362.946 379.137 362.597 378.794 362.272 378.475C361.938 378.18 361.63 377.908 361.348 377.658C360.831 377.192 360.41 376.813 360.079 376.514C359.792 376.248 359.647 376.101 359.658 376.087C359.669 376.073 359.836 376.193 360.145 376.433C360.493 376.713 360.935 377.068 361.479 377.506C361.771 377.746 362.091 378.008 362.436 378.292C362.771 378.602 363.131 378.936 363.516 379.293C364.291 380.012 365.184 380.821 366.086 381.8C366.548 382.282 367.03 382.786 367.531 383.309C368.007 383.86 368.502 384.431 369.013 385.022C370.063 386.186 371.048 387.54 372.137 388.924C374.211 391.769 376.327 395.021 378.268 398.595C380.173 402.187 381.713 405.746 382.937 409.047C383.488 410.719 384.073 412.288 384.462 413.807C384.672 414.56 384.875 415.288 385.071 415.989C385.23 416.696 385.383 417.377 385.53 418.028C385.848 419.321 386.028 420.513 386.199 421.556C386.283 422.074 386.362 422.559 386.436 423.01C386.482 423.455 386.524 423.866 386.562 424.242C386.626 424.937 386.678 425.502 386.719 425.947C386.748 426.339 386.755 426.545 386.738 426.546Z" fill="#263238"/>
<path d="M386.461 428.724C386.452 428.723 386.453 428.641 386.461 428.482C386.475 428.293 386.492 428.063 386.513 427.78C386.574 427.122 386.656 426.224 386.761 425.088C386.819 424.5 386.883 423.852 386.953 423.145C387.007 422.434 387.026 421.657 387.07 420.826C387.132 419.161 387.291 417.268 387.233 415.171C387.228 414.122 387.223 413.024 387.217 411.881C387.205 410.737 387.097 409.55 387.039 408.319C386.957 405.854 386.621 403.24 386.325 400.486C385.573 394.997 384.397 389.008 382.608 382.866C380.759 376.74 378.48 371.076 376.118 366.064C374.865 363.593 373.721 361.219 372.446 359.107C371.824 358.044 371.267 356.989 370.653 356.024C370.035 355.063 369.44 354.139 368.873 353.257C367.779 351.466 366.613 349.967 365.654 348.605C365.164 347.932 364.725 347.291 364.292 346.724C363.849 346.17 363.441 345.661 363.072 345.2C362.365 344.305 361.806 343.597 361.396 343.079C361.224 342.853 361.084 342.669 360.97 342.519C360.876 342.391 360.831 342.322 360.838 342.316C360.845 342.31 360.903 342.367 361.01 342.484C361.135 342.626 361.288 342.799 361.475 343.012C361.903 343.516 362.488 344.205 363.227 345.075C363.608 345.529 364.027 346.029 364.485 346.575C364.93 347.134 365.382 347.767 365.884 348.435C366.868 349.784 368.057 351.274 369.175 353.058C369.754 353.938 370.359 354.859 370.99 355.817C371.615 356.78 372.182 357.834 372.815 358.896C374.111 361.007 375.274 363.383 376.544 365.86C378.939 370.882 381.244 376.567 383.1 382.722C384.898 388.892 386.065 394.912 386.794 400.428C387.079 403.196 387.4 405.822 387.464 408.298C387.513 409.534 387.612 410.726 387.613 411.874C387.607 413.021 387.601 414.123 387.596 415.176C387.631 417.281 387.446 419.178 387.357 420.846C387.3 421.679 387.266 422.456 387.198 423.168C387.112 423.874 387.033 424.523 386.961 425.111C386.816 426.244 386.701 427.14 386.617 427.796C386.576 428.077 386.542 428.305 386.515 428.492C386.487 428.645 386.469 428.725 386.461 428.724Z" fill="#263238"/>
<path d="M406.877 311.051C406.885 311.056 406.85 311.131 406.777 311.275C406.687 311.444 406.576 311.651 406.439 311.905C406.112 312.489 405.664 313.288 405.098 314.298C404.81 314.819 404.465 315.384 404.132 316.027C403.808 316.678 403.458 317.382 403.083 318.137C402.704 318.895 402.301 319.703 401.873 320.559C401.464 321.426 401.076 322.362 400.643 323.334C400.223 324.311 399.751 325.321 399.317 326.398C398.899 327.482 398.465 328.61 398.015 329.776C397.79 330.36 397.562 330.953 397.33 331.557C397.123 332.169 396.912 332.791 396.699 333.423C396.273 334.686 395.835 335.986 395.386 337.318C393.724 342.693 392.149 348.68 390.819 355.036C389.531 361.404 388.627 367.529 387.96 373.118C387.388 378.716 386.965 383.772 386.85 388.028C386.742 390.155 386.72 392.08 386.713 393.772C386.686 395.463 386.679 396.92 386.719 398.111C386.735 399.269 386.748 400.185 386.758 400.854C386.757 401.142 386.756 401.377 386.755 401.568C386.752 401.729 386.745 401.812 386.737 401.812C386.728 401.812 386.717 401.731 386.703 401.57C386.69 401.379 386.674 401.145 386.655 400.858C386.622 400.189 386.577 399.274 386.52 398.116C386.449 396.925 386.426 395.466 386.427 393.772C386.406 392.078 386.403 390.148 386.488 388.017C386.557 383.75 386.943 378.681 387.491 373.067C388.134 367.462 389.026 361.319 390.317 354.933C391.651 348.559 393.244 342.558 394.937 337.175C395.394 335.841 395.841 334.54 396.274 333.275C396.492 332.643 396.707 332.021 396.919 331.408C397.156 330.805 397.389 330.211 397.618 329.626C398.079 328.46 398.523 327.333 398.952 326.248C399.397 325.172 399.881 324.163 400.313 323.187C400.758 322.217 401.158 321.283 401.58 320.419C402.021 319.567 402.438 318.762 402.829 318.007C403.219 317.257 403.583 316.558 403.919 315.911C404.266 315.273 404.625 314.714 404.927 314.2C405.529 313.209 406.005 312.425 406.353 311.852C406.507 311.609 406.632 311.41 406.735 311.249C406.821 311.113 406.87 311.046 406.877 311.051Z" fill="#263238"/>
<path d="M404.212 384.655C404.241 384.675 403.943 385.196 403.378 386.119C402.805 387.036 402.017 388.39 401.094 390.086C400.163 391.779 399.15 393.846 398.123 396.182C397.121 398.529 396.119 401.153 395.24 403.964C394.38 406.782 393.727 409.514 393.23 412.018C392.76 414.527 392.431 416.805 392.244 418.728C392.049 420.649 391.935 422.212 391.892 423.292C391.837 424.372 391.79 424.971 391.755 424.971C391.72 424.971 391.699 424.372 391.692 423.287C391.674 422.202 391.733 420.631 391.882 418.695C392.023 416.758 392.317 414.461 392.764 411.931C393.238 409.406 393.882 406.651 394.748 403.813C395.633 400.982 396.656 398.344 397.688 395.992C398.746 393.651 399.799 391.588 400.775 389.909C401.743 388.227 402.581 386.896 403.208 386.01C403.828 385.118 404.183 384.635 404.212 384.655Z" fill="#263238"/>
<path d="M371.335 421.147H405.784L401.616 456.332H375.626L371.335 421.147Z" fill="#455A64"/>
<path d="M372.592 452.534L375.518 456.332H401.616L404.626 452.656L372.592 452.534Z" fill="#263238"/>
<path d="M404.442 431.495C404.442 431.637 397.293 431.752 388.476 431.752C379.656 431.752 372.509 431.637 372.509 431.495C372.509 431.353 379.656 431.238 388.476 431.238C397.293 431.238 404.442 431.353 404.442 431.495Z" fill="#FAFAFA"/>
<path d="M404.442 433.838C404.442 433.98 397.293 434.095 388.476 434.095C379.656 434.095 372.509 433.98 372.509 433.838C372.509 433.696 379.656 433.581 388.476 433.581C397.293 433.581 404.442 433.696 404.442 433.838Z" fill="#FAFAFA"/>
<path d="M404.012 436.106C404.012 436.248 397.113 436.363 388.605 436.363C380.094 436.363 373.197 436.248 373.197 436.106C373.197 435.964 380.094 435.849 388.605 435.849C397.114 435.849 404.012 435.964 404.012 436.106Z" fill="#FAFAFA"/>
<path d="M45.5202 418.629L29.5752 456.433L18.3462 456.332L23.2952 418.597L45.5202 418.629Z" fill="#263238"/>
<path d="M106.585 418.753L90.8511 456.383L79.6221 456.282L84.5311 418.708L106.585 418.753Z" fill="#263238"/>
<path d="M19.3071 191.927C25.4701 182.683 147.149 181.328 152.355 190.959L196.808 275.449L263.669 272.375C263.67 272.351 272.655 271.948 281.454 280.361C285.794 284.51 285.574 310.684 284.351 320.794C283.537 327.527 273.284 419.091 273.284 419.091L21.3781 418.58C21.3781 418.58 13.1441 201.171 19.3071 191.927Z" fill="#455A64"/>
<path d="M92.8122 420.972C92.8122 420.972 92.8382 420.699 92.8572 420.167C92.8742 419.615 92.8982 418.829 92.9302 417.807C92.9812 415.714 93.0552 412.666 93.1502 408.762C93.3142 400.904 93.5492 389.602 93.8382 375.745L93.6292 375.949C114.238 376.096 140.99 376.287 170.132 376.495C200.566 376.663 228.387 376.817 249.398 376.933L249.2 376.764C251.36 389.661 251.12 400.361 250.602 407.67C250.334 411.334 249.981 414.17 249.731 416.093C249.598 417.039 249.496 417.766 249.424 418.278C249.357 418.771 249.337 419.026 249.337 419.026C249.337 419.026 250.201 415.022 250.828 407.687C251.415 400.371 251.718 389.645 249.6 376.696L249.572 376.528L249.401 376.527C228.39 376.376 200.569 376.177 170.136 375.959C140.994 375.797 114.241 375.648 93.6322 375.534L93.4262 375.533L93.4232 375.738C93.2102 389.596 93.0372 400.899 92.9162 408.758C92.8692 412.663 92.8332 415.712 92.8082 417.805C92.8022 418.828 92.7982 419.614 92.7952 420.166C92.7962 420.699 92.8122 420.972 92.8122 420.972Z" fill="#263238"/>
<path d="M100.54 279.188C100.54 279.188 100.368 279.178 100.028 279.179C99.6892 279.186 99.1802 279.16 98.5172 279.256C97.1952 279.388 95.2182 279.807 92.9312 281.005C90.6562 282.197 88.1032 284.21 85.9012 287.208C83.6732 290.185 81.9932 294.214 81.1232 298.873C80.2092 303.536 80.0802 308.792 80.1002 314.443C80.1072 320.103 80.2962 326.202 80.6732 332.681C81.4222 345.642 83.0282 360.098 84.7602 375.691L84.7842 375.911L85.0052 375.913C104.609 376.046 126.145 376.192 148.702 376.345C193.425 376.607 234.124 376.846 264.23 377.023L264.417 377.024L264.427 376.842C264.919 368.317 264.437 360.57 263.293 353.882C262.116 347.213 260.108 341.573 257.316 337.659C255.938 335.702 254.386 334.184 252.83 333.188C252.64 333.057 252.454 332.928 252.272 332.803C252.075 332.7 251.883 332.6 251.694 332.501C251.316 332.306 250.954 332.119 250.608 331.94C249.871 331.689 249.22 331.406 248.609 331.254C247.995 331.124 247.452 331.009 246.981 330.91C246.507 330.852 246.105 330.838 245.783 330.811C245.14 330.766 244.81 330.757 244.81 330.757C244.81 330.757 245.138 330.804 245.778 330.868C246.097 330.905 246.497 330.928 246.967 330.994C247.433 331.101 247.97 331.224 248.578 331.363C249.182 331.522 249.824 331.812 250.55 332.068C250.891 332.249 251.247 332.438 251.619 332.636C251.805 332.735 251.994 332.837 252.188 332.94C252.367 333.067 252.55 333.196 252.737 333.327C254.265 334.326 255.787 335.838 257.138 337.786C259.875 341.681 261.843 347.291 262.986 353.937C264.096 360.596 264.549 368.335 264.036 376.812L264.233 376.631C234.127 376.417 193.428 376.128 148.706 375.811C126.149 375.672 104.613 375.539 85.0092 375.417L85.2542 375.638C83.5022 360.045 81.8702 345.602 81.0902 332.657C80.6972 326.186 80.4902 320.095 80.4642 314.442C80.4242 308.794 80.5332 303.563 81.4202 298.929C82.2642 294.298 83.9062 290.307 86.0912 287.346C88.2522 284.364 90.7652 282.35 93.0072 281.147C95.2612 279.938 97.2163 279.496 98.5273 279.338C99.8443 279.171 100.541 279.23 100.54 279.188Z" fill="#263238"/>
<path d="M269.587 419.083L273.238 456.332L262.008 456.231L247.949 419.039L269.587 419.083Z" fill="#263238"/>
<path d="M248.609 331.254C248.602 331.289 248.205 331.245 247.492 331.136C246.671 330.999 245.667 330.832 244.484 330.635C241.947 330.207 238.447 329.585 234.553 329.165C230.657 328.749 227.107 328.678 224.538 328.693C223.341 328.709 222.324 328.722 221.493 328.733C220.773 328.742 220.373 328.729 220.371 328.694C220.369 328.658 220.764 328.602 221.482 328.531C222.199 328.454 223.241 328.386 224.53 328.326C227.106 328.217 230.686 328.229 234.609 328.648C238.529 329.072 242.031 329.753 244.553 330.275C245.814 330.541 246.831 330.768 247.531 330.939C248.232 331.107 248.616 331.218 248.609 331.254Z" fill="#263238"/>
<path d="M266.357 272.532C266.379 272.581 265.546 272.943 264.12 273.731C262.689 274.508 260.714 275.826 258.572 277.793C256.422 279.751 254.199 282.45 252.237 285.757C250.283 289.068 248.636 293.004 247.54 297.306C245.412 305.965 245.547 314.135 245.682 319.953C245.766 322.875 245.88 325.239 245.948 326.873C245.976 327.647 245.998 328.271 246.015 328.756C246.025 329.187 246.022 329.414 246.004 329.415C245.986 329.416 245.955 329.191 245.911 328.763C245.869 328.28 245.814 327.657 245.746 326.886C245.616 325.255 245.446 322.892 245.314 319.967C245.184 317.042 245.102 313.55 245.287 309.674C245.469 305.802 245.958 301.539 247.035 297.18C248.144 292.828 249.824 288.85 251.825 285.512C253.834 282.178 256.116 279.468 258.325 277.521C260.525 275.565 262.554 274.28 264.025 273.552C264.74 273.147 265.351 272.944 265.741 272.762C266.138 272.594 266.35 272.515 266.357 272.532Z" fill="#263238"/>
<g opacity="0.3">
<path d="M134.661 342.56C142.243 344.333 150.057 345.112 157.84 344.873C158.411 369.197 160.514 393.484 164.132 417.544C166.079 418.407 168.089 419.284 170.218 419.339C172.347 419.394 174.649 418.424 175.525 416.484C176.045 415.331 176.004 414.014 175.95 412.751C174.901 388.526 172.408 364.364 168.49 340.434C168.2 338.663 167.781 336.695 166.294 335.689C164.877 334.73 162.993 334.992 161.311 335.306C151.923 337.059 142.614 339.233 133.421 341.819" fill="black"/>
</g>
<g opacity="0.3">
<path d="M123.57 340.53L125.916 373.81C125.916 373.81 133.783 355.811 131.767 348.921C129.751 342.03 123.57 340.53 123.57 340.53Z" fill="black"/>
</g>
<path d="M121.556 208.169C120.776 181.931 119.996 155.694 119.216 129.456L116.67 124.928C114.434 122.951 110.805 123.293 108.383 125.037C105.961 126.781 104.544 129.595 103.571 132.416C98.8991 145.961 102.596 160.834 101.607 175.128C101.393 178.228 100.903 181.449 99.1001 183.98C96.6541 187.414 92.1181 189.111 90.2441 192.888C88.5541 196.296 89.8111 200.88 93.0051 202.948C90.7101 204.284 88.3411 205.686 86.8191 207.861C85.2971 210.036 84.8701 213.22 86.5581 215.27C88.3841 217.488 91.7181 217.518 94.5801 217.26C102.674 216.531 110.705 215.005 118.454 212.555C119.424 212.248 120.459 211.877 121.035 211.037C121.594 210.222 121.586 209.158 121.556 208.169Z" fill="#263238"/>
<path d="M104.852 194.61C104.806 194.536 105.86 194.396 107.037 193.126C108.212 191.864 109.103 189.432 109.368 186.362C109.813 180.185 109.992 171.584 109.251 162.147C108.889 157.426 108.323 152.95 107.686 148.895C107.021 144.858 106.68 141.043 107.555 137.979C108.4 134.921 110.177 132.875 111.633 131.911C112.362 131.412 113.01 131.175 113.44 131.017C113.886 130.896 114.12 130.844 114.124 130.861C114.151 130.925 113.157 131.075 111.749 132.077C110.366 133.066 108.687 135.091 107.91 138.074C107.105 141.06 107.469 144.791 108.159 148.82C108.823 152.877 109.406 157.37 109.769 162.106C110.512 171.579 110.276 180.195 109.734 186.399C109.42 189.506 108.453 191.996 107.186 193.263C106.571 193.907 105.944 194.222 105.528 194.414C105.089 194.565 104.857 194.626 104.852 194.61Z" fill="#455A64"/>
<path d="M122.755 129.094C122.521 130.202 123.294 128.165 122.755 129.094V129.094Z" fill="#FF725E"/>
<path d="M121.879 124.689C120.971 123.735 119.569 124.138 118.527 124.884C116.742 126.163 115.386 128.272 114.499 130.603C113.612 132.934 113.164 135.487 112.893 138.04C112.736 139.512 112.733 141.28 113.689 142.128C114.37 142.732 115.339 142.611 116.076 142.092C116.813 141.573 117.365 140.724 117.875 139.876C119.864 136.566 121.509 132.931 122.754 129.095C122.988 127.985 122.571 125.415 121.879 124.689Z" fill="#DC7E3F"/>
<path d="M114.467 144.368C116.475 135.834 120.067 127.115 127.139 121.933C133.44 117.315 142.629 115.556 150.419 116.136C154.255 116.422 158.535 118.335 161.819 120.338C166.322 123.084 168.093 128.414 170.151 133.27C174.273 142.999 173.289 155.959 170.169 159.469L129.429 179.316C122.46 175.396 114.907 170.116 113.283 162.286C112.178 156.953 113.22 149.669 114.467 144.368Z" fill="#263238"/>
<path d="M129.893 129.23L155.341 122.613C163.499 121.694 168.995 131.709 169.568 139.899C170.204 148.998 170.621 160.131 169.588 166.93C167.512 180.602 157.05 183.847 157.05 183.847C157.047 183.801 157.026 195.72 156.975 199.777L145.107 235.935L128.224 199.777L125.627 134.131C125.562 131.638 127.414 129.508 129.893 129.23Z" fill="#FFBE9D"/>
<path d="M165.021 150.92C165.06 151.845 164.309 152.64 163.344 152.699C162.381 152.757 161.567 152.057 161.528 151.132C161.489 150.207 162.24 149.411 163.203 149.353C164.168 149.293 164.982 149.995 165.021 150.92Z" fill="#263238"/>
<path d="M167.191 145.708C166.975 145.938 165.642 144.965 163.757 144.983C161.874 144.974 160.498 145.953 160.291 145.724C160.19 145.622 160.408 145.209 161.007 144.766C161.597 144.326 162.605 143.894 163.779 143.891C164.953 143.89 165.944 144.315 166.514 144.754C167.098 145.193 167.297 145.605 167.191 145.708Z" fill="#263238"/>
<path d="M147.918 150.92C147.957 151.845 147.206 152.64 146.241 152.699C145.278 152.757 144.464 152.057 144.425 151.132C144.386 150.207 145.137 149.411 146.1 149.352C147.066 149.293 147.88 149.995 147.918 150.92Z" fill="#263238"/>
<path d="M148.668 146.186C148.452 146.416 147.117 145.443 145.233 145.461C143.35 145.451 141.974 146.43 141.768 146.201C141.667 146.099 141.883 145.686 142.485 145.243C143.075 144.802 144.083 144.371 145.257 144.367C146.431 144.366 147.421 144.791 147.992 145.23C148.573 145.671 148.773 146.083 148.668 146.186Z" fill="#263238"/>
<path d="M155.602 160.116C155.593 160.009 156.763 159.799 158.659 159.543C159.14 159.49 159.595 159.391 159.674 159.063C159.785 158.714 159.58 158.197 159.343 157.639C158.883 156.478 158.401 155.26 157.895 153.984C155.883 148.78 154.423 144.499 154.633 144.42C154.843 144.341 156.645 148.495 158.657 153.699C159.141 154.982 159.605 156.206 160.045 157.376C160.231 157.922 160.548 158.54 160.308 159.263C160.181 159.623 159.829 159.887 159.521 159.972C159.213 160.068 158.942 160.075 158.704 160.091C156.796 160.207 155.61 160.224 155.602 160.116Z" fill="#263238"/>
<path d="M157.082 183.95L157.005 187.351C143.345 188.722 138.758 179.196 138.758 179.196C147.898 184.605 157.082 183.95 157.082 183.95Z" fill="#EB996E"/>
<path d="M149.4 163.677C149.934 162.795 150.908 162.328 151.908 162.288C153.35 162.231 154.562 162.717 155.508 164.041C155.83 164.423 155.809 165.508 155.679 165.807C155.549 166.107 155.65 165.96 155.419 166.167C154.581 166.917 153.696 167.667 152.615 167.933C151.534 168.199 150.2 167.859 149.486 166.805C148.851 165.871 148.866 164.558 149.4 163.677Z" fill="#EB996E"/>
<path d="M150.065 161.458C150.371 161.438 150.389 163.484 152.15 164.924C153.908 166.369 156.087 166.124 156.105 166.41C156.135 166.538 155.622 166.811 154.702 166.842C153.799 166.879 152.479 166.598 151.402 165.717C150.328 164.834 149.86 163.649 149.785 162.81C149.7 161.956 149.925 161.447 150.065 161.458Z" fill="#263238"/>
<path d="M149.512 140.146C149.33 140.66 147.446 140.43 145.237 140.711C143.021 140.948 141.243 141.607 140.946 141.15C140.814 140.931 141.121 140.447 141.839 139.946C142.55 139.446 143.687 138.967 145.014 138.811C146.341 138.657 147.557 138.859 148.365 139.181C149.179 139.503 149.59 139.903 149.512 140.146Z" fill="#263238"/>
<path d="M166.461 139.198C166.132 139.628 164.831 139.193 163.27 139.182C161.709 139.117 160.388 139.489 160.081 139.044C159.946 138.827 160.152 138.397 160.726 137.988C161.293 137.58 162.243 137.244 163.316 137.269C164.389 137.296 165.321 137.677 165.867 138.112C166.422 138.549 166.606 138.988 166.461 139.198Z" fill="#263238"/>
<path d="M129.303 150.752C129.115 150.665 121.699 148.311 121.767 155.934C121.834 163.557 129.474 161.917 129.485 161.698C129.497 161.48 129.303 150.752 129.303 150.752Z" fill="#FFBE9D"/>
<path d="M127.131 158.831C127.097 158.807 126.999 158.925 126.775 159.03C126.557 159.132 126.181 159.205 125.783 159.059C124.975 158.771 124.285 157.498 124.236 156.124C124.21 155.43 124.35 154.768 124.591 154.219C124.819 153.659 125.176 153.266 125.581 153.191C125.984 153.094 126.273 153.334 126.368 153.548C126.472 153.76 126.425 153.913 126.465 153.926C126.486 153.945 126.627 153.797 126.563 153.482C126.53 153.331 126.439 153.152 126.259 153.007C126.075 152.86 125.805 152.787 125.523 152.819C124.935 152.865 124.411 153.411 124.146 154.013C123.849 154.619 123.676 155.363 123.704 156.142C123.766 157.678 124.565 159.108 125.67 159.417C126.207 159.552 126.654 159.387 126.883 159.205C127.119 159.016 127.158 158.845 127.131 158.831Z" fill="#EB996E"/>
<path d="M124.613 161.371C124.578 161.336 124.284 161.693 124.327 162.374C124.353 162.698 124.462 163.143 124.867 163.442C125.278 163.734 125.846 163.733 126.33 163.547C126.813 163.367 127.248 162.977 127.343 162.49C127.445 162.023 127.31 161.603 127.134 161.318C126.756 160.728 126.276 160.672 126.28 160.714C126.248 160.771 126.639 160.92 126.894 161.449C127.016 161.706 127.092 162.056 126.997 162.402C126.917 162.743 126.593 163.03 126.192 163.184C125.793 163.34 125.349 163.333 125.069 163.147C124.781 162.962 124.65 162.618 124.598 162.338C124.493 161.756 124.665 161.394 124.613 161.371Z" fill="#E0E0E0"/>
<path d="M170.18 142.062C169.154 139.852 167.154 138.239 165.036 137.034C162.918 135.829 160.625 134.952 158.517 133.728C153.678 130.919 149.949 126.253 148.274 120.914C152.025 118.978 156.697 119.198 160.48 121.072C164.263 122.946 167.175 126.339 168.915 130.185C170.655 134.031 171.286 138.311 171.242 142.532" fill="#263238"/>
<path d="M127.553 127.191C133.189 121.835 143.84 118.879 151.19 121.387C150.098 127.804 145.256 135.012 140.995 139.933C136.707 144.885 134.12 153.564 124.792 150.615C124.15 150.412 123.415 150.997 122.834 150.656C122.341 150.367 122.109 149.787 121.934 149.243C119.479 141.63 121.754 132.701 127.553 127.191Z" fill="#263238"/>
<path d="M124.347 125.947C124.337 125.954 124.392 126.042 124.507 126.204C124.627 126.361 124.783 126.61 125.034 126.89C125.509 127.472 126.275 128.258 127.348 129.074C128.419 129.892 129.827 130.705 131.514 131.299C133.197 131.894 135.169 132.236 137.236 132.135C139.302 132.009 141.226 131.453 142.833 130.677C144.446 129.902 145.756 128.94 146.731 128.009C147.709 127.08 148.384 126.215 148.792 125.585C149.01 125.279 149.139 125.014 149.24 124.846C149.336 124.673 149.381 124.58 149.37 124.574C149.298 124.519 148.535 126.036 146.559 127.824C145.579 128.716 144.278 129.638 142.692 130.38C141.11 131.124 139.23 131.656 137.216 131.779C135.201 131.877 133.275 131.554 131.621 130.988C129.963 130.424 128.569 129.65 127.497 128.871C125.337 127.309 124.413 125.885 124.347 125.947Z" fill="white"/>
<path d="M120.689 136.324C120.681 136.333 120.768 136.422 120.944 136.584C121.127 136.736 121.366 137.002 121.742 137.258C122.455 137.82 123.602 138.503 125.142 139.041C126.678 139.586 128.629 139.895 130.784 139.803C132.936 139.7 135.29 139.158 137.533 138.066C139.761 136.952 141.658 135.489 143.181 133.976C144.712 132.466 145.899 130.929 146.808 129.589C147.718 128.247 148.369 127.109 148.79 126.307C149.007 125.91 149.153 125.59 149.258 125.377C149.36 125.162 149.408 125.046 149.397 125.04C149.386 125.034 149.316 125.139 149.194 125.343C149.053 125.583 148.88 125.879 148.668 126.239C148.212 127.017 147.53 128.13 146.601 129.444C145.672 130.757 144.475 132.262 142.951 133.74C141.434 135.221 139.562 136.651 137.374 137.745C135.18 138.813 132.875 139.355 130.766 139.474C128.654 139.582 126.738 139.306 125.22 138.801C123.699 138.304 122.551 137.667 121.822 137.145C121.088 136.63 120.713 136.296 120.689 136.324Z" fill="#455A64"/>
<path d="M127.378 178.04C127.369 178.055 127.23 177.991 126.974 177.854C126.72 177.712 126.337 177.516 125.87 177.221C124.924 176.649 123.591 175.754 122.073 174.477C120.554 173.205 118.89 171.497 117.372 169.346C115.875 167.185 114.563 164.564 113.729 161.644C112.013 155.787 112.414 150.123 113.359 146.297C113.823 144.369 114.374 142.857 114.815 141.843C115.023 141.331 115.229 140.952 115.355 140.69C115.487 140.43 115.564 140.298 115.58 140.306C115.619 140.324 115.386 140.888 115.004 141.918C114.624 142.948 114.132 144.463 113.719 146.378C112.876 150.18 112.545 155.746 114.23 161.498C115.049 164.366 116.321 166.938 117.768 169.074C119.236 171.2 120.844 172.907 122.315 174.199C123.783 175.496 125.074 176.431 125.981 177.051C126.887 177.671 127.399 178.005 127.378 178.04Z" fill="#455A64"/>
<path d="M238.411 370.209L251.147 393.351C251.147 393.351 277.936 386.544 280.706 390.592L237.733 418.531L216.409 383.287L238.411 370.209Z" fill="#326595"/>
<g opacity="0.6">
<path d="M236.406 399.579C235.694 400.321 235.678 401.63 236.39 402.372C237.102 403.114 238.433 403.141 239.158 402.412C239.883 401.683 239.95 400.112 239.159 399.455C238.369 398.797 236.804 398.851 236.275 399.732" fill="white"/>
</g>
<g opacity="0.6">
<path d="M237.733 418.531L235.583 414.978L278.018 389.447C278.018 389.447 279.788 389.159 281.125 390.764L237.733 418.531Z" fill="white"/>
</g>
<path d="M251.726 392.701C251.847 392.92 250.832 393.66 250.188 394.982C249.51 396.288 249.521 397.544 249.273 397.577C249.05 397.654 248.602 396.178 249.41 394.59C250.203 392.996 251.655 392.476 251.726 392.701Z" fill="#263238"/>
<path d="M257.48 391.85C257.654 392.028 256.942 392.95 256.756 394.295C256.53 395.634 256.934 396.727 256.714 396.845C256.532 396.999 255.631 395.83 255.895 394.163C256.144 392.493 257.353 391.648 257.48 391.85Z" fill="#263238"/>
<path d="M263.403 395.804C263.235 395.966 262.295 395.072 262.143 393.566C261.98 392.061 262.715 390.991 262.913 391.116C263.14 391.22 262.865 392.241 263.009 393.476C263.123 394.713 263.603 395.655 263.403 395.804Z" fill="#263238"/>
<path d="M248.238 387.749C248.265 387.999 247.103 388.292 245.938 389.1C244.757 389.885 244.056 390.857 243.834 390.74C243.617 390.659 244.064 389.313 245.449 388.38C246.826 387.436 248.243 387.517 248.238 387.749Z" fill="#263238"/>
<g opacity="0.3">
<path d="M240.928 374.795L243.203 378.917L221.468 391.648L219.265 388.027L240.928 374.795Z" fill="black"/>
</g>
<path d="M245.583 383.127C245.639 383.214 244.869 383.855 243.373 384.433C242.628 384.72 241.701 384.975 240.645 385.103C240.117 385.167 239.558 385.199 238.979 385.188C238.698 385.179 238.38 385.191 238.004 385.068C237.632 384.986 237.156 384.497 237.222 383.984C237.245 383.511 237.556 383.127 237.87 382.93C238.188 382.726 238.49 382.634 238.764 382.55C239.325 382.376 239.881 382.264 240.415 382.201C241.484 382.081 242.456 382.156 243.243 382.319C244.829 382.654 245.657 383.248 245.608 383.333C245.553 383.462 244.654 383.087 243.149 382.928C242.399 382.85 241.497 382.844 240.522 382.996C240.035 383.075 239.531 383.193 239.024 383.362C238.485 383.518 238.086 383.752 238.091 384.031C238.095 384.136 238.108 384.171 238.287 384.249C238.463 384.315 238.725 384.325 239.002 384.335C239.543 384.356 240.066 384.342 240.563 384.304C241.558 384.226 242.447 384.047 243.181 383.847C244.652 383.446 245.517 383.009 245.583 383.127Z" fill="#263238"/>
<path d="M245.487 383.603C245.431 383.682 244.544 383.167 243.633 381.823C243.184 381.155 242.755 380.276 242.491 379.232C242.362 378.71 242.276 378.147 242.252 377.559C242.25 376.97 242.216 376.2 242.992 375.607C243.418 375.33 243.983 375.454 244.279 375.671C244.603 375.882 244.784 376.12 244.988 376.343C245.376 376.808 245.668 377.318 245.877 377.826C246.298 378.845 246.381 379.853 246.297 380.664C246.119 382.318 245.376 383.111 245.315 383.049C245.179 382.984 245.68 382.122 245.682 380.633C245.683 379.899 245.546 379.015 245.141 378.146C244.941 377.713 244.676 377.285 244.339 376.897C243.991 376.471 243.59 376.198 243.443 376.351C243.222 376.478 243.061 377.053 243.104 377.533C243.114 378.063 243.176 378.573 243.272 379.053C243.472 380.013 243.807 380.846 244.16 381.506C244.874 382.833 245.585 383.5 245.487 383.603Z" fill="#263238"/>
<path d="M199.489 415.128L198.179 441.51C198.179 441.51 225.499 449.663 225.052 456.127L173.646 456.061L173.898 414.708L199.489 415.128Z" fill="#326595"/>
<g opacity="0.6">
<path d="M182.363 439.072C181.367 439.33 180.667 440.435 180.883 441.44C181.1 442.445 182.218 443.167 183.218 442.927C184.218 442.687 185.1 441.385 184.772 440.411C184.445 439.436 183.085 438.66 182.172 439.133" fill="white"/>
</g>
<g opacity="0.6">
<path d="M173.645 456.061L173.578 451.747L222.631 452.291C222.631 452.291 225.057 454.005 225.051 456.128L173.645 456.061Z" fill="white"/>
</g>
<path d="M199.013 441.261C199.002 441.511 197.749 441.607 196.506 442.395C195.243 443.15 194.593 444.226 194.365 444.123C194.135 444.071 194.528 442.58 196.05 441.653C197.561 440.713 199.07 441.032 199.013 441.261Z" fill="#263238"/>
<path d="M204.357 443.558C204.411 443.801 203.321 444.212 202.457 445.259C201.562 446.28 201.331 447.422 201.083 447.407C200.847 447.443 200.694 445.975 201.794 444.694C202.881 443.404 204.355 443.319 204.357 443.558Z" fill="#263238"/>
<path d="M207.321 450.033C207.093 450.083 206.762 448.828 207.423 447.467C208.075 446.1 209.262 445.576 209.365 445.786C209.504 445.994 208.734 446.719 208.208 447.845C207.657 448.958 207.57 450.011 207.321 450.033Z" fill="#263238"/>
<path d="M198.644 435.215C198.536 435.442 197.393 435.081 195.977 435.157C194.56 435.205 193.453 435.665 193.325 435.448C193.183 435.265 194.27 434.354 195.939 434.287C197.606 434.208 198.77 435.021 198.644 435.215Z" fill="#263238"/>
<g opacity="0.3">
<path d="M198.597 433.811L198.3 439.062L173.695 438.417L173.721 434.178L198.597 433.811Z" fill="black"/>
</g>
<path d="M198.81 429.888C198.811 429.992 197.82 430.133 196.244 429.84C195.459 429.693 194.536 429.423 193.57 428.978C193.088 428.755 192.595 428.489 192.107 428.176C191.873 428.021 191.595 427.864 191.34 427.562C191.066 427.297 190.918 426.631 191.244 426.229C191.512 425.839 191.978 425.675 192.348 425.672C192.726 425.665 193.031 425.745 193.309 425.818C193.878 425.964 194.41 426.161 194.897 426.387C195.87 426.846 196.658 427.42 197.242 427.973C198.416 429.09 198.809 430.03 198.723 430.078C198.608 430.159 198.041 429.368 196.843 428.442C196.246 427.982 195.481 427.503 194.572 427.121C194.116 426.932 193.625 426.768 193.105 426.646C192.564 426.496 192.102 426.486 191.96 426.725C191.908 426.817 191.901 426.853 192.012 427.013C192.128 427.161 192.345 427.308 192.576 427.461C193.025 427.763 193.478 428.026 193.921 428.255C194.809 428.711 195.66 429.025 196.389 429.24C197.851 429.671 198.817 429.753 198.81 429.888Z" fill="#263238"/>
<path d="M198.48 430.242C198.391 430.279 197.907 429.376 197.837 427.754C197.805 426.95 197.902 425.977 198.226 424.949C198.39 424.437 198.612 423.913 198.901 423.4C199.208 422.898 199.584 422.225 200.556 422.127C201.063 422.115 201.479 422.516 201.618 422.857C201.783 423.206 201.812 423.504 201.869 423.802C201.955 424.402 201.935 424.989 201.847 425.531C201.671 426.62 201.212 427.521 200.715 428.167C199.695 429.481 198.647 429.766 198.627 429.681C198.545 429.554 199.424 429.083 200.208 427.817C200.594 427.193 200.942 426.368 201.053 425.416C201.11 424.942 201.11 424.439 201.026 423.933C200.953 423.387 200.755 422.945 200.55 422.998C200.295 422.99 199.857 423.395 199.641 423.826C199.372 424.282 199.156 424.749 198.986 425.208C198.652 426.13 198.5 427.014 198.454 427.762C198.362 429.266 198.616 430.206 198.48 430.242Z" fill="#263238"/>
<path d="M124.906 189.876L127.785 188.656C126.907 187.253 133.773 200.658 143.126 200.746C155.906 200.866 157.186 188.131 157.186 188.131L157.856 188.213L178.873 209.989L181.644 270.951L179.362 278.775L134.227 295.167L118.482 263.825L117.097 244.515L124.906 189.876Z" fill="#F5F5F5"/>
<path d="M126.278 189.194C126.278 189.194 100.647 195.029 96.4681 205.969C94.6231 210.798 94.0331 288.706 94.0331 288.706C94.0331 288.706 90.8441 295.836 91.0531 310.544C91.2531 324.645 100.58 333.763 112.213 336.399C112.213 336.399 115.276 314.245 127.543 303.143C139.167 292.623 140.236 293.895 140.236 293.895L137.43 268.491L134.529 246.37C131.617 230.565 134.892 213.427 129.509 198.285L126.278 189.194Z" fill="#E7A446"/>
<path d="M180.387 204.684L197.87 281.579L179.074 277.307L173.093 231.171L157.67 188.14C157.67 188.14 160.267 188.479 163.608 188.999C171.885 190.29 178.53 196.516 180.387 204.684Z" fill="#E7A446"/>
<g opacity="0.3">
<path d="M94.219 301.905C94.144 302.833 94.707 303.727 95.465 304.268C96.223 304.809 97.153 305.05 98.07 305.211C102.391 305.969 106.849 305.152 111.023 303.804C115.824 302.253 120.368 300.011 124.892 297.776C131.53 294.498 133.612 293.008 139.87 289.052C133.364 291.716 131.211 292.05 124.358 293.62C114.128 295.964 103.408 297.13 94.145 302.063" fill="black"/>
</g>
<path d="M131.821 272.862L143.259 270.393C143.259 270.393 156.393 263.069 159.341 263.082C161.997 263.094 172.488 267.834 174.545 268.776C174.775 268.881 174.963 269.055 175.087 269.275C175.632 270.237 175.32 271.457 174.38 272.038L174.197 272.151L174.328 272.419C174.49 272.75 174.612 273.135 174.655 273.525C174.802 274.866 173.083 275.561 172.216 274.528L172.677 275.104C172.864 275.338 172.981 275.621 173.013 275.919L173.075 276.5C173.144 277.145 172.81 277.767 172.233 278.065C171.685 278.348 171.022 278.288 170.538 277.904C169.122 276.78 166.097 274.559 164.296 274.553C162.694 274.548 160.089 274.939 158.52 275.202C157.722 275.336 157.09 275.944 156.922 276.736C157.975 276.64 165.845 279.238 168.633 280.172C169.495 280.461 170.214 281.12 170.463 281.994C170.688 282.782 170.42 283.69 168.77 283.578C165.23 283.339 158.632 281.52 158.632 281.52C158.632 281.52 155.319 281.133 153.504 282.915C150.952 285.421 149.752 286.384 147.141 285.967C144.53 285.55 142.511 284.671 142.511 284.671L138.369 285.454L131.821 272.862Z" fill="#FFBE9D"/>
<path d="M155.89 270.749C155.911 270.8 156.838 270.327 158.453 269.957C160.055 269.582 162.39 269.393 164.842 269.997C167.296 270.601 169.276 271.852 170.521 272.928C171.78 274.005 172.381 274.855 172.423 274.819C172.435 274.81 172.296 274.592 172.007 274.224C171.719 273.856 171.266 273.349 170.645 272.786C169.416 271.659 167.411 270.354 164.906 269.738C162.402 269.121 160.02 269.346 158.409 269.773C157.598 269.984 156.961 270.222 156.535 270.415C156.108 270.606 155.883 270.735 155.89 270.749Z" fill="#EB996E"/>
<path d="M156.814 267.118C156.841 267.18 157.754 266.53 159.466 266.196C161.16 265.844 163.643 265.966 166.108 266.956C168.574 267.952 170.536 269.406 171.931 270.448C172.596 270.957 173.149 271.381 173.576 271.709C173.965 272.006 174.186 272.165 174.198 272.15C174.21 272.136 174.011 271.95 173.642 271.628C173.272 271.306 172.732 270.847 172.046 270.299C170.676 269.216 168.716 267.723 166.206 266.708C163.693 265.697 161.147 265.603 159.427 266.011C158.564 266.206 157.895 266.478 157.462 266.713C157.239 266.818 157.084 266.934 156.972 266.999C156.864 267.069 156.81 267.11 156.814 267.118Z" fill="#EB996E"/>
<path d="M111.942 208.319L106.233 269.731H104.618L130.5 270.243L139.869 289.053C139.869 289.053 105.927 305.565 91.422 301.015C74.228 295.622 79.134 276.439 79.262 269.657C79.285 268.463 88.93 211.416 98.281 202.868C98.281 202.868 110.616 203.688 111.942 208.319Z" fill="#E7A446"/>
<path d="M112.75 225.461C112.786 225.467 112.732 226.056 112.601 227.118C112.445 228.271 112.24 229.782 111.993 231.606C111.411 235.476 110.632 240.655 109.772 246.379C108.891 252.147 108.127 257.371 107.592 261.156C107.331 262.977 107.114 264.487 106.949 265.637C106.791 266.695 106.686 267.278 106.65 267.273C106.614 267.268 106.648 266.678 106.742 265.612C106.834 264.546 106.996 263.007 107.217 261.107C107.656 257.307 108.362 252.068 109.243 246.298C110.124 240.53 110.984 235.318 111.619 231.547C111.935 229.734 112.196 228.231 112.395 227.085C112.589 226.034 112.713 225.455 112.75 225.461Z" fill="#263238"/>
<path d="M110.785 199.007C110.816 198.987 110.993 199.217 111.288 199.652C111.589 200.083 111.97 200.744 112.379 201.592C112.803 202.434 113.192 203.491 113.559 204.683C113.898 205.883 114.172 207.23 114.34 208.657C114.672 211.517 114.531 214.121 114.373 215.984C114.199 217.849 113.994 218.989 113.927 218.982C113.847 218.974 113.919 217.82 113.995 215.96C114.056 214.102 114.135 211.527 113.808 208.719C113.643 207.317 113.39 205.997 113.084 204.815C112.75 203.642 112.407 202.594 112.034 201.747C111.314 200.043 110.705 199.057 110.785 199.007Z" fill="#263238"/>
<path d="M91.4221 301.015C91.4251 301.006 91.5121 301.022 91.6771 301.06C91.8721 301.109 92.1121 301.169 92.4071 301.243C93.0501 301.393 94.0121 301.566 95.2621 301.664C97.7671 301.858 101.412 301.549 105.816 300.634C108.01 300.17 110.446 299.657 113.007 299.067C115.549 298.388 118.214 297.416 121.002 296.384C126.575 294.291 132.642 291.82 138.972 289.143C139.238 289.03 139.502 288.917 139.763 288.806L139.629 289.171C136.263 282.39 133.084 275.987 130.284 270.349L130.5 270.482C126.337 270.449 122.527 270.221 119.132 270.112C115.739 269.985 112.768 269.922 110.316 269.94C107.864 269.952 105.931 270.055 104.619 270.192C103.304 270.313 102.61 270.461 102.601 270.418C102.598 270.405 102.77 270.363 103.107 270.293C103.443 270.223 103.942 270.116 104.601 270.041C105.915 269.855 107.853 269.707 110.311 269.653C112.769 269.593 115.747 269.619 119.144 269.713C122.54 269.79 126.363 269.989 130.497 270.001H130.647L130.713 270.134C133.527 275.765 136.723 282.16 140.107 288.932L140.234 289.186L139.973 289.297C139.712 289.408 139.447 289.521 139.181 289.635C132.844 292.315 126.768 294.773 121.174 296.845C118.372 297.867 115.702 298.825 113.117 299.496C110.51 300.077 108.109 300.559 105.889 301.004C101.459 301.876 97.7691 302.131 95.2441 301.87C92.7151 301.622 91.4221 301.015 91.4221 301.015Z" fill="#263238"/>
<path d="M109.262 269.883C109.195 269.946 108.618 269.288 107.451 268.558C106.296 267.819 104.508 267.092 102.428 266.793C100.345 266.494 98.4152 266.575 97.0232 266.624C95.6292 266.682 94.7602 266.711 94.7532 266.635C94.7472 266.565 95.5992 266.402 96.9962 266.247C98.3892 266.102 100.351 265.955 102.506 266.264C104.662 266.573 106.517 267.393 107.663 268.244C108.824 269.089 109.308 269.852 109.262 269.883Z" fill="#263238"/>
<g opacity="0.3">
<path d="M108.829 269.809C105.162 269.253 101.372 269.526 97.8231 270.603C95.6451 271.264 93.4411 272.322 92.2211 274.244C91.8271 274.864 91.5851 275.762 92.1141 276.272C92.5761 276.716 93.3361 276.574 93.9241 276.319C95.1951 275.769 96.2651 274.854 97.3631 274.011C99.1121 272.668 100.994 271.471 103.053 270.684C105.113 269.897 107.364 269.533 109.543 269.872" fill="black"/>
</g>
<g opacity="0.3">
<path d="M107.69 268.489C106.913 266.332 104.076 264.312 102.245 263.687C98.0772 262.264 93.2772 261.733 89.5842 264.132C89.1862 264.391 88.7672 264.743 88.7492 265.217C88.7242 265.877 89.4592 266.281 90.0962 266.456C92.7292 267.179 95.5192 266.741 98.2362 266.478C100.954 266.215 103.863 266.174 106.213 267.564" fill="black"/>
</g>
<g opacity="0.3">
<path d="M106.824 265.79C112.19 254.813 114.595 240.34 112.43 227.551L106.824 265.79Z" fill="black"/>
</g>
<path d="M112.213 336.398C112.213 336.398 121.471 342.543 139.869 342.543C158.267 342.543 162.478 341.269 162.478 341.269L179.706 325.621L217.502 391.815C217.502 391.815 247.499 373.217 247.699 373.817C248.059 374.176 219.714 311.109 213.512 300.201C211.528 296.711 209.614 294.069 206.479 290.011C200.176 281.852 189.704 278.064 179.629 280.255C174.522 281.365 168.916 282.82 163.918 284.65C150.198 289.673 138.567 293.051 128.64 301.85C117.171 312.014 110.223 331.762 112.213 336.398Z" fill="#263238"/>
<path d="M175.403 317.999C175.403 317.999 161.807 327.406 162.172 334.949C162.478 341.268 170.885 434.282 170.885 434.282L204.358 433.713L206.653 372.808L175.403 317.999Z" fill="#263238"/>
<path d="M209.345 377.527C209.337 377.531 209.285 377.455 209.192 377.303C209.086 377.122 208.954 376.897 208.791 376.619C208.428 375.976 207.928 375.089 207.293 373.965C205.992 371.611 204.145 368.269 201.872 364.156C197.323 355.816 191.072 344.357 184.166 331.699C181.704 327.155 179.326 322.766 177.127 318.707L177.382 318.839C172.028 319.49 167.639 322.767 165.269 326.527C164.077 328.421 163.347 330.441 163.008 332.376C162.655 334.312 162.603 336.146 162.635 337.803C162.729 341.121 163.03 343.764 163.113 345.582C163.16 346.491 163.188 347.193 163.187 347.668C163.191 348.143 163.185 348.389 163.17 348.39C163.155 348.391 163.13 348.144 163.098 347.672C163.059 347.16 163.006 346.469 162.94 345.595C162.803 343.783 162.452 341.153 162.312 337.812C162.258 336.143 162.287 334.286 162.628 332.308C162.954 330.332 163.686 328.248 164.897 326.294C167.306 322.415 171.79 319.022 177.322 318.331L177.494 318.31L177.578 318.464C179.783 322.519 182.168 326.905 184.636 331.445C191.487 344.132 197.69 355.618 202.204 363.976C204.414 368.123 206.21 371.492 207.475 373.866C208.072 375.01 208.543 375.913 208.884 376.568C209.028 376.856 209.145 377.09 209.239 377.277C209.317 377.438 209.353 377.523 209.345 377.527Z" fill="#455A64"/>
<path d="M181.374 305.345C181.52 305.449 178.974 307.841 177.793 311.818C176.547 315.777 177.321 319.183 177.141 319.187C177.085 319.201 176.808 318.387 176.687 317.008C176.562 315.635 176.664 313.692 177.281 311.661C177.905 309.634 178.907 307.966 179.778 306.897C180.65 305.822 181.335 305.302 181.374 305.345Z" fill="#455A64"/>
<path d="M174.338 302.777C174.426 302.804 174.152 303.734 173.952 305.269C173.748 306.8 173.69 308.952 174.119 311.268C174.559 313.583 175.393 315.567 176.139 316.92C176.882 318.277 177.474 319.045 177.403 319.102C177.361 319.139 176.658 318.45 175.813 317.111C174.966 315.779 174.046 313.753 173.594 311.367C173.15 308.981 173.273 306.759 173.579 305.21C173.881 303.654 174.286 302.757 174.338 302.777Z" fill="#455A64"/>
<path d="M148.246 260.058C148.169 259.994 149.193 258.827 150.495 256.713C151.153 255.661 151.837 254.349 152.493 252.849C153.124 251.338 153.712 249.633 154.15 247.794C154.568 245.95 154.791 244.159 154.891 242.525C154.962 240.889 154.927 239.41 154.8 238.175C154.563 235.703 154.159 234.205 154.256 234.182C154.291 234.173 154.411 234.541 154.599 235.217C154.698 235.554 154.806 235.97 154.89 236.462C154.979 236.952 155.108 237.508 155.166 238.135C155.342 239.381 155.417 240.882 155.37 242.547C155.295 244.21 155.083 246.035 154.657 247.913C154.212 249.785 153.598 251.517 152.932 253.042C152.24 254.556 151.511 255.871 150.805 256.912C150.476 257.448 150.116 257.891 149.82 258.292C149.527 258.696 149.248 259.022 149.01 259.281C148.543 259.804 148.273 260.081 148.246 260.058Z" fill="#263238"/>
<path d="M179.01 200.661C179.01 200.661 215.303 263 216.114 267.787C216.718 271.347 215.565 281.498 212.312 282.813C203.214 286.492 192.695 282.217 183.084 275.568L181.643 274.571L179.01 200.661Z" fill="#E7A446"/>
<path d="M19.3071 191.927C19.3071 191.927 24.9931 188.621 26.3461 197.831C27.6991 207.042 37.0381 274.571 37.0381 274.571L95.0871 274.022C95.0871 274.022 107.35 273.555 115.674 298.55C121.497 316.035 127.438 375.532 127.438 375.532L126.339 418.596L21.3781 418.579C21.3781 418.579 18.1351 328.32 17.5941 288.184C17.0531 248.048 15.9001 204.271 19.3071 191.927Z" fill="#455A64"/>
<path d="M24.547 191.324C24.542 191.331 24.65 191.424 24.861 191.603C25.066 191.789 25.372 192.068 25.72 192.484C26.405 193.302 27.307 194.736 27.484 196.838C27.991 201.042 28.722 207.104 29.631 214.642C31.501 229.768 34.102 250.808 37.039 274.572L37.068 274.808L37.302 274.803C41.178 274.721 45.264 274.635 49.412 274.548C62.504 274.338 74.981 274.248 86.315 274.572C89.148 274.66 91.91 274.776 94.582 274.987C95.25 275.044 95.913 275.1 96.57 275.156C97.227 275.219 97.869 275.331 98.511 275.415C99.825 275.507 100.95 276.012 101.977 276.743C103.987 278.239 105.543 280.191 106.898 282.124C108.255 284.067 109.411 286.04 110.448 287.959C114.548 295.673 116.931 302.404 118.368 307.083C119.077 309.43 119.51 311.29 119.705 312.567C119.808 313.205 119.844 313.696 119.858 314.026C119.855 314.356 119.867 314.528 119.867 314.528C119.867 314.528 119.891 314.36 119.911 314.026C119.915 313.693 119.895 313.195 119.809 312.551C119.647 311.261 119.244 309.386 118.562 307.023C117.888 304.657 116.934 301.803 115.673 298.55C114.399 295.304 112.83 291.649 110.771 287.777C109.739 285.843 108.587 283.853 107.226 281.884C105.864 279.925 104.305 277.94 102.225 276.379L101.401 275.852C101.118 275.687 100.809 275.563 100.511 275.416C100.207 275.282 99.873 275.217 99.552 275.116C99.229 275.044 98.906 275.016 98.581 274.963C97.931 274.876 97.277 274.76 96.616 274.694C95.955 274.636 95.289 274.577 94.617 274.518C91.932 274.297 89.165 274.174 86.328 274.078C74.979 273.726 62.498 273.802 49.401 274.011C45.251 274.1 41.163 274.187 37.286 274.27L37.549 274.501C34.544 250.746 31.883 229.714 29.971 214.594C28.996 207.065 28.211 201.01 27.667 196.811C27.457 194.675 26.506 193.219 25.789 192.416C25.054 191.602 24.547 191.324 24.547 191.324Z" fill="#263238"/>
<path d="M100.54 279.188C100.541 279.2 100.411 279.211 100.159 279.255C99.9072 279.294 99.5332 279.353 99.0482 279.463C98.0782 279.665 96.6512 280.032 94.9232 280.782C93.1852 281.494 91.1492 282.64 89.1392 284.394C88.0862 285.221 87.1762 286.33 86.1782 287.461C85.7492 288.084 85.3082 288.724 84.8552 289.382C84.7442 289.547 84.6242 289.709 84.5172 289.88L84.2392 290.424C84.0522 290.789 83.8642 291.158 83.6722 291.531C83.4812 291.904 83.2872 292.282 83.0912 292.664C82.9132 293.054 82.7902 293.474 82.6342 293.884C82.3482 294.715 82.0082 295.549 81.7462 296.426C81.3762 298.222 80.8042 300.056 80.6822 302.04C80.5852 303.024 80.4322 304.02 80.3752 305.04C80.3652 306.063 80.3562 307.102 80.3462 308.157C80.2722 310.262 80.4612 312.445 80.5262 314.676C80.9222 323.605 81.5712 333.412 82.3572 343.698C83.2642 355.294 84.2572 366.262 85.2372 375.888L85.0052 375.678C97.5652 375.784 108.161 375.874 115.648 375.937C119.355 375.985 122.291 376.023 124.332 376.05C125.315 376.071 126.081 376.087 126.631 376.099C126.874 376.108 127.067 376.115 127.222 376.121C127.355 376.128 127.422 376.135 127.422 376.141C127.422 376.148 127.355 376.153 127.222 376.159C127.067 376.163 126.875 376.168 126.631 376.175C126.082 376.181 125.315 376.189 124.332 376.199C122.291 376.204 119.355 376.21 115.648 376.218C108.16 376.201 97.5652 376.176 85.0042 376.148H84.7942L84.7722 375.938C83.7582 366.309 82.7472 355.341 81.8392 343.739C81.0522 333.449 80.4182 323.635 80.0482 314.698C79.9892 312.461 79.8082 310.29 79.8892 308.159C79.9032 307.096 79.9182 306.048 79.9312 305.017C79.9942 303.988 80.1522 302.981 80.2552 301.988C80.3882 299.988 80.9752 298.13 81.3612 296.317C81.6322 295.43 81.9802 294.586 82.2762 293.746C82.4372 293.331 82.5652 292.908 82.7482 292.513C82.9492 292.126 83.1482 291.744 83.3442 291.366C83.5412 290.988 83.7352 290.615 83.9272 290.247L84.2132 289.698C84.3232 289.525 84.4452 289.361 84.5602 289.194C85.0252 288.531 85.4782 287.885 85.9182 287.256C86.9402 286.114 87.8742 285 88.9502 284.173C91.0052 282.416 93.0792 281.285 94.8452 280.595C96.6012 279.868 98.0462 279.53 99.0282 279.361C99.5192 279.268 99.8972 279.226 100.152 279.204C100.408 279.176 100.54 279.188 100.54 279.188Z" fill="#263238"/>
<path d="M99.9001 419.172C99.7561 419.172 99.6401 409.805 99.6401 398.254C99.6401 386.699 99.7571 377.334 99.9001 377.334C100.043 377.334 100.16 386.699 100.16 398.254C100.16 409.805 100.043 419.172 99.9001 419.172Z" fill="#263238"/>
<path d="M230.37 237.07L171.3 242.405C170.752 242.454 170.289 242.831 170.128 243.356L156.997 285.519C156.871 285.93 156.557 286.257 156.151 286.399L133.465 292.573C132.938 292.758 132.579 293.247 132.56 293.805C132.53 294.698 133.358 295.374 134.227 295.166L158.636 289.994L213.539 283.145C214.036 283.089 214.462 282.762 214.646 282.297L231.752 238.914C232.12 237.977 231.373 236.979 230.37 237.07Z" fill="#E0E0E0"/>
<path d="M230.37 237.07C230.37 237.07 230.551 237.016 230.898 237.101C231.223 237.187 231.767 237.521 231.88 238.242C231.948 238.601 231.785 238.987 231.632 239.37C231.48 239.765 231.314 240.196 231.134 240.662C230.771 241.599 230.354 242.678 229.883 243.893C227.978 248.774 225.218 255.844 221.773 264.67C220.041 269.088 218.138 273.945 216.084 279.185C215.827 279.84 215.567 280.501 215.306 281.168L214.912 282.173C214.81 282.508 214.56 282.928 214.197 283.129C214.019 283.239 213.816 283.312 213.609 283.342L213.058 283.413L211.959 283.552C211.223 283.645 210.482 283.738 209.734 283.833C206.743 284.21 203.658 284.599 200.484 284.999C187.788 286.593 173.691 288.362 158.668 290.248L158.689 290.244C154.526 291.127 150.289 292.027 145.988 292.939C143.837 293.395 141.671 293.854 139.491 294.317C138.401 294.548 137.307 294.78 136.209 295.013L134.561 295.362C134.311 295.416 133.956 295.512 133.623 295.436C133.29 295.379 132.984 295.206 132.749 294.967C132.371 294.579 132.217 293.995 132.344 293.473C132.464 292.946 132.871 292.502 133.378 292.327L133.387 292.324L133.395 292.322C141.152 290.213 148.737 288.15 156.082 286.153L156.065 286.158C156.438 286.021 156.698 285.729 156.797 285.298L157.218 283.949C157.498 283.051 157.777 282.157 158.055 281.267C158.611 279.486 159.162 277.72 159.708 275.97C160.801 272.47 161.874 269.032 162.925 265.665C165.029 258.932 167.046 252.479 168.957 246.363C169.196 245.599 169.434 244.84 169.669 244.086C169.81 243.704 169.85 243.351 170.085 242.926C170.324 242.537 170.738 242.266 171.186 242.201C172.74 242.062 174.272 241.924 175.78 241.789C178.787 241.522 181.698 241.264 184.506 241.015C190.121 240.519 195.325 240.06 200.059 239.642C209.512 238.821 217.084 238.163 222.311 237.709C224.905 237.494 226.913 237.327 228.294 237.212C228.964 237.161 229.478 237.123 229.843 237.095C230.191 237.07 230.37 237.07 230.37 237.07C230.37 237.07 230.194 237.102 229.847 237.141C229.483 237.179 228.97 237.233 228.302 237.303C226.923 237.438 224.917 237.633 222.327 237.886C217.103 238.376 209.536 239.085 200.089 239.971C195.357 240.408 190.155 240.888 184.542 241.407C181.734 241.665 178.824 241.932 175.818 242.209C174.319 242.347 172.797 242.488 171.251 242.63C170.928 242.678 170.629 242.875 170.457 243.156C170.304 243.415 170.216 243.858 170.09 244.216C169.856 244.97 169.621 245.73 169.383 246.495C167.484 252.614 165.48 259.071 163.389 265.808C162.342 269.177 161.274 272.615 160.186 276.117C159.642 277.868 159.093 279.635 158.539 281.416C158.262 282.307 157.984 283.201 157.705 284.099L157.285 285.449C157.182 285.942 156.771 286.471 156.235 286.641L156.219 286.646L156.217 286.647C148.873 288.647 141.289 290.713 133.533 292.825L133.551 292.82C133.208 292.939 132.931 293.239 132.851 293.596C132.766 293.952 132.868 294.344 133.125 294.608C133.285 294.77 133.493 294.889 133.717 294.926C133.945 294.976 134.152 294.919 134.447 294.856L136.096 294.507C137.194 294.275 138.288 294.043 139.379 293.812C141.56 293.35 143.727 292.891 145.878 292.436C150.18 291.526 154.419 290.629 158.584 289.748L158.595 289.746L158.606 289.745C173.633 287.882 187.733 286.134 200.432 284.56C203.606 284.168 206.693 283.787 209.685 283.418C210.433 283.326 211.175 283.234 211.911 283.144L213.01 283.009C213.389 282.954 213.734 282.958 213.986 282.786C214.263 282.615 214.419 282.38 214.537 282.029L214.935 281.025C215.199 280.359 215.461 279.698 215.72 279.044C217.795 273.812 219.718 268.963 221.468 264.552C224.973 255.75 227.781 248.699 229.72 243.831C230.206 242.622 230.637 241.548 231.011 240.616C231.198 240.152 231.371 239.724 231.529 239.332C231.693 238.94 231.847 238.594 231.792 238.258C231.702 237.582 231.198 237.247 230.887 237.15C230.553 237.048 230.369 237.087 230.37 237.07Z" fill="#263238"/>
<path d="M173.503 242.206C173.52 242.211 173.487 242.384 173.408 242.708C173.308 243.089 173.187 243.555 173.039 244.12C172.709 245.344 172.205 247.106 171.562 249.278C170.28 253.623 168.419 259.597 166.317 266.179C164.223 272.727 162.329 278.651 160.927 283.033C160.255 285.133 159.703 286.859 159.293 288.14C159.108 288.694 158.955 289.15 158.83 289.523C158.719 289.838 158.652 290 158.635 289.995C158.618 289.99 158.651 289.817 158.73 289.493C158.83 289.112 158.951 288.646 159.099 288.081C159.429 286.858 159.933 285.096 160.576 282.924C161.858 278.579 163.719 272.604 165.822 266.02C167.915 259.474 169.81 253.551 171.211 249.169C171.883 247.069 172.435 245.343 172.845 244.062C173.03 243.508 173.183 243.052 173.308 242.678C173.419 242.364 173.485 242.201 173.503 242.206Z" fill="#263238"/>
<path d="M196.178 259.418C195.316 259.388 194.702 259.63 193.868 260.502C193.275 261.121 192.853 262.037 193.225 262.81C193.495 263.37 194.108 263.715 194.727 263.768C195.346 263.821 195.965 263.615 196.502 263.303C197.247 262.87 197.905 262.144 197.931 261.283C197.959 260.421 197.158 259.403 196.178 259.418Z" fill="white"/>
<path d="M188.937 240.492C188.902 240.502 188.736 240.058 188.464 239.247C188.163 238.338 187.781 237.186 187.325 235.812C186.363 232.913 184.99 228.923 183.332 224.569C181.671 220.214 180.041 216.322 178.83 213.518C178.255 212.189 177.774 211.075 177.394 210.196C177.057 209.41 176.887 208.968 176.919 208.952C176.951 208.936 177.184 209.349 177.577 210.109C177.972 210.868 178.516 211.981 179.166 213.366C180.466 216.136 182.154 220.016 183.819 224.382C185.481 228.747 186.803 232.767 187.676 235.7C188.114 237.166 188.448 238.359 188.658 239.188C188.871 240.019 188.972 240.482 188.937 240.492Z" fill="#263238"/>
<path d="M433.969 456.332C433.969 456.476 336.814 456.592 216.995 456.592C97.135 456.592 0 456.475 0 456.332C0 456.188 97.134 456.072 216.995 456.072C336.814 456.072 433.969 456.188 433.969 456.332Z" fill="#263238"/>
</svg>
