<svg width="195" height="150" viewBox="0 0 195 150" fill="none" xmlns="http://www.w3.org/2000/svg">
<path d="M0.339111 149.888C0.339111 149.828 42.4747 149.779 94.44 149.779C146.423 149.779 188.55 149.828 188.55 149.888C188.55 149.948 146.423 149.997 94.44 149.997C42.4747 149.997 0.339111 149.948 0.339111 149.888Z" fill="#263238"/>
<path d="M95.4894 33.1859C95.4293 33.185 95.4109 30.8879 95.4485 28.0558C95.4861 25.2224 95.5651 22.9269 95.6253 22.9277C95.6855 22.9286 95.7039 25.2253 95.6662 28.0587C95.6286 30.8904 95.5496 33.1867 95.4894 33.1859Z" fill="#263238"/>
<path d="M80.9994 36.1002C80.9501 36.1349 79.9967 34.8584 78.8703 33.2496C77.7434 31.6405 76.8703 30.3084 76.9192 30.2741C76.9685 30.2394 77.9215 31.5159 79.0483 33.1251C80.1752 34.7334 81.0487 36.0659 80.9994 36.1002Z" fill="#263238"/>
<path d="M110.812 35.392C110.831 35.4146 110.498 35.7356 109.935 36.2288C109.374 36.7224 108.582 37.3861 107.688 38.095C106.794 38.8038 105.966 39.4229 105.358 39.8571C104.749 40.2918 104.361 40.5434 104.343 40.5196C104.325 40.4949 104.681 40.1994 105.265 39.7342C105.906 39.2272 106.688 38.6087 107.553 37.924C108.416 37.2381 109.197 36.6183 109.837 36.1101C110.424 35.6482 110.793 35.3686 110.812 35.392Z" fill="#263238"/>
<path d="M87.5382 27.7998L87.7865 28.325C87.8125 28.3805 87.8633 28.4183 87.9219 28.4271L88.4779 28.5116C88.6248 28.5337 88.684 28.7228 88.5777 28.8312L88.1758 29.2404C88.1334 29.2833 88.1141 29.3457 88.1244 29.4062L88.2193 29.9837C88.2447 30.1369 88.0905 30.2535 87.9588 30.181L87.4614 29.9087C87.4088 29.8797 87.3466 29.8797 87.2946 29.9087L86.7972 30.181C86.6655 30.2535 86.512 30.1369 86.5367 29.9837L86.6316 29.4062C86.6413 29.3457 86.6226 29.2833 86.5803 29.2404L86.1784 28.8312C86.072 28.7228 86.1306 28.5343 86.2775 28.5116L86.8335 28.4271C86.8921 28.4183 86.9423 28.3798 86.9689 28.325L87.2172 27.7998C87.2825 27.6605 87.4729 27.6605 87.5382 27.7998Z" fill="#FF725E"/>
<path d="M114.288 40.7569L114.537 41.2821C114.563 41.3376 114.614 41.3754 114.672 41.3842L115.228 41.4687C115.375 41.4908 115.434 41.6799 115.327 41.7884L114.925 42.1976C114.883 42.2405 114.864 42.3029 114.874 42.3634L114.969 42.941C114.994 43.0942 114.84 43.2102 114.708 43.1383L114.211 42.8653C114.158 42.8369 114.096 42.8369 114.044 42.8653L113.547 43.1383C113.415 43.2102 113.261 43.0942 113.286 42.941L113.381 42.3634C113.392 42.3029 113.372 42.2405 113.33 42.1976L112.928 41.7884C112.822 41.6799 112.88 41.4914 113.028 41.4687L113.584 41.3842C113.642 41.3754 113.693 41.3369 113.719 41.2821L113.968 40.7569C114.033 40.6175 114.223 40.6175 114.288 40.7569Z" fill="#FF725E"/>
<path d="M104.6 28.3047L105.055 29.2684C105.103 29.37 105.196 29.4398 105.303 29.4563L106.322 29.6106C106.592 29.6512 106.7 29.9972 106.504 30.1959L105.767 30.9457C105.689 31.0244 105.654 31.138 105.673 31.2498L105.847 32.3087C105.893 32.5893 105.611 32.8033 105.369 32.6706L104.458 32.1703C104.362 32.1176 104.248 32.1176 104.152 32.1703L103.241 32.6706C103 32.8033 102.718 32.5893 102.764 32.3087L102.938 31.2498C102.956 31.1387 102.921 31.025 102.843 30.9457L102.106 30.1959C101.911 29.9972 102.018 29.6512 102.289 29.6106L103.307 29.4563C103.414 29.4398 103.507 29.37 103.555 29.2684L104.01 28.3047C104.13 28.0495 104.479 28.0495 104.6 28.3047Z" fill="#FF725E"/>
<path d="M75.9969 41.6797L76.4938 42.6434C76.5462 42.745 76.6471 42.8148 76.7638 42.8313L77.875 42.9856C78.1689 43.0262 78.2869 43.3722 78.074 43.5709L77.27 44.3207C77.1851 44.3994 77.1466 44.5131 77.1665 44.6248L77.3562 45.6837C77.4066 45.9643 77.0988 46.1783 76.8355 46.0456L75.8417 45.5453C75.7376 45.4926 75.6122 45.4926 75.508 45.5453L74.5143 46.0456C74.2509 46.1783 73.9438 45.9643 73.9935 45.6837L74.1833 44.6248C74.2032 44.5137 74.1647 44.4 74.0798 44.3207L73.2757 43.5709C73.0628 43.3722 73.1802 43.0262 73.4748 42.9856L74.5859 42.8313C74.7027 42.8148 74.8035 42.745 74.8559 42.6434L75.3528 41.6797C75.4848 41.4245 75.8649 41.4245 75.9969 41.6797Z" fill="#FF725E"/>
<path d="M110.688 48.7852L111.185 49.7489C111.238 49.8504 111.338 49.9203 111.455 49.9368L112.566 50.091C112.86 50.1317 112.978 50.4783 112.765 50.6764L111.961 51.4262C111.876 51.5049 111.838 51.6185 111.858 51.7302L112.048 52.7892C112.098 53.0698 111.79 53.2837 111.527 53.1511L110.533 52.6508C110.428 52.5981 110.304 52.5981 110.199 52.6508L109.206 53.1511C108.942 53.2837 108.635 53.0698 108.685 52.7892L108.875 51.7302C108.895 51.6191 108.856 51.5055 108.771 51.4262L107.967 50.6764C107.754 50.4777 107.872 50.1317 108.166 50.091L109.277 49.9368C109.394 49.9203 109.495 49.8504 109.547 49.7489L110.044 48.7852C110.176 48.5299 110.556 48.5299 110.688 48.7852Z" fill="#FF725E"/>
<path d="M128.853 5.40259L135.75 0.0693359L136.412 8.7321L145.633 8.11769L139.526 16.0967L145.199 21.6857L135.574 23.2543L137.755 33.8661L130.704 26.0806L122.156 31.0699L122.254 22.38L113.057 19.7585L120.104 14.5142L114.909 7.42053L122.465 8.62511L122.656 0.129525L128.853 5.40259Z" fill="white"/>
<path d="M113.015 19.7011L112.902 19.7851L113.038 19.824C115.965 20.6595 119.05 21.5406 122.233 22.4492L122.18 22.3778C122.148 25.1397 122.114 28.0717 122.08 31.0677L122.078 31.2015L122.193 31.1342C124.928 29.5384 127.81 27.8573 130.742 26.1462L130.647 26.1315C131.255 26.8036 131.911 27.5275 132.57 28.2548C134.302 30.1678 136.014 32.057 137.698 33.9166L137.886 34.1243L137.829 33.8497C137.083 30.2205 136.354 26.6766 135.646 23.2388L135.585 23.3274C138.899 22.7861 142.113 22.2612 145.21 21.7554L145.348 21.7329L145.249 21.6346C143.287 19.704 141.393 17.8399 139.573 16.0485L139.579 16.1367C141.743 13.305 143.784 10.6346 145.681 8.15312L145.76 8.04905L145.629 8.05783C142.237 8.28729 139.169 8.49503 136.409 8.68186L136.461 8.72741C136.195 5.31556 135.972 2.44538 135.786 0.0658996L135.781 -0.000976562L135.728 0.039984C133.495 1.77747 131.778 3.11329 130.617 4.01735C130.038 4.47001 129.598 4.814 129.3 5.0468C129.004 5.27877 128.853 5.40207 128.853 5.40207C128.853 5.40207 129.003 5.29215 129.3 5.06603C129.599 4.8374 130.04 4.49968 130.622 4.05497C131.792 3.15592 133.522 1.82637 135.772 0.0972458L135.714 0.0717511C135.892 2.45207 136.107 5.32266 136.362 8.73535L136.366 8.78426L136.415 8.78092C139.176 8.59994 142.244 8.39889 145.637 8.17653L145.586 8.08124C143.686 10.5598 141.641 13.2272 139.472 16.0556L139.437 16.1024L139.478 16.1438C141.296 17.9369 143.189 19.8031 145.148 21.7358L145.187 21.6154C142.089 22.119 138.875 22.6415 135.561 23.1807L135.485 23.1932L135.5 23.2693C136.206 26.7075 136.934 30.2518 137.679 33.8815L137.811 33.8146C136.127 31.9551 134.416 30.0654 132.684 28.1524C132.025 27.4251 131.369 26.7012 130.761 26.0291L130.719 25.9827L130.665 26.0141C127.732 27.7261 124.852 29.4075 122.117 31.0042L122.231 31.0702C122.264 28.0742 122.297 25.1422 122.327 22.3803L122.327 22.3243L122.274 22.3088C119.089 21.4027 116.004 20.5245 113.076 19.6911L113.098 19.8136C115.547 17.9891 117.901 16.2349 120.142 14.5656L120.193 14.5275L120.156 14.4761C118.304 11.9516 116.552 9.56293 114.956 7.38658L114.901 7.47686C117.644 7.91112 120.195 8.31488 122.457 8.67308L122.513 8.68186L122.514 8.62626C122.583 5.33102 122.643 2.46001 122.692 0.129848L122.634 0.155761C124.635 1.84852 126.19 3.16303 127.247 4.05706C127.772 4.49885 128.173 4.83615 128.445 5.06519C128.715 5.29131 128.853 5.40207 128.853 5.40207C128.853 5.40207 128.715 5.27836 128.446 5.04639C128.175 4.81358 127.777 4.47043 127.254 4.02111C126.206 3.12332 124.664 1.80297 122.679 0.10268L122.623 0.0546143L122.621 0.128595C122.565 2.45876 122.496 5.32893 122.417 8.62418L122.473 8.57695C120.211 8.21373 117.661 7.80413 114.919 7.36401L114.781 7.34185L114.863 7.45429C116.456 9.63315 118.204 12.0243 120.052 14.5522L120.065 14.4623" fill="#263238"/>
<path d="M128.051 11.3053L128.689 17.2509C128.741 17.737 129.148 18.1081 129.637 18.1156C130.152 18.124 130.584 17.7261 130.618 17.2116L131.019 11.1904C131.049 10.7344 130.673 10.3548 130.217 10.3812L128.763 10.4652C128.329 10.4907 128.005 10.8731 128.051 11.3053Z" fill="#455A64"/>
<path d="M131.074 20.8767C130.854 21.6503 130.048 22.0996 129.275 21.8794C128.501 21.6595 128.052 20.8541 128.272 20.08C128.491 19.3064 129.297 18.8575 130.071 19.0773C130.845 19.2972 131.294 20.103 131.074 20.8767Z" fill="#455A64"/>
<path d="M193.283 90.9098C191.373 88.7239 188.138 88.2654 185.852 86.4756C182.77 84.0619 181.988 79.748 181.879 75.8342C181.771 71.9204 182.073 67.8134 180.372 64.2866C178.427 60.2537 173.815 57.6811 169.362 58.1459L164.21 63.1636C166.555 65.7746 167.907 69.8134 167.352 73.2787C166.796 76.7441 163.798 83.3442 163.515 86.8422C162.9 94.4575 165.893 99.9947 172.851 103.152C174.569 103.931 176.47 104.454 178.338 104.187C180.205 103.921 182.021 102.737 182.637 100.954C185.701 102.486 189.698 102.331 192.297 100.099C194.897 97.8673 195.537 93.4899 193.283 90.9098Z" fill="#263238"/>
<path d="M93.4927 54.5809C93.4927 54.5809 95.72 50.2759 96.2772 49.8203C96.8339 49.3647 97.6439 49.4658 97.5933 50.2253C97.5428 50.9847 96.5806 53.1615 96.5806 53.1615C96.5806 53.1615 98.2512 48.2508 99.5674 47.2891C100.884 46.3273 101.036 47.0868 101.036 47.7952C101.036 47.7952 101.997 44.6195 103.263 45.1946C104.529 45.7702 103.516 47.7447 103.516 47.7447C103.516 47.7447 104.883 45.2649 105.896 46.1505C106.908 47.0358 104.175 51.7442 104.175 51.7442C104.175 51.7442 105.187 51.2886 104.884 53.1109C104.58 54.9333 104.225 57.5155 103.365 59.0339C102.504 60.5524 100.53 64.1975 99.0107 66.3747C97.4918 68.5514 96.9856 87.8398 96.9856 87.8398C96.9856 87.8398 90.4043 91.7377 87.2148 91.2315L85.9492 91.0292L90.0499 67.6913C90.0499 67.6913 89.1625 66.0712 89.3531 63.2362C89.5437 60.4011 93.4927 54.5809 93.4927 54.5809Z" fill="#AE7461"/>
<path d="M101.991 53.7531C101.991 53.7857 101.554 53.8062 100.851 53.8547C100.148 53.9032 99.1796 53.9909 98.1196 54.1585C97.0596 54.3274 96.11 54.5414 95.4241 54.7048C94.7387 54.8687 94.314 54.9744 94.3048 54.9439C94.2965 54.9172 94.7056 54.7587 95.3844 54.556C96.0632 54.3537 97.0153 54.1142 98.0853 53.9437C99.1553 53.7744 100.136 53.7105 100.844 53.7009C101.554 53.6913 101.991 53.7255 101.991 53.7531Z" fill="#6F4439"/>
<path d="M101.155 47.5354C101.181 47.5463 101.053 47.9425 100.801 48.5657C100.55 49.1893 100.171 50.0374 99.7052 50.9515C99.2387 51.8655 98.7748 52.671 98.4178 53.2402C98.0613 53.8099 97.8159 54.1464 97.7917 54.1313C97.765 54.1146 97.9639 53.7502 98.2849 53.1625C98.6067 52.5753 99.0469 51.7623 99.5112 50.8524C99.9747 49.9429 100.374 49.1091 100.661 48.5038C100.947 47.8986 101.126 47.5237 101.155 47.5354Z" fill="#6F4439"/>
<path d="M103.753 47.2662C103.779 47.2829 103.571 47.644 103.227 48.2208C102.844 48.8633 102.388 49.6281 101.884 50.4737C101.39 51.3251 100.942 52.095 100.567 52.7416C100.23 53.3225 100.015 53.6791 99.988 53.6648C99.9621 53.6515 100.129 53.2695 100.432 52.6684C100.734 52.0674 101.176 51.249 101.697 50.3633C102.218 49.4785 102.719 48.6948 103.098 48.1385C103.475 47.5813 103.729 47.2499 103.753 47.2662Z" fill="#6F4439"/>
<path d="M94.9926 63.0339C94.9855 63.0318 94.993 62.9787 95.0147 62.8788C95.0348 62.7785 95.0753 62.6331 95.1351 62.4479C95.2572 62.0797 95.472 61.5526 95.8536 60.9666C96.2331 60.3827 96.7857 59.7386 97.5355 59.1932C98.2728 58.641 99.181 58.1813 99.9095 57.4461C101.409 55.9535 101.542 53.8574 102.486 52.7661C102.924 52.214 103.419 51.8884 103.794 51.7647C103.981 51.6974 104.136 51.6853 104.238 51.6777C104.342 51.6798 104.395 51.6848 104.395 51.6924C104.397 51.7153 104.176 51.6974 103.825 51.8441C103.476 51.9858 103.015 52.3164 102.608 52.8606C102.188 53.3977 101.907 54.1676 101.595 55.0269C101.281 55.8858 100.822 56.8258 100.065 57.5986C99.2997 58.3677 98.3806 58.822 97.6542 59.3549C96.9182 59.8774 96.3702 60.4914 95.9819 61.0523C95.2074 62.1871 95.0386 63.0531 94.9926 63.0339Z" fill="#6F4439"/>
<path d="M171.562 49.06C169.231 43.1797 164.962 38.8621 158.967 36.8429C155.586 35.7039 153.954 35.9622 151.295 35.8427C148.637 35.7231 146.009 36.3329 143.889 37.9409C141.369 39.8505 139.034 42.1435 137.752 45.0329C136.435 48.0013 135.112 50.9898 134.361 54.1488C133.61 57.3077 133.458 60.682 134.477 63.7649L141.893 67.6294C146.181 69.1583 150.531 70.7006 155.07 71.0572C159.608 71.4137 164.436 70.4486 167.877 67.4677C172.658 63.326 173.892 54.9404 171.562 49.06Z" fill="#263238"/>
<path d="M164.594 46.7847L155.453 39.2909L152.618 38.738C146.46 36.8003 140.056 42.233 138.429 47.2022C136.621 52.7231 134.631 59.5351 134.211 63.8949C133.366 72.6622 140.15 75.5754 140.15 75.5754C140.15 75.5754 139.673 76.8695 138.742 79.6076L137.719 80.3866C138.277 85.1941 145.34 87.342 152.883 84.4455L153.199 84.1818L166.465 50.4757C166.894 48.946 166.081 47.3426 164.594 46.7847Z" fill="#AE7461"/>
<path d="M138.665 54.4253C138.497 54.9908 138.837 55.5986 139.424 55.785C140.009 55.971 140.621 55.665 140.789 55.0999C140.957 54.5348 140.617 53.9263 140.032 53.7403C139.445 53.5535 138.832 53.8602 138.665 54.4253Z" fill="#263238"/>
<path d="M139.421 50.5699C139.518 50.7454 140.493 50.3521 141.655 50.656C142.819 50.9431 143.517 51.7623 143.68 51.6524C143.758 51.6056 143.688 51.3159 143.387 50.9494C143.091 50.5853 142.535 50.1623 141.811 49.9776C141.086 49.7941 140.408 49.9028 139.987 50.085C139.558 50.2664 139.371 50.49 139.421 50.5699Z" fill="#263238"/>
<path d="M143.908 61.8671C143.931 61.8028 143.241 61.4905 142.109 61.0375C141.82 60.93 141.555 60.798 141.557 60.5827C141.543 60.3499 141.749 60.0628 141.983 59.7547C142.448 59.109 142.935 58.4319 143.446 57.7222C145.498 54.8211 147.066 52.404 146.949 52.3224C146.831 52.2405 145.071 54.526 143.02 57.4275C142.521 58.1451 142.044 58.8285 141.59 59.4826C141.39 59.7907 141.098 60.1234 141.134 60.6074C141.157 60.8498 141.333 61.0671 141.51 61.1679C141.685 61.2753 141.851 61.3213 141.996 61.3685C143.157 61.7371 143.887 61.9319 143.908 61.8671Z" fill="#263238"/>
<path d="M140.139 75.5564C140.139 75.5564 145.709 77.3896 152.196 75.4707C152.196 75.4707 147.679 80.5289 139.455 77.5568L140.139 75.5564Z" fill="#6F4439"/>
<path d="M141.085 46.6841C141.207 47.0184 142.146 47.0594 143.163 47.4151C144.192 47.7382 144.971 48.2682 145.266 48.0717C145.4 47.9731 145.358 47.6671 145.072 47.2885C144.791 46.9123 144.245 46.4901 143.542 46.2561C142.838 46.0237 142.151 46.0358 141.704 46.1704C141.249 46.3033 141.036 46.5244 141.085 46.6841Z" fill="#263238"/>
<path d="M151.031 57.8839C150.882 58.4544 150.276 58.7984 149.678 58.6534C149.081 58.5092 148.716 57.9307 148.865 57.3602C149.014 56.7897 149.62 56.4453 150.217 56.5895C150.816 56.7345 151.18 57.3138 151.031 57.8839Z" fill="#263238"/>
<path d="M155.019 55.0438C154.845 55.1433 154.215 54.3019 153.064 53.9605C151.919 53.6031 150.898 53.9421 150.815 53.7636C150.773 53.6829 150.983 53.4719 151.43 53.3143C151.872 53.1563 152.567 53.0819 153.282 53.2992C153.997 53.5178 154.521 53.9621 154.786 54.3354C155.059 54.7128 155.103 55.0004 155.019 55.0438Z" fill="#263238"/>
<path d="M155.498 51.1739C155.194 51.367 154.387 50.8308 153.324 50.4981C152.272 50.1328 151.302 50.0834 151.175 49.7478C151.124 49.5877 151.345 49.3687 151.813 49.2396C152.276 49.11 152.987 49.1033 153.714 49.3428C154.441 49.5831 155.006 50.0099 155.296 50.3886C155.593 50.7702 155.637 51.0761 155.498 51.1739Z" fill="#263238"/>
<path d="M160.612 63.9263C160.776 63.2998 161.884 62.0087 162.529 62.0726C164.249 62.2436 167.196 63.1489 166.135 67.3557C164.685 73.1069 157.905 70.2823 157.936 70.1147C157.96 69.9839 160.046 66.0901 160.612 63.9263Z" fill="#AE7461"/>
<path d="M161.359 68.6009C161.389 68.5888 161.442 68.6962 161.591 68.8166C161.738 68.9336 162.008 69.0578 162.337 69.021C163 68.9512 163.755 68.1157 164.044 67.0858C164.191 66.5659 164.207 66.0401 164.125 65.5803C164.056 65.1155 163.858 64.7527 163.565 64.6215C163.279 64.4744 163.016 64.6027 162.905 64.7465C162.787 64.8881 162.795 65.0123 162.762 65.0144C162.742 65.0252 162.663 64.8873 162.769 64.6616C162.821 64.5529 162.923 64.4342 163.086 64.3582C163.252 64.2808 163.47 64.2746 163.677 64.3515C164.113 64.494 164.409 65.0027 164.499 65.5071C164.612 66.0196 164.607 66.6139 164.442 67.1978C164.113 68.3476 163.247 69.2822 162.355 69.3127C161.924 69.3161 161.617 69.1092 161.477 68.9295C161.334 68.7426 161.336 68.6064 161.359 68.6009Z" fill="#6F4439"/>
<path d="M162.754 62.1659L160.847 63.1957C156.546 55.3004 149.176 36.6156 149.569 37.7144C149.569 37.7144 154.364 37.3215 158.716 39.571C163.068 41.8205 171.063 46.9047 169.2 52.2897C167.337 57.6744 162.754 62.1659 162.754 62.1659Z" fill="#263238"/>
<path d="M171.075 62.7757C171.086 62.7757 171.091 62.6582 171.091 62.4329C171.09 62.2081 171.065 61.875 170.988 61.4524C170.831 60.611 170.404 59.4043 169.489 58.1488C168.6 56.8752 167.203 55.6226 165.53 54.4552C163.866 53.2703 161.924 52.143 160.149 50.6229C158.351 49.1307 156.853 47.4681 155.637 45.8597C154.43 44.2414 153.508 42.6681 152.833 41.3026C152.158 39.9359 151.719 38.7815 151.43 37.9798C151.301 37.6007 151.197 37.2931 151.114 37.0507C151.04 36.8383 150.996 36.728 150.986 36.7305C150.976 36.733 151.001 36.8488 151.056 37.0666C151.115 37.2835 151.192 37.6066 151.32 38.0145C151.576 38.83 151.987 40.0023 152.643 41.3908C153.298 42.7781 154.209 44.376 155.416 46.019C156.632 47.6516 158.139 49.3376 159.958 50.8465C161.756 52.3859 163.715 53.5123 165.372 54.6759C167.043 55.824 168.424 57.0357 169.318 58.27C170.237 59.4863 170.684 60.6545 170.873 61.4749C171.058 62.3013 171.043 62.7769 171.075 62.7757Z" fill="#455A64"/>
<path d="M169.423 63.8917C169.423 63.8917 169.627 63.4482 169.597 62.5893C169.578 61.7404 169.241 60.4886 168.323 59.2581C167.426 58.0034 165.918 56.9242 164.204 55.9135C162.479 54.9129 160.632 53.748 158.947 52.194C157.261 50.6488 155.841 48.9745 154.757 47.3139C153.663 45.6596 152.867 44.0508 152.302 42.6615C151.723 41.2747 151.415 40.0943 151.181 39.2868C151.089 38.904 151.015 38.5922 150.955 38.3447C150.9 38.1299 150.866 38.0175 150.856 38.0196C150.845 38.0212 150.859 38.1374 150.895 38.3564C150.94 38.6085 150.997 38.9253 151.066 39.3144C151.265 40.1345 151.544 41.3315 152.102 42.7405C152.647 44.1515 153.43 45.787 154.524 47.4677C155.606 49.1546 157.037 50.8549 158.742 52.4189C160.445 53.9892 162.336 55.1712 164.061 56.1539C165.777 57.1482 167.26 58.186 168.152 59.3873C169.066 60.5688 169.424 61.7709 169.479 62.596C169.545 63.4302 169.383 63.8862 169.423 63.8917Z" fill="#455A64"/>
<path d="M147.248 63.5565C147.428 63.5117 147.621 63.4679 147.794 63.5331C147.954 63.5932 148.067 63.7366 148.154 63.8842C148.56 64.5805 148.497 65.5226 148 66.1583C147.504 66.794 146.605 67.0833 145.831 66.8571C145.057 66.631 144.264 65.9217 144.206 64.3845C145.154 64.1491 146.299 63.7918 147.248 63.5565Z" fill="#6F4439"/>
<path d="M145.759 66.9135C145.762 66.8563 146.285 67.0519 147.023 66.7505C147.38 66.6022 147.771 66.3117 147.997 65.8578C148.225 65.4109 148.285 64.8082 148.077 64.2657C147.968 64.0024 147.812 63.7299 147.605 63.7057C147.389 63.6718 147.089 63.788 146.832 63.8457C146.335 63.9694 145.869 64.0856 145.437 64.193C144.641 64.3823 144.144 64.4797 144.134 64.4409C144.124 64.4016 144.604 64.2331 145.387 63.9924C145.815 63.8662 146.276 63.7299 146.767 63.5844C147.033 63.5255 147.275 63.3888 147.653 63.4235C147.845 63.4503 148.009 63.5828 148.109 63.719C148.214 63.8578 148.284 64.0041 148.349 64.1604C148.59 64.7911 148.511 65.4753 148.235 65.9819C147.96 66.4993 147.498 66.807 147.096 66.9432C146.261 67.2191 145.734 66.9282 145.759 66.9135Z" fill="#263238"/>
<path d="M172.671 55.25C172.686 55.2496 172.7 55.4715 172.712 55.8753C172.723 56.0772 172.72 56.3242 172.702 56.6105C172.69 56.8972 172.677 57.2241 172.628 57.5818C172.607 57.7624 172.585 57.9505 172.562 58.1453C172.528 58.3404 172.492 58.5423 172.455 58.7509C172.391 59.1718 172.268 59.6098 172.16 60.0754C171.902 60.9958 171.562 61.9935 171.096 62.9953C170.622 63.9934 170.076 64.8962 169.52 65.6758C169.218 66.0469 168.958 66.4222 168.658 66.7265C168.515 66.8828 168.376 67.0337 168.242 67.18C168.098 67.3142 167.96 67.4433 167.826 67.5675C167.568 67.8216 167.307 68.0197 167.078 68.1936C166.966 68.2793 166.86 68.3603 166.76 68.4368C166.659 68.5008 166.564 68.5601 166.475 68.6161C166.131 68.8289 165.939 68.9392 165.931 68.9263C165.903 68.8836 166.689 68.4473 167.721 67.4555C167.849 67.3296 167.983 67.1988 168.121 67.063C168.251 66.9159 168.385 66.7641 168.523 66.607C168.813 66.3023 169.064 65.9269 169.358 65.5583C169.897 64.7826 170.431 63.8889 170.9 62.9034C171.36 61.9136 171.702 60.9302 171.967 60.0228C172.079 59.5638 172.208 59.1321 172.278 58.717C172.319 58.5114 172.359 58.312 172.397 58.1198C172.424 57.9275 172.451 57.7419 172.476 57.5634C172.535 57.2098 172.558 56.8868 172.581 56.6034C172.611 56.32 172.626 56.0751 172.628 55.8749C172.641 55.4732 172.656 55.2504 172.671 55.25Z" fill="#455A64"/>
<path d="M85.591 88.5936L83.5576 94.4101C83.5576 94.4101 82.0709 96.5379 82.5031 99.238C82.9353 101.938 83.0364 106.183 88.2652 107.155C93.4939 108.127 117.301 106.074 117.301 106.074C117.301 106.074 131.51 79.7415 131.402 80.0655C131.402 80.0655 127.406 80.0458 123.411 81.6659C121.942 82.2615 120.341 83.2219 118.904 84.1987C115.412 86.5728 111.467 88.1991 107.327 89.0304C102.651 89.9692 97.4266 91.0266 97.6067 91.0266L98.1338 86.2522L85.591 88.5936Z" fill="#E7A446"/>
<path d="M157.358 133.506L166.502 87.1428L155.737 83.2168L154.995 79.3669L140.803 84.4552L139.194 78.2305L136.047 80.0169L131.331 80.0633C131.331 80.0633 117.604 99.0435 116.395 110.359C115.772 116.181 118.443 130.014 118.443 130.014L117.925 141.361L116.11 146.221C115.51 147.826 115.865 148.937 117.282 149.898L161.576 149.795C163.077 147.763 163.295 145.057 162.14 142.81L157.358 133.506Z" fill="#E7A446"/>
<path opacity="0.3" d="M135.074 80.9102C135.074 80.9102 132.604 86.4077 135.074 89.8734L140.054 86.6467L141.166 92.5626C141.166 92.5626 152.078 90.4026 155.298 83.8338C155.298 83.8338 147.631 90.9246 141.273 91.0266L140.557 85.3314L135.624 88.2455C135.624 88.2455 135.113 83.4794 135.074 80.9102Z" fill="black"/>
<g opacity="0.3">
<path d="M161.992 142.521L134.998 148.924C133.245 149.34 131.487 148.256 131.071 146.503L121.461 105.993C121.045 104.24 122.129 102.481 123.882 102.065L152.122 95.3662C153.875 94.9503 155.633 96.0345 156.049 97.7874L159.429 137.535C160.014 138.638 161.992 142.521 161.992 142.521Z" fill="black"/>
</g>
<path d="M164.406 139.581L136.436 146.216C134.608 146.65 132.776 145.52 132.342 143.692L122.795 103.451C122.362 101.623 123.492 99.7901 125.32 99.3567L153.29 92.7215C155.117 92.2881 156.95 93.4178 157.384 95.2456L166.93 135.487C167.364 137.314 166.233 139.147 164.406 139.581Z" fill="#E0E0E0"/>
<path d="M164.407 139.58C164.407 139.58 164.44 139.567 164.506 139.546C164.571 139.521 164.674 139.5 164.801 139.446C165.056 139.35 165.432 139.17 165.838 138.82C166.236 138.469 166.656 137.922 166.868 137.168C166.969 136.792 167.013 136.368 166.964 135.922C166.91 135.48 166.768 135.012 166.656 134.515C165.703 130.534 164.327 124.783 162.626 117.677C161.779 114.121 160.85 110.227 159.854 106.047C159.356 103.957 158.841 101.795 158.311 99.5679C158.046 98.4544 157.777 97.3246 157.505 96.1794C157.354 95.6085 157.279 95.0129 157 94.5063C156.738 93.9888 156.324 93.5521 155.83 93.2365C155.332 92.9314 154.751 92.7408 154.157 92.735C153.565 92.7074 152.978 92.9143 152.371 93.0443C151.167 93.3301 149.949 93.6198 148.719 93.9124C146.258 94.4971 143.745 95.094 141.187 95.7017C136.071 96.9163 130.774 98.1735 125.348 99.4613C124.016 99.7547 122.976 100.952 122.838 102.285C122.734 102.951 122.953 103.604 123.103 104.274C123.261 104.94 123.418 105.603 123.575 106.264C124.201 108.906 124.818 111.511 125.425 114.07C126.637 119.188 127.806 124.125 128.92 128.828C130.032 133.531 131.088 138 132.077 142.183C132.202 142.705 132.325 143.223 132.448 143.736C132.577 144.233 132.82 144.695 133.15 145.078C133.811 145.844 134.817 146.266 135.789 146.22C136.273 146.201 136.747 146.047 137.226 145.944C137.701 145.832 138.172 145.721 138.637 145.611C139.568 145.391 140.478 145.176 141.368 144.967C148.48 143.294 154.237 141.941 158.221 141.004C160.208 140.542 161.752 140.182 162.805 139.938C163.326 139.819 163.724 139.728 163.998 139.665C164.267 139.605 164.407 139.58 164.407 139.58C164.407 139.58 164.271 139.62 164.003 139.687C163.73 139.754 163.334 139.852 162.814 139.98C161.764 140.234 160.223 140.607 158.239 141.087C154.259 142.039 148.508 143.415 141.402 145.116C140.514 145.328 139.604 145.545 138.674 145.767C138.208 145.879 137.738 145.991 137.263 146.104C136.789 146.207 136.313 146.364 135.796 146.387C134.774 146.438 133.716 145.997 133.018 145.192C132.67 144.79 132.412 144.304 132.275 143.78C132.152 143.266 132.027 142.747 131.901 142.224C130.906 138.043 129.843 133.575 128.724 128.874C127.606 124.172 126.433 119.236 125.217 114.119C124.609 111.56 123.991 108.956 123.364 106.313C123.207 105.653 123.05 104.99 122.892 104.324C122.816 103.989 122.727 103.665 122.661 103.318C122.589 102.971 122.579 102.611 122.622 102.259C122.696 101.552 123.01 100.874 123.481 100.338C123.72 100.072 123.996 99.8391 124.303 99.6531C124.614 99.4726 124.95 99.3384 125.299 99.2498C130.725 97.9633 136.022 96.7073 141.139 95.4944C143.697 94.8883 146.21 94.2931 148.672 93.7101C149.902 93.4187 151.12 93.1303 152.324 92.8453C152.625 92.7738 152.925 92.7032 153.224 92.6321C153.531 92.5669 153.847 92.5164 154.162 92.5322C154.792 92.5398 155.409 92.7416 155.937 93.0664C156.461 93.4012 156.899 93.866 157.177 94.4148C157.324 94.6839 157.418 94.9798 157.492 95.272C157.56 95.5604 157.628 95.8476 157.696 96.1343C157.967 97.2799 158.234 98.4101 158.498 99.524C159.024 101.752 159.536 103.915 160.03 106.006C161.017 110.188 161.937 114.084 162.776 117.642C164.449 124.755 165.802 130.511 166.739 134.496C166.848 134.995 166.985 135.457 167.038 135.915C167.085 136.371 167.037 136.803 166.931 137.186C166.708 137.953 166.274 138.504 165.866 138.853C165.451 139.202 165.069 139.377 164.809 139.468C164.546 139.554 164.407 139.58 164.407 139.58Z" fill="#263238"/>
<path d="M148.301 119.32C148.61 117.42 147.32 115.629 145.42 115.32C143.52 115.011 141.729 116.301 141.42 118.201C141.11 120.1 142.4 121.891 144.3 122.2C146.201 122.51 147.992 121.22 148.301 119.32Z" fill="white"/>
<path opacity="0.3" d="M128.347 129.403C128.268 129.374 129.139 131.393 131.943 132.135C134.748 132.877 140.934 132.877 142.089 133.29C143.243 133.702 166.503 138.18 166.503 138.18C166.503 138.18 167.06 137.892 167.177 135.565C167.294 133.237 128.347 129.403 128.347 129.403Z" fill="black"/>
<path d="M135.347 107.703C135.28 107.284 134.787 107.058 134.42 107.271C133.552 107.775 132.344 108.98 132.547 111.434C132.765 114.069 133.805 115.684 133.805 115.684L126.686 116.471C126.686 116.471 124.183 117.172 124.544 118.69C124.906 120.207 125.252 120.098 125.252 120.098C125.252 120.098 123.597 120.227 123.741 122.058C123.824 123.111 125.068 123.87 125.068 123.87C125.068 123.87 124.676 125.684 124.949 126.078C125.223 126.473 126.918 127.205 126.918 127.205C126.918 127.205 126.579 128.376 127.31 128.932C128.04 129.488 131.86 130.411 131.86 130.411C131.86 130.411 140.04 130.826 141.779 130.846L150.023 132.738V123.022C150.023 123.022 143.262 121.777 142.89 121.351C142.1 120.443 137.723 114.26 137.723 114.26C137.723 114.26 136.031 112.183 135.681 110.592C135.412 109.373 135.453 108.366 135.347 107.703Z" fill="#AE7461"/>
<path d="M129.426 120.012C129.426 120.056 128.48 120.082 127.312 120.071C126.144 120.059 125.196 120.015 125.195 119.971C125.194 119.928 126.141 119.901 127.309 119.913C128.477 119.924 129.425 119.969 129.426 120.012Z" fill="#6F4439"/>
<path d="M130.177 124.234C130.177 124.255 129.889 124.266 129.424 124.258C128.959 124.251 128.316 124.222 127.607 124.164C126.898 124.106 126.258 124.031 125.797 123.963C125.335 123.895 125.051 123.837 125.053 123.816C125.056 123.794 125.344 123.813 125.807 123.852C126.33 123.897 126.941 123.949 127.616 124.007C128.291 124.059 128.903 124.107 129.426 124.147C129.89 124.183 130.177 124.211 130.177 124.234Z" fill="#6F4439"/>
<path d="M129.72 127.711C129.712 127.753 129.091 127.661 128.332 127.505C127.572 127.349 126.964 127.188 126.972 127.145C126.979 127.103 127.601 127.195 128.361 127.351C129.12 127.507 129.729 127.668 129.72 127.711Z" fill="#6F4439"/>
<path d="M166.237 87.0547C166.237 87.0547 167.51 87.0881 169.814 90.5439C172.117 93.9996 179.311 123.666 179.762 126.833C180.33 130.828 178.488 136.969 174.398 137.481C168.935 138.164 142.896 132.167 142.896 132.167L146.291 121.279L163.79 122.244C163.79 122.244 161.442 111.262 160.508 108.437C158.981 103.819 159.962 88.933 166.237 87.0547Z" fill="#E7A446"/>
<path d="M123.275 91.4025C123.281 91.4058 123.256 91.4702 123.203 91.5897C123.136 91.731 123.056 91.9011 122.959 92.1063C122.729 92.5845 122.422 93.2231 122.049 93.9985C121.294 95.6018 120.282 97.8325 119.294 100.349C118.298 102.863 117.528 105.188 117.043 106.891C116.802 107.744 116.627 108.439 116.511 108.92C116.459 109.141 116.415 109.324 116.378 109.475C116.345 109.602 116.325 109.668 116.317 109.666C116.31 109.665 116.316 109.597 116.335 109.467C116.361 109.313 116.391 109.127 116.428 108.902C116.519 108.414 116.672 107.711 116.895 106.851C117.343 105.131 118.093 102.79 119.091 100.269C120.082 97.746 121.118 95.5199 121.911 93.9312C122.311 93.1387 122.641 92.5009 122.884 92.0675C122.995 91.8698 123.088 91.7055 123.164 91.5693C123.23 91.4564 123.268 91.3991 123.275 91.4025Z" fill="#263238"/>
<path d="M155.591 83.4784C155.596 83.483 155.528 83.5741 155.392 83.7442C155.25 83.9098 155.064 84.1747 154.775 84.4732C154.225 85.0959 153.351 85.9356 152.155 86.8368C150.96 87.7392 149.419 88.6725 147.58 89.457C145.747 90.2461 143.606 90.8693 141.285 91.133L141.179 91.1452L141.166 91.0386C141.112 90.611 141.055 90.1546 140.997 89.694C140.809 88.1918 140.627 86.7335 140.453 85.343L140.611 85.4207C138.818 86.4736 137.153 87.4512 135.67 88.3214L135.565 88.3833L135.538 88.265C134.996 85.9486 134.966 83.9628 135.048 82.6011C135.09 81.9181 135.157 81.3857 135.211 81.0254C135.238 80.8452 135.265 80.7077 135.282 80.6153C135.3 80.523 135.311 80.4757 135.316 80.4766C135.321 80.4774 135.318 80.5259 135.309 80.6195C135.298 80.7282 135.283 80.864 135.265 81.0325C135.228 81.3944 135.177 81.9261 135.151 82.6065C135.1 83.9633 135.157 85.9331 135.712 88.2236L135.579 88.1672C137.056 87.289 138.717 86.3022 140.504 85.2397L140.643 85.1574L140.663 85.3171C140.839 86.7072 141.023 88.1651 141.213 89.6672C141.27 90.1278 141.328 90.5843 141.382 91.0118L141.262 90.9174C143.558 90.6587 145.682 90.0488 147.504 89.2769C149.332 88.5095 150.869 87.5975 152.067 86.7172C153.266 85.8382 154.15 85.0207 154.716 84.4176C155.013 84.1288 155.208 83.8734 155.36 83.7171C155.506 83.5566 155.585 83.4738 155.591 83.4784Z" fill="#263238"/>
<path d="M94.9622 99.8268C94.9476 99.8243 94.9551 99.6897 94.9818 99.4473C95.0073 99.2049 95.0587 98.8563 95.134 98.4271C95.2836 97.569 95.5469 96.392 95.9394 95.1205C96.3335 93.8491 96.7803 92.7285 97.1415 91.9361C97.3216 91.5394 97.4763 91.2226 97.5916 91.0082C97.7061 90.7933 97.7759 90.6776 97.7893 90.6838C97.819 90.698 97.6054 91.1912 97.2827 91.9962C96.9597 92.8008 96.5383 93.9218 96.1471 95.1849C95.7576 96.448 95.4721 97.6108 95.2849 98.4576C95.0968 99.304 94.9944 99.8319 94.9622 99.8268Z" fill="#263238"/>
<path d="M73.2923 106.082H55.2107V136.889H73.2923V106.082Z" fill="white"/>
<path d="M73.292 136.886C73.292 136.886 73.2879 136.832 73.2862 136.733C73.2849 136.626 73.2829 136.481 73.2803 136.292C73.2774 135.897 73.2732 135.327 73.2678 134.591C73.2615 133.103 73.2519 130.944 73.2402 128.224C73.2281 122.781 73.211 115.093 73.1909 106.079L73.292 106.18C67.726 106.182 61.6128 106.185 55.2129 106.187H55.2108L55.3195 106.079C55.3099 117.823 55.3015 128.598 55.2948 136.886L55.2108 136.801C60.7418 136.82 65.2508 136.835 68.386 136.846C69.9504 136.855 71.1717 136.862 72.0106 136.867C72.4223 136.871 72.7387 136.874 72.9614 136.876C73.1767 136.88 73.292 136.886 73.292 136.886C73.292 136.886 73.1888 136.892 72.979 136.895C72.76 136.897 72.4486 136.901 72.0436 136.904C71.2093 136.909 69.9943 136.917 68.4378 136.926C65.2901 136.936 60.7631 136.952 55.2104 136.97L55.126 136.971V136.886C55.1193 128.599 55.1109 117.823 55.1013 106.079V105.971H55.2104H55.2125C61.6124 105.974 67.7256 105.976 73.2916 105.978H73.3932L73.3928 106.079C73.3727 115.121 73.3556 122.832 73.3435 128.291C73.3318 131.002 73.3226 133.154 73.3159 134.636C73.3104 135.363 73.3063 135.926 73.3033 136.316C73.3008 136.5 73.2987 136.641 73.2971 136.746C73.2962 136.84 73.2941 136.888 73.292 136.886Z" fill="#263238"/>
<path d="M70.4699 141.257H30.646C29.9986 141.257 29.4736 140.732 29.4736 140.085V108.756C29.4736 108.109 29.9986 107.584 30.646 107.584H70.4699C71.1173 107.584 71.6423 108.109 71.6423 108.756V140.085C71.6423 140.732 71.1173 141.257 70.4699 141.257Z" fill="#455A64"/>
<path d="M23.3409 64.4794L22.915 29.5362C22.5263 20.8475 27.2585 13.3784 35.9547 13.2305L36.7593 13.2635C44.8549 13.5979 51.3396 20.0906 51.6569 28.187C51.9524 35.72 52.1818 44.0471 51.9658 48.073C51.5181 56.4072 43.1245 57.3593 43.1245 57.3593C43.1057 57.3593 43.0727 62.4326 42.7312 65.0299L44.6902 70.7514L31.8775 73.826L23.3409 64.4794Z" fill="#FFBF9D"/>
<path d="M43.1301 57.3514C43.1301 57.3514 37.8612 57.4425 32.4055 53.6934C32.4055 53.6934 34.7587 60.0703 43.1101 59.6632L43.1301 57.3514Z" fill="#FF9A6C"/>
<path d="M41.35 41.6076C41.3471 41.5344 42.1496 41.4295 43.4469 41.3179C43.7755 41.2979 44.0881 41.2456 44.1525 41.0245C44.2394 40.7913 44.1169 40.4331 43.974 40.0456C43.6994 39.2411 43.4114 38.3976 43.1096 37.514C41.9122 33.9107 41.0599 30.954 41.2054 30.9068C41.3512 30.86 42.4396 33.7423 43.6367 37.3452C43.9238 38.2338 44.1989 39.0797 44.4601 39.8902C44.5683 40.2672 44.7639 40.6977 44.5767 41.1813C44.4785 41.4224 44.2306 41.5896 44.0191 41.6373C43.8068 41.6928 43.6225 41.6887 43.4599 41.6916C42.1579 41.7079 41.3521 41.6807 41.35 41.6076Z" fill="#263238"/>
<path d="M23.344 35.7341C23.2048 35.6668 17.6843 33.8031 17.6312 39.5113C17.5777 45.2194 23.3198 44.0955 23.331 43.9321C23.3427 43.7682 23.344 35.7341 23.344 35.7341Z" fill="#FFBF9D"/>
<path d="M21.6099 41.7679C21.5853 41.7495 21.5096 41.8365 21.3408 41.9121C21.1761 41.9857 20.8939 42.0346 20.5976 41.9205C19.9966 41.6935 19.4975 40.7314 19.4795 39.7023C19.4699 39.1828 19.5836 38.6892 19.7713 38.2813C19.9498 37.8654 20.2223 37.5761 20.5266 37.5252C20.8296 37.4583 21.0427 37.6418 21.1109 37.8035C21.1857 37.9636 21.1485 38.0773 21.1786 38.0873C21.1945 38.1019 21.3019 37.9929 21.258 37.7567C21.2354 37.643 21.1698 37.5076 21.0369 37.3968C20.9011 37.284 20.7 37.2255 20.4885 37.2464C20.048 37.2727 19.648 37.6739 19.4411 38.1216C19.2108 38.5709 19.0708 39.126 19.0816 39.7094C19.1076 40.8601 19.686 41.9422 20.509 42.188C20.9098 42.2967 21.2459 42.1784 21.4197 42.0455C21.5982 41.9054 21.6296 41.7784 21.6099 41.7679Z" fill="#FF9A6C"/>
<path d="M55.0805 25.632C51.5014 26.1841 47.8292 25.9187 44.9703 23.6955C44.1477 23.0556 43.382 22.3259 42.6802 21.5305C41.4121 20.0935 40.4228 18.3 38.7146 17.4302C36.5127 16.3092 33.8636 17.0771 31.5201 17.8612L31.62 17.773C30.3991 18.3205 29.2848 19.1059 28.3582 20.0714C28.9195 25.5735 28.0581 31.2181 25.8441 36.2901C25.6623 36.7064 25.3313 37.0512 24.9087 37.2184C23.5721 37.748 23.9858 35.9729 22.9923 35.6306C22.2308 35.3681 21.8609 35.5286 20.3462 35.4851C19.8196 34.0502 19.5111 30.1427 19.0656 28.0294C17.8162 26.7066 16.6576 24.2523 16.6125 22.3347C16.5669 20.417 17.6311 17.974 17.6311 17.974C19.0793 15.2275 19.9178 13.8249 22.1368 13.0625L22.1865 13.0846C24.1802 12.3093 26.627 12.3256 28.2407 13.7216C28.6788 10.7495 31.3149 8.42139 34.2294 7.69204C37.1438 6.96269 41.7996 7.47051 44.5736 8.6241C46.4666 9.41113 48.2964 10.9079 50.4197 13.0621L50.4189 13.0604C50.4193 13.0612 50.4201 13.0621 50.421 13.0633C50.7031 13.3496 50.9898 13.6455 51.2828 13.9553C51.3075 13.9812 51.3292 14.0096 51.3534 14.0355C51.9683 14.4284 52.7294 14.6136 53.516 14.7022C54.7829 14.8443 55.5728 14.446 56.4334 13.5055C56.6951 13.2196 57.0236 12.8589 57.3935 12.9772C57.6263 13.0516 57.7584 13.2957 57.8349 13.5281C58.2432 14.7657 57.6969 16.1688 56.7636 17.0787C56.3118 17.5197 55.7818 17.8603 55.2155 18.1391C55.2155 18.1391 56.0602 19.1836 57.5147 19.4206C58.295 19.5477 59.0014 19.9991 59.4436 20.6544C59.6593 20.9738 59.8135 21.3491 59.8135 21.7696C59.8135 24.1754 57.4127 25.2721 55.0805 25.632Z" fill="#263238"/>
<path d="M56.6102 23.1343C56.6123 23.1368 56.5893 23.156 56.5425 23.1907C56.4857 23.2313 56.4163 23.2802 56.3323 23.3403C56.2403 23.4076 56.1233 23.4862 55.9758 23.5635C55.8307 23.6446 55.6652 23.7433 55.4646 23.8252C54.6847 24.1851 53.4358 24.537 51.8814 24.4279C50.3416 24.3234 48.4983 23.7566 46.8607 22.5086C45.2052 21.2894 43.7607 19.5047 42.5862 17.4667C41.9898 16.4485 41.5066 15.4057 40.9716 14.4418C40.4399 13.4772 39.8514 12.5844 39.1338 11.8776C38.4249 11.1662 37.5986 10.6375 36.7435 10.3888C36.3175 10.2567 35.8866 10.2233 35.4758 10.2283C35.0632 10.2455 34.672 10.3245 34.3109 10.4381C33.5878 10.6718 33.0027 11.063 32.5571 11.4672C32.1103 11.8751 31.8085 12.3077 31.6004 12.6793C31.2117 13.4429 31.1853 13.9357 31.1552 13.9269C31.1519 13.9265 31.1544 13.8972 31.1628 13.8396C31.1745 13.7702 31.1883 13.6866 31.205 13.5842C31.2484 13.361 31.3483 13.0379 31.5331 12.6442C31.7341 12.2605 32.033 11.8116 32.4831 11.3869C32.9316 10.9656 33.5255 10.556 34.2678 10.3069C34.6386 10.1853 35.0423 10.0996 35.4699 10.0779C35.8958 10.0678 36.3476 10.1004 36.7886 10.2333C37.6772 10.4837 38.5323 11.0258 39.2609 11.7497C39.9994 12.4703 40.6017 13.379 41.1396 14.3491C41.6813 15.32 42.1649 16.3599 42.7559 17.3689C43.922 19.3918 45.3452 21.1561 46.969 22.364C48.5765 23.6012 50.3758 24.1683 51.8926 24.2895C53.4211 24.4149 54.6546 24.0893 55.4349 23.755C56.2203 23.4156 56.5952 23.1105 56.6102 23.1343Z" fill="#455A64"/>
<path d="M57.4109 19.4695C57.4176 19.4812 57.3102 19.5535 57.1087 19.6747C56.9098 19.7997 56.6047 19.9531 56.2164 20.1152C55.8293 20.2808 55.3499 20.4342 54.8066 20.5608C54.2615 20.6774 53.6517 20.7618 53.0076 20.7786C52.3631 20.7882 51.7504 20.7292 51.2012 20.6352C50.6532 20.5307 50.168 20.3978 49.7738 20.2486C49.3797 20.1023 49.0683 19.9619 48.8643 19.8452C48.6583 19.7324 48.5479 19.6647 48.5542 19.653C48.5709 19.62 49.0294 19.8624 49.8186 20.1178C50.2119 20.2486 50.6925 20.3656 51.2313 20.458C51.7717 20.5403 52.3723 20.593 53.0039 20.5834C53.6346 20.5667 54.2327 20.4897 54.769 20.3848C55.3035 20.2703 55.7788 20.1332 56.1666 19.9869C56.9445 19.6985 57.3929 19.4373 57.4109 19.4695Z" fill="#455A64"/>
<path d="M25.475 23.8145C25.4967 23.8132 25.531 24.0025 25.5527 24.3515C25.5736 24.7005 25.5799 25.2105 25.5231 25.8433C25.4809 26.1655 25.48 26.4915 25.3492 26.897C25.2886 27.093 25.0641 27.335 24.7778 27.3149C24.5041 27.297 24.3122 27.1436 24.1429 27.0015C23.5114 26.4163 22.8264 25.7822 22.1029 25.1118L22.4029 24.938C22.4978 25.3321 22.5969 25.7438 22.6976 26.1634C22.9668 27.3145 23.2226 28.4087 23.4571 29.411L23.5841 29.9552L23.1799 29.5732C22.1058 28.5584 21.3681 27.5356 20.915 26.7841C20.4615 26.0301 20.273 25.5528 20.3023 25.5386C20.3867 25.4788 21.2682 27.3688 23.4077 29.327L23.1306 29.4892C22.887 28.489 22.6211 27.3973 22.3411 26.2487C22.2416 25.8286 22.1438 25.4165 22.0506 25.022L21.9097 24.4264L22.3511 24.8481C23.0621 25.5273 23.7354 26.1701 24.3561 26.7628C24.4991 26.8957 24.6596 27.0044 24.7912 27.0119C24.9208 27.0219 25.024 26.9367 25.0867 26.7883C25.1987 26.4878 25.2334 26.1124 25.2848 25.8153C25.4554 24.5798 25.4207 23.8157 25.475 23.8145Z" fill="#455A64"/>
<path d="M41.0969 44.8902C41.0004 44.8902 36.7287 43.2188 36.7287 43.2188C36.7287 43.2188 35.4907 45.6885 36.9883 46.8241C38.4859 47.9597 40.3049 47.2433 40.5949 46.5662C40.885 45.8891 41.0969 44.8902 41.0969 44.8902Z" fill="#FF9A6C"/>
<path d="M40.1353 47.0392C40.1119 47.0075 39.9326 47.165 39.5351 47.2294C39.1468 47.3021 38.5483 47.2917 37.8645 47.1308L37.8758 47.1337C37.4269 46.9602 36.9236 46.6927 36.6273 46.2037C36.3335 45.718 36.3063 45.0497 36.4697 44.4039C36.5638 44.0144 36.7101 43.6324 36.8835 43.3043L36.6662 43.382C37.9619 43.8698 39.1025 44.2827 39.9226 44.5636C40.743 44.8445 41.2433 44.9933 41.2588 44.9523C41.2743 44.9114 40.8028 44.6877 40.0049 44.3483C39.207 44.009 38.0827 43.5542 36.7928 43.0506L36.6482 42.9941L36.5751 43.1283C36.3732 43.4995 36.2223 43.8907 36.1174 44.3191C35.9402 45.015 35.9652 45.797 36.3343 46.3809C36.708 46.9661 37.2973 47.2428 37.7867 47.4058L37.7938 47.4083L37.798 47.4091C38.5387 47.5487 39.1598 47.514 39.5735 47.3865C39.994 47.2658 40.1524 47.0488 40.1353 47.0392Z" fill="#263238"/>
<path d="M48.43 35.9016C48.4267 36.5457 47.885 37.0736 47.2205 37.0819C46.5576 37.0899 46.0221 36.5762 46.0259 35.9317C46.0297 35.2876 46.5709 34.7589 47.2338 34.7501C47.8984 34.7421 48.4342 35.2575 48.43 35.9016Z" fill="#263238"/>
<path d="M49.1807 31.7722C49.0252 31.9248 48.1425 31.2038 46.848 31.1532C45.5565 31.0834 44.5793 31.7183 44.4456 31.5515C44.3795 31.478 44.5429 31.1971 44.9688 30.9095C45.3881 30.6232 46.0944 30.3566 46.9003 30.3942C47.7061 30.4326 48.3715 30.7612 48.7489 31.0855C49.1339 31.4111 49.2572 31.7041 49.1807 31.7722Z" fill="#263238"/>
<path d="M36.5262 35.3891C36.5225 36.0331 35.9808 36.561 35.3166 36.5694C34.6537 36.5777 34.1183 36.0637 34.1221 35.4196C34.1259 34.7755 34.6675 34.2468 35.3304 34.2384C35.9946 34.2296 36.53 34.745 36.5262 35.3891Z" fill="#263238"/>
<path d="M36.4796 31.5354C36.3237 31.688 35.4397 30.9674 34.1465 30.9164C32.855 30.847 31.8777 31.4815 31.7436 31.3151C31.678 31.2412 31.8397 30.9611 32.2673 30.6736C32.6865 30.3868 33.3929 30.1206 34.1987 30.1578C35.0046 30.1962 35.67 30.5252 36.0474 30.8487C36.4319 31.1743 36.5556 31.4673 36.4796 31.5354Z" fill="#263238"/>
<path d="M37.0669 27.4504C36.8775 27.7776 35.6362 27.3734 34.1093 27.2761C32.5837 27.1477 31.2981 27.3651 31.1576 27.0136C31.0966 26.8464 31.3666 26.5559 31.9158 26.3076C32.4605 26.0589 33.2893 25.8809 34.205 25.9478C35.1196 26.0163 35.9145 26.3143 36.4182 26.6403C36.9256 26.9668 37.1517 27.294 37.0669 27.4504Z" fill="#263238"/>
<path d="M49.397 27.9389C49.1203 28.2294 48.0742 27.8921 46.8069 27.8436C45.5417 27.7575 44.4613 27.9811 44.2222 27.6631C44.1181 27.5093 44.2945 27.2154 44.771 26.9458C45.2404 26.6771 46.0195 26.4685 46.8897 26.5141C47.7599 26.5609 48.5072 26.851 48.9406 27.1678C49.3803 27.4859 49.5195 27.7968 49.397 27.9389Z" fill="#263238"/>
<path d="M28.0597 86.6707C30.9286 89.4088 53.518 100.439 64.7567 99.7573C75.9954 99.076 90.1285 68.7659 90.1285 68.7659L79.4005 62.6356L76.6762 66.5519L61.0105 82.0476C61.0105 82.0476 44.3227 69.7874 40.747 67.5739C37.1713 65.3603 31.2111 58.5491 22.6972 65.8711C14.1828 73.1934 22.2035 81.0817 28.0597 86.6707Z" fill="#458F80"/>
<path d="M81.3752 60.7516C81.3752 60.7516 78.9438 58.8148 78.7788 57.6607C78.6141 56.5067 78.8611 55.3527 78.4904 54.6522C78.1196 53.9517 79.809 53.5806 80.6746 54.6522C81.5403 55.7239 82.2408 56.5067 82.2408 56.5067C82.2408 56.5067 83.1473 50.8195 83.5595 49.171C83.9716 47.5226 84.6311 43.4428 84.7958 42.0827C84.9605 40.7227 85.3726 38.7858 86.1559 38.7858C86.9387 38.7858 86.3619 38.7858 86.3619 38.7858C86.3619 38.7858 87.2685 38.8681 87.1038 39.6514C87.1038 39.6514 87.4745 35.8187 89.3291 35.9424C89.3291 35.9424 90.4831 35.9424 90.318 37.7969C90.1533 39.6514 89.8235 42.0418 89.8235 42.0418L91.0599 37.5499C91.0599 37.5499 91.1836 36.1489 92.4199 36.3549C93.6563 36.561 93.4916 37.6736 93.2441 39.5695C92.9967 41.4654 92.2139 45.8749 92.2139 45.8749C92.2139 45.8749 93.8623 40.1467 94.5219 39.7346C95.1814 39.3225 96.335 39.2811 95.9643 41.3831C95.5935 43.485 94.6456 48.0183 94.6456 48.0183C94.6456 48.0183 94.3982 55.2717 94.0688 56.8374C93.739 58.4035 89.0603 68.201 89.0603 68.201L80.7327 63.4421C80.7327 63.4421 82.2408 61.7409 82.117 61.6172C81.9933 61.4935 81.3752 60.7516 81.3752 60.7516Z" fill="#FFBF9D"/>
<path d="M82.1642 56.4711C82.2248 56.4883 82.1095 57.0404 82.0597 57.7275C82.0058 58.4143 82.0372 58.9773 81.9745 58.9852C81.9181 58.9948 81.7872 58.4243 81.8428 57.7108C81.8946 56.9978 82.1099 56.4532 82.1642 56.4711Z" fill="#FF9A6C"/>
<path d="M85.8304 47.4317C85.802 47.4296 85.8036 46.9581 85.8592 46.1982C85.9144 45.4384 86.0298 44.391 86.2241 43.2445C86.4197 42.0976 86.6567 41.0711 86.8557 40.3359C87.0546 39.6002 87.2088 39.1547 87.2364 39.1622C87.2669 39.1706 87.1654 39.6299 87.0053 40.3718C86.8452 41.1137 86.6329 42.1398 86.4385 43.2808C86.245 44.4215 86.1058 45.4601 86.0122 46.2133C85.9182 46.9665 85.8622 47.4338 85.8304 47.4317Z" fill="#FF9A6C"/>
<path d="M88.873 47.4325C88.8446 47.4305 88.8421 47.0526 88.8864 46.4441C88.9307 45.8359 89.0273 44.9971 89.1924 44.0809C89.3583 43.1643 89.5606 42.3446 89.732 41.7591C89.9033 41.1735 90.0375 40.8203 90.0647 40.8283C90.0947 40.837 90.0132 41.2048 89.8807 41.7971C89.7483 42.3898 89.571 43.2086 89.4059 44.1189C89.2421 45.0292 89.1217 45.8585 89.039 46.4599C88.9566 47.0614 88.9044 47.4346 88.873 47.4325Z" fill="#FF9A6C"/>
<path d="M91.8236 48.3988C91.7659 48.3942 91.791 47.5947 92.0042 46.6354C92.2144 45.6749 92.5279 44.9393 92.5818 44.9594C92.6407 44.9799 92.4234 45.7368 92.2165 46.6822C92.0067 47.6268 91.8859 48.4051 91.8236 48.3988Z" fill="#FF9A6C"/>
<path d="M62.8687 88.1068C62.8649 88.1076 62.8503 88.0633 62.8244 87.9764C62.7972 87.8773 62.7617 87.749 62.717 87.5868C62.6301 87.2282 62.5076 86.7229 62.3517 86.0788C62.1883 85.4272 61.9998 84.6214 61.6307 83.7445C61.4439 83.3085 61.2152 82.8521 60.8984 82.4191C60.5837 81.9819 60.1762 81.5915 59.6947 81.2316C57.7892 79.7596 55.4669 78.0764 52.8605 76.2466C50.2557 74.4142 47.3663 72.4335 44.3879 70.2763C42.897 69.2005 41.4404 68.1526 40.0089 67.178C38.5807 66.2028 37.1588 65.3155 35.8184 64.4624C35.1421 64.0486 34.4675 63.6649 33.7724 63.4C33.4213 63.2695 33.0777 63.1805 32.7112 63.1584C32.5306 63.1396 32.3513 63.1207 32.1737 63.1019C31.9952 63.0953 31.818 63.0886 31.6425 63.0819C30.2347 63.033 28.9265 63.2549 27.7687 63.5558C25.4486 64.1824 23.7228 65.137 22.5751 65.8262C21.9983 66.1719 21.564 66.4632 21.2715 66.663C21.1323 66.7566 21.0219 66.831 20.9367 66.8883C20.8606 66.938 20.8205 66.9623 20.818 66.9589C20.8159 66.956 20.8514 66.9259 20.9233 66.8703C21.0052 66.8085 21.1118 66.7282 21.246 66.6271C21.5306 66.4156 21.9586 66.1121 22.5304 65.7539C23.6685 65.0405 25.3909 64.0587 27.7286 63.4071C28.8947 63.0936 30.2176 62.8595 31.6462 62.9013C31.8247 62.9072 32.0044 62.913 32.1858 62.9189C32.3664 62.9368 32.5486 62.9548 32.7321 62.9732C33.0978 62.9924 33.4828 63.0882 33.8384 63.2202C34.5565 63.4907 35.2399 63.8773 35.9228 64.2915C37.2729 65.1441 38.6915 66.0244 40.1288 67.002C41.565 67.9763 43.0241 69.0241 44.515 70.1004C47.4913 72.2554 50.3761 74.2407 52.9759 76.0831C55.5773 77.923 57.8928 79.6208 59.7887 81.1104C60.2694 81.4753 60.6945 81.8891 61.01 82.3384C61.3302 82.7861 61.558 83.2538 61.7423 83.6981C62.1059 84.5921 62.2823 85.4038 62.4336 86.06C62.5724 86.7083 62.6815 87.2165 62.7592 87.5772C62.7952 87.7411 62.8236 87.871 62.8457 87.9714C62.8645 88.0595 62.8721 88.1055 62.8687 88.1068Z" fill="#263238"/>
<path d="M13.7744 149.889L15.1111 144.291H60.2707L62.3488 149.889H13.7744Z" fill="#263238"/>
<path d="M21.5606 59.12C20.4764 59.4816 8.91921 70.4302 9.40113 83.202C9.88304 95.9734 16.0276 135.131 16.0276 135.131C16.0276 135.131 10.7261 137.3 12.2926 142.24C13.8592 147.18 60.7529 145.592 60.7529 145.592C60.7529 145.592 61.2005 145.994 61.4028 142.222C61.6824 136.998 53.6195 86.2147 53.6195 86.2147C53.6195 86.2147 46.5905 72.0527 43.5849 65.4046L43.1285 61.683L22.8964 54.7891L21.5606 59.12Z" fill="#458F80"/>
<path opacity="0.3" d="M30.2759 88.1055C30.2759 88.1055 45.9321 101.342 56.1037 102.216L55.3476 97.2869L30.2759 88.1055Z" fill="black"/>
<path d="M26.3485 85.475C26.3527 85.4688 26.4543 85.5306 26.6432 85.6539C26.8472 85.7902 27.1201 85.9724 27.4628 86.201C27.8152 86.4435 28.2499 86.7348 28.7648 87.0579C29.2772 87.3843 29.8532 87.7672 30.5123 88.1555C31.1643 88.555 31.8816 88.9868 32.6669 89.4244C33.4422 89.8796 34.2945 90.323 35.1839 90.8029C36.9782 91.7328 38.9795 92.7009 41.1199 93.6283C43.2653 94.5466 45.3434 95.337 47.2498 96.0107C49.1611 96.669 50.8969 97.2216 52.3682 97.6391C53.1 97.8606 53.7705 98.0328 54.3564 98.1938C54.9416 98.3572 55.4486 98.4872 55.864 98.5896C56.2628 98.6932 56.5804 98.7756 56.8178 98.8374C57.0352 98.8964 57.1489 98.9311 57.1472 98.9382C57.1455 98.9457 57.0289 98.9252 56.8078 98.8801C56.5679 98.8282 56.2469 98.7588 55.844 98.6719C55.4252 98.582 54.9148 98.4642 54.3259 98.3116C53.7362 98.162 53.0624 97.9998 52.3264 97.7871C50.8472 97.3879 49.1034 96.8496 47.1841 96.2001C45.2703 95.5355 43.1846 94.7485 41.0338 93.8281C38.8879 92.8981 36.8842 91.9226 35.0903 90.9805C34.2013 90.4944 33.3503 90.0438 32.5771 89.5807C31.7938 89.1352 31.0795 88.6946 30.4312 88.2859C29.7763 87.8884 29.2049 87.4955 28.6979 87.159C28.1888 86.8259 27.76 86.5241 27.4148 86.2704C27.0812 86.0276 26.8158 85.8341 26.6177 85.6895C26.4371 85.5549 26.3443 85.4809 26.3485 85.475Z" fill="#263238"/>
<path d="M42.9812 61.6874C42.9896 61.6866 43.0113 61.8053 43.0464 62.031C43.087 62.2788 43.1405 62.6065 43.2078 63.0161C43.3562 63.8683 43.5961 65.0972 44.0178 66.5768L44.0654 66.7444L43.9049 66.6737C41.6304 65.676 38.5867 64.4113 35.1974 63.1887C31.4617 61.8337 28.018 60.7875 25.5119 60.0824C24.2739 59.7447 23.2637 59.4692 22.5364 59.2707C22.2016 59.18 21.9329 59.1073 21.7268 59.0513C21.5421 58.9986 21.4459 58.9677 21.448 58.9606C21.4497 58.9535 21.5492 58.9702 21.7373 59.0086C21.9462 59.0542 22.2183 59.114 22.5573 59.1884C23.2679 59.351 24.2927 59.6005 25.5529 59.934C28.0724 60.6019 31.5298 61.6268 35.2718 62.9843C38.6674 64.209 41.7085 65.4947 43.9727 66.5237L43.8598 66.6211C43.4548 65.1285 43.2383 63.8897 43.1171 63.0307C43.0569 62.6011 43.0205 62.2654 42.9992 62.0372C42.9791 61.8086 42.9733 61.6882 42.9812 61.6874Z" fill="#263238"/>
<path d="M19.6024 134.849C19.6108 134.909 18.7494 135.075 17.6794 135.222C16.609 135.367 15.7346 135.438 15.7266 135.378C15.7183 135.319 16.5793 135.152 17.6501 135.006C18.7201 134.86 19.5945 134.79 19.6024 134.849Z" fill="#263238"/>
</svg>
