<svg width="471" height="163" viewBox="0 0 471 163" fill="none" xmlns="http://www.w3.org/2000/svg">
<mask id="mask0_971_31116" style="mask-type:luminance" maskUnits="userSpaceOnUse" x="0" y="0" width="471" height="163">
<path d="M10 0H461C466.523 0 471 4.47714 471 9.99999V152.415C471 157.938 466.523 162.415 461 162.415H10C4.47714 162.415 0 157.938 0 152.415V10C0 4.47715 4.47714 0 10 0Z" fill="white"/>
</mask>
<g mask="url(#mask0_971_31116)">
<path d="M-155.807 595.566C-150.203 601.164 -142.605 604.309 -134.684 604.309C-126.763 604.309 -119.166 601.164 -113.562 595.566L395.63 86.3742C401.23 80.7709 404.375 73.1734 404.375 65.2517C404.375 57.33 401.23 49.7325 395.63 44.1293C390.027 38.5296 382.429 35.384 374.508 35.384C366.586 35.384 358.989 38.5296 353.385 44.1293L-155.807 553.321C-161.406 558.924 -164.552 566.522 -164.552 574.444C-164.552 582.365 -161.406 589.963 -155.807 595.566Z" fill="#EAB124"/>
<path d="M428.491 114.887C434.094 120.486 441.692 123.632 449.614 123.632C457.535 123.632 465.133 120.486 470.736 114.887L979.928 -394.305C985.526 -399.909 988.671 -407.506 988.671 -415.428C988.671 -423.349 985.526 -430.946 979.928 -436.55C974.324 -442.148 966.727 -445.293 958.805 -445.293C950.884 -445.293 943.287 -442.148 937.683 -436.55L428.491 72.6417C422.891 78.245 419.746 85.8425 419.746 93.7642C419.746 101.686 422.891 109.283 428.491 114.887Z" fill="#EAB124"/>
<path d="M102.142 120.347C113.814 108.675 132.736 108.674 144.407 120.345C156.077 132.015 156.076 150.938 144.405 162.609L-364.772 671.785C-376.443 683.457 -395.366 683.458 -407.036 671.787C-418.706 660.117 -418.706 641.195 -407.034 629.523L102.142 120.347Z" fill="#EAB124"/>
<path d="M241.887 249.721C291.883 249.721 332.528 209.042 332.528 159.064C332.528 109.085 291.883 68.4286 241.887 68.4286C191.892 68.4286 151.247 109.085 151.247 159.064C151.247 209.042 191.909 249.721 241.887 249.721ZM241.887 95.5892C254.447 95.5881 266.725 99.3118 277.168 106.289C287.611 113.267 295.751 123.184 300.557 134.788C305.363 146.392 306.62 159.16 304.169 171.479C301.718 183.797 295.668 195.111 286.786 203.991C277.904 212.871 266.588 218.917 254.269 221.365C241.95 223.813 229.182 222.553 217.579 217.744C205.977 212.934 196.061 204.792 189.087 194.347C182.112 183.902 178.392 171.623 178.396 159.064C178.415 142.231 185.111 126.093 197.014 114.19C208.916 102.287 225.054 95.5917 241.887 95.5723V95.5892Z" fill="url(#paint0_linear_971_31116)"/>
<path d="M211.641 226.802C212.383 227.545 213.265 228.135 214.236 228.537C215.207 228.94 216.248 229.147 217.299 229.147C218.349 229.147 219.39 228.94 220.361 228.537C221.332 228.135 222.214 227.545 222.957 226.802L359.301 90.4579C360.044 89.7151 360.634 88.8331 361.036 87.8623C361.438 86.8914 361.646 85.8508 361.646 84.7999C361.646 83.749 361.438 82.7084 361.036 81.7376C360.634 80.7667 360.044 79.8847 359.301 79.1419C358.558 78.3985 357.676 77.8088 356.705 77.4064C355.734 77.004 354.693 76.7969 353.643 76.7969C352.592 76.7969 351.551 77.004 350.58 77.4064C349.609 77.8088 348.727 78.3985 347.985 79.1419L211.641 215.486C210.897 216.229 210.307 217.111 209.905 218.082C209.503 219.052 209.296 220.093 209.296 221.144C209.296 222.195 209.503 223.235 209.905 224.206C210.307 225.177 210.897 226.059 211.641 226.802Z" fill="url(#paint1_linear_971_31116)"/>
<path d="M374.142 72.2981C369.721 72.2981 366.138 68.7146 366.138 64.2941C366.138 59.8736 369.721 56.2901 374.142 56.2901C378.562 56.2901 382.146 59.8736 382.146 64.2941C382.146 68.7146 378.562 72.2981 374.142 72.2981Z" fill="url(#paint2_linear_971_31116)"/>
<path d="M524.511 208.8H335.862L524.511 20.1567V208.8Z" fill="url(#paint3_linear_971_31116)"/>
<path d="M170.269 186.709C148.717 186.709 131.246 169.237 131.246 147.686C131.246 126.134 148.717 108.663 170.269 108.663C191.82 108.663 209.292 126.134 209.292 147.686C209.292 169.237 191.82 186.709 170.269 186.709Z" fill="url(#paint4_linear_971_31116)"/>
<path d="M442.138 78.2409L407.686 43.7889L442.138 9.33691L476.59 43.7889L442.138 78.2409Z" fill="url(#paint5_linear_971_31116)"/>
<path d="M457.877 59.5287L426.39 59.5287V28.0422L457.877 28.0422V59.5287Z" fill="url(#paint6_linear_971_31116)"/>
<path d="M442.138 147.253L407.686 112.801L442.138 78.3494L476.589 112.801L442.138 147.253Z" fill="url(#paint7_linear_971_31116)"/>
<path d="M442.138 135.066L419.873 112.801L442.138 90.5371L464.402 112.801L442.138 135.066Z" fill="url(#paint8_linear_971_31116)"/>
<path d="M324.625 152.141H360.471V116.295L387.243 89.5227V178.913H297.853L324.625 152.141Z" fill="url(#paint9_linear_971_31116)"/>
<g style="mix-blend-mode:overlay">
<path d="M356.181 209.977C338.001 191.797 338.001 162.32 356.181 144.14C374.362 125.96 403.838 125.96 422.018 144.14C440.199 162.32 440.199 191.797 422.018 209.977C403.838 228.158 374.362 228.158 356.181 209.977Z" fill="white"/>
</g>
<path d="M59.2801 209.122L14.0504 163.893L59.2801 118.663L104.51 163.893L59.2801 209.122Z" fill="url(#paint10_linear_971_31116)"/>
<path d="M59.28 193.125L30.0535 163.898L59.28 134.672L88.5064 163.898L59.28 193.125Z" fill="url(#paint11_linear_971_31116)"/>
<g style="mix-blend-mode:overlay">
<path d="M106.827 210.461C87.9359 191.57 87.9359 160.942 106.827 142.051C125.718 123.16 156.346 123.16 175.237 142.051C194.128 160.942 194.128 191.57 175.237 210.461C156.346 229.352 125.718 229.352 106.827 210.461Z" stroke="white" stroke-width="2" stroke-miterlimit="10"/>
<path d="M103.552 182.101C100.325 161.399 114.491 142.001 135.192 138.774C155.894 135.547 175.292 149.713 178.519 170.415C181.746 191.116 167.58 210.514 146.878 213.741C126.177 216.968 106.779 202.802 103.552 182.101Z" stroke="white" stroke-width="2" stroke-miterlimit="10"/>
<path d="M114.947 182.273C111.617 167.861 120.601 153.478 135.014 150.148C149.426 146.818 163.809 155.802 167.139 170.214C170.469 184.626 161.485 199.009 147.073 202.339C132.66 205.669 118.277 196.685 114.947 182.273Z" stroke="white" stroke-width="2" stroke-miterlimit="10"/>
<path d="M125.597 179.846C123.609 171.317 128.911 162.792 137.44 160.805C145.968 158.817 154.493 164.119 156.481 172.647C158.469 181.176 153.167 189.701 144.638 191.689C136.11 193.676 127.585 188.374 125.597 179.846Z" stroke="white" stroke-width="2" stroke-miterlimit="10"/>
<path d="M453.078 130.438C428.281 105.641 428.281 65.4371 453.078 40.64C477.875 15.8429 518.079 15.8429 542.876 40.64C567.673 65.4371 567.673 105.641 542.876 130.438C518.079 155.235 477.875 155.235 453.078 130.438Z" stroke="white" stroke-width="2" stroke-miterlimit="10"/>
<path d="M497.981 135.344C470.475 135.344 448.177 113.046 448.177 85.5401C448.177 58.0342 470.475 35.7362 497.981 35.7362C525.487 35.7362 547.785 58.0342 547.785 85.5401C547.785 113.046 525.487 135.344 497.981 135.344Z" stroke="white" stroke-width="2" stroke-miterlimit="10"/>
<path d="M497.981 120.699C478.563 120.699 462.822 104.958 462.822 85.5402C462.822 66.1224 478.563 50.3812 497.981 50.3812C517.399 50.3812 533.14 66.1224 533.14 85.5402C533.14 104.958 517.399 120.699 497.981 120.699Z" stroke="white" stroke-width="2" stroke-miterlimit="10"/>
</g>
</g>
<defs>
<linearGradient id="paint0_linear_971_31116" x1="241.887" y1="249.704" x2="241.887" y2="68.4286" gradientUnits="userSpaceOnUse">
<stop stop-color="#4F4DF9"/>
<stop offset="1" stop-color="#757CF9"/>
</linearGradient>
<linearGradient id="paint1_linear_971_31116" x1="209.297" y1="152.969" x2="361.644" y2="152.969" gradientUnits="userSpaceOnUse">
<stop stop-color="#2181E9"/>
<stop offset="0.27" stop-color="#218BED"/>
<stop offset="0.73" stop-color="#21A6F8"/>
<stop offset="1" stop-color="#21B9FF"/>
</linearGradient>
<linearGradient id="paint2_linear_971_31116" x1="366.143" y1="64.2941" x2="382.146" y2="64.2941" gradientUnits="userSpaceOnUse">
<stop stop-color="#2181E9"/>
<stop offset="0.27" stop-color="#218BED"/>
<stop offset="0.73" stop-color="#21A6F8"/>
<stop offset="1" stop-color="#21B9FF"/>
</linearGradient>
<linearGradient id="paint3_linear_971_31116" x1="430.187" y1="208.8" x2="430.187" y2="20.151" gradientUnits="userSpaceOnUse">
<stop stop-color="#E63B34"/>
<stop offset="0.29" stop-color="#EE4E38"/>
<stop offset="0.72" stop-color="#F8633C"/>
<stop offset="1" stop-color="#FB6B3D"/>
</linearGradient>
<linearGradient id="paint4_linear_971_31116" x1="170.269" y1="186.709" x2="170.269" y2="108.663" gradientUnits="userSpaceOnUse">
<stop stop-color="#E63B34"/>
<stop offset="0.29" stop-color="#EE4E38"/>
<stop offset="0.72" stop-color="#F8633C"/>
<stop offset="1" stop-color="#FB6B3D"/>
</linearGradient>
<linearGradient id="paint5_linear_971_31116" x1="442.137" y1="9.33779" x2="442.137" y2="78.242" gradientUnits="userSpaceOnUse">
<stop stop-color="#00EAAA"/>
<stop offset="1" stop-color="#00ABC4"/>
</linearGradient>
<linearGradient id="paint6_linear_971_31116" x1="442.133" y1="59.5287" x2="442.133" y2="28.0479" gradientUnits="userSpaceOnUse">
<stop stop-color="#4F4DF9"/>
<stop offset="1" stop-color="#757CF9"/>
</linearGradient>
<linearGradient id="paint7_linear_971_31116" x1="442.14" y1="147.254" x2="442.14" y2="78.3501" gradientUnits="userSpaceOnUse">
<stop stop-color="#2181E9"/>
<stop offset="0.27" stop-color="#218BED"/>
<stop offset="0.73" stop-color="#21A6F8"/>
<stop offset="1" stop-color="#21B9FF"/>
</linearGradient>
<linearGradient id="paint8_linear_971_31116" x1="442.145" y1="90.545" x2="442.145" y2="135.074" gradientUnits="userSpaceOnUse">
<stop stop-color="#00EAAA"/>
<stop offset="1" stop-color="#00ABC4"/>
</linearGradient>
<linearGradient id="paint9_linear_971_31116" x1="342.548" y1="89.5227" x2="342.548" y2="178.913" gradientUnits="userSpaceOnUse">
<stop stop-color="#00EAAA"/>
<stop offset="1" stop-color="#00ABC4"/>
</linearGradient>
<linearGradient id="paint10_linear_971_31116" x1="59.2863" y1="209.124" x2="59.2863" y2="118.658" gradientUnits="userSpaceOnUse">
<stop stop-color="#4F4DF9"/>
<stop offset="1" stop-color="#757CF9"/>
</linearGradient>
<linearGradient id="paint11_linear_971_31116" x1="59.2839" y1="134.676" x2="59.28" y2="193.133" gradientUnits="userSpaceOnUse">
<stop stop-color="#00EAAA"/>
<stop offset="1" stop-color="#00ABC4"/>
</linearGradient>
</defs>
</svg>
