<svg width="133" height="131" viewBox="0 0 133 131" fill="none" xmlns="http://www.w3.org/2000/svg">
<mask id="mask0_1707_20572" style="mask-type:alpha" maskUnits="userSpaceOnUse" x="16" y="0" width="117" height="131">
<rect x="16.2622" y="0.404297" width="116.458" height="130" fill="#D9D9D9"/>
</mask>
<g mask="url(#mask0_1707_20572)">
<path d="M95.3664 20.5772L95.7327 50.0499C95.795 55.0617 94.8626 62.4372 86.934 62.1738C80.0717 61.427 78.2518 54.931 78.1983 50.2537C78.1732 48.0349 78.1475 46.1851 78.1299 45.957C78.1299 45.957 70.6183 45.3442 69.9846 37.9247C69.6778 34.3396 69.6481 26.9032 69.6995 20.1757C69.7544 12.9505 75.3572 6.98201 82.5634 6.45591L83.2798 6.40377C91.0378 6.29138 95.4686 12.8185 95.3664 20.5772Z" fill="#FFBE9D"/>
<path d="M78.1309 45.9398C78.1309 45.9398 82.8318 45.8721 87.5911 42.375C87.5911 42.375 85.6282 47.9711 78.1701 47.8438L78.1309 45.9398Z" fill="#EB996E"/>
<path d="M82.3861 23.2287C82.5337 23.379 83.3902 22.689 84.6334 22.6558C85.8744 22.6037 86.8047 23.232 86.9347 23.0723C86.9991 23.0012 86.8454 22.7269 86.4405 22.4419C86.0417 22.1582 85.3666 21.8914 84.5927 21.9178C83.8188 21.9449 83.1756 22.2564 82.8093 22.5665C82.4355 22.8786 82.3137 23.1616 82.3861 23.2287Z" fill="#263238"/>
<path d="M83.6481 25.5594C83.6684 26.0909 84.1343 26.5114 84.6895 26.5005C85.2433 26.4897 85.6773 26.0516 85.657 25.5208C85.6374 24.99 85.1709 24.5681 84.617 24.5783C84.0625 24.5891 83.6285 25.0286 83.6481 25.5594Z" fill="#263238"/>
<path d="M79.2661 31.8467C79.2668 31.7817 78.5484 31.7106 77.3886 31.6476C77.0947 31.6388 76.8151 31.6009 76.7515 31.4059C76.6675 31.2008 76.7663 30.8771 76.8828 30.5284C77.1056 29.8033 77.3378 29.0429 77.5829 28.2467C78.5491 25 79.2255 22.3391 79.0942 22.3012C78.9628 22.2633 78.0738 24.8646 77.1076 28.1112C76.876 28.9116 76.6553 29.6739 76.4447 30.4038C76.3587 30.7431 76.1969 31.1324 76.377 31.5589C76.4711 31.7709 76.6966 31.9131 76.8869 31.9496C77.0778 31.993 77.2423 31.9842 77.3872 31.9821C78.5484 31.9591 79.2668 31.9117 79.2661 31.8467Z" fill="#263238"/>
<path d="M82.9096 17.9185C83.0294 18.1941 84.0248 17.9869 85.2164 18.0478C86.4094 18.0837 87.3878 18.3721 87.526 18.1067C87.5869 17.9801 87.4014 17.7262 86.9965 17.4804C86.595 17.2346 85.9666 17.0193 85.2516 16.9895C84.5366 16.9611 83.8961 17.125 83.4797 17.3376C83.0592 17.5488 82.8568 17.7871 82.9096 17.9185Z" fill="#263238"/>
<path d="M71.1059 20.8218C71.2365 21.0466 72.2061 20.7974 73.3815 20.7609C74.557 20.7033 75.5326 20.8753 75.6565 20.6404C75.7107 20.5286 75.5171 20.3269 75.1074 20.1481C74.7012 19.9694 74.0735 19.8333 73.3687 19.861C72.6638 19.8901 72.0409 20.0763 71.6401 20.2869C71.2365 20.4975 71.0483 20.7142 71.1059 20.8218Z" fill="#263238"/>
<path d="M95.1641 26.1134C95.2866 26.049 100.156 24.2317 100.365 29.32C100.573 34.409 95.4214 33.568 95.4065 33.4231C95.3916 33.2776 95.1641 26.1134 95.1641 26.1134Z" fill="#FFBE9D"/>
<path d="M96.8827 31.4269C96.9044 31.41 96.9742 31.4852 97.1265 31.5481C97.2755 31.6091 97.5287 31.645 97.79 31.5346C98.3195 31.3152 98.7373 30.4431 98.7244 29.525C98.7183 29.0612 98.6032 28.6245 98.4245 28.2663C98.2538 27.9 98.0026 27.6502 97.7298 27.6129C97.4583 27.5615 97.2727 27.7314 97.2165 27.877C97.1543 28.0219 97.1908 28.1221 97.1637 28.1323C97.1502 28.1458 97.0507 28.0517 97.0838 27.8398C97.1008 27.7382 97.1556 27.6156 97.2707 27.5127C97.3885 27.4085 97.5666 27.3502 97.7555 27.3631C98.1489 27.3739 98.5172 27.7206 98.7136 28.114C98.9323 28.5087 99.0724 28.9989 99.0792 29.5196C99.0887 30.5467 98.6025 31.5272 97.876 31.7702C97.5219 31.8786 97.2193 31.7824 97.0595 31.6687C96.897 31.5495 96.8651 31.4371 96.8827 31.4269Z" fill="#EB996E"/>
<path d="M80.4695 35.3703C80.414 35.2417 81.4107 34.9431 82.1121 34.0081C82.4622 33.5476 82.6646 33.0459 82.8163 32.6789C82.9646 32.3093 83.077 32.0777 83.1318 32.0946C83.1833 32.1109 83.1711 32.3607 83.0891 32.7629C83.0038 33.1603 82.8305 33.7284 82.4344 34.2511C82.0437 34.7793 81.5197 35.0948 81.1344 35.2464C80.7458 35.4042 80.483 35.4144 80.4695 35.3703Z" fill="#263238"/>
<path d="M59.8453 13.4936C59.9259 13.195 60.1433 12.9493 60.41 12.7922C60.991 12.4489 61.6599 12.4949 62.3066 12.4848C64.2755 12.453 66.2296 11.8524 67.8864 10.7887C68.6623 9.67015 69.5351 8.61931 70.483 7.64228C72.7323 5.32327 74.5828 3.74499 76.4962 2.97447C78.9723 1.9778 83.1126 1.57358 85.6944 2.25134C88.2761 2.92843 90.5944 5.02264 90.9533 7.66801C92.4009 6.44384 94.5743 6.454 96.3374 7.1629L96.3814 7.14395C98.345 7.84405 99.4608 9.91863 100.04 11.9208C100.62 13.9236 100.867 16.0645 101.927 17.8595C102.149 18.2346 102.412 18.6842 102.219 19.0748C102.069 19.3768 101.685 19.5014 101.352 19.4526C101.018 19.4039 100.723 19.219 100.438 19.0389C100.657 19.563 100.876 20.0878 101.095 20.6125C100.385 20.7364 99.649 20.6788 98.9591 20.4696C98.542 22.3424 98.0444 24.4813 97.5623 25.7502C96.741 25.7482 95.9901 25.8064 95.4836 26.2614C94.7957 26.8796 94.4883 28.0435 93.3454 27.6013C92.7638 27.3766 92.233 26.1564 92.038 25.564C90.7461 21.6315 90.3175 17.4194 90.784 13.3068C89.9708 12.4394 88.9891 11.7312 87.9098 11.2322L87.9978 11.3114C85.9239 10.591 83.5792 9.88275 81.6115 10.8564C80.0854 11.6113 79.1883 13.195 78.0474 14.4585C75.8848 16.8533 72.9686 18.1547 69.745 18.2935C69.6353 20.383 69.8107 23.3357 69.701 25.4245L67.9433 22.0777L67.9419 22.0946C67.7977 21.8495 67.6792 21.6024 67.5641 21.3553L67.5248 21.2801V21.2706C67.342 20.8732 67.168 20.475 66.9371 20.0823C66.9303 20.0884 66.9236 20.0945 66.9168 20.0999C65.7847 21.0986 64.1171 19.5718 65.0095 18.3544C65.1862 18.1134 65.3981 17.8981 65.6405 17.72C65.1232 18.2061 64.352 18.4384 63.6736 18.2298C62.9951 18.0213 62.4691 17.3347 62.528 16.6279C62.5679 16.1451 62.9132 15.7138 63.3493 15.5229C62.4352 15.5933 61.5001 15.3942 60.7025 14.9399C60.1812 14.6413 59.668 14.1511 59.8453 13.4936Z" fill="#263238"/>
<path d="M88.6172 8.52148C88.6023 8.54044 88.928 8.71784 89.3613 9.20263C89.7906 9.68471 90.2727 10.5243 90.5008 11.6665C90.6173 12.2346 90.6911 12.8697 90.6904 13.5529C90.6938 14.2367 90.6383 14.968 90.5862 15.7399C90.536 16.5111 90.4812 17.3263 90.5306 18.1733C90.5557 18.5965 90.6065 19.0271 90.6979 19.4571C90.7913 19.8796 90.9023 20.3386 91.2212 20.7022C91.4758 20.9988 91.9004 21.1301 92.2687 21.0543C92.6397 20.9886 92.9695 20.7909 93.2112 20.5221C93.6885 19.9649 93.8077 19.258 93.9262 18.6351L93.7705 18.654C94.0251 19.214 94.2864 19.7672 94.6737 20.2086C95.0542 20.6528 95.5817 20.9466 96.1172 20.9947C96.384 21.0184 96.6535 20.9758 96.8823 20.8607C97.1159 20.7469 97.2859 20.5533 97.4024 20.3488C97.5134 20.1402 97.5716 19.9114 97.5601 19.6906C97.5472 19.4706 97.4612 19.2614 97.3218 19.1131L97.2432 19.1835C97.8154 19.8355 98.42 20.1856 98.8378 20.3799C99.0483 20.4774 99.2176 20.535 99.332 20.5722C99.4471 20.6061 99.5074 20.621 99.5094 20.6162C99.5108 20.6115 99.4532 20.5878 99.3422 20.5451C99.2318 20.4998 99.068 20.4334 98.8628 20.3298C98.4572 20.1226 97.8722 19.7631 97.3238 19.1158L97.2453 19.1862C97.4951 19.451 97.5093 19.9154 97.2947 20.2892C97.1864 20.4734 97.0306 20.646 96.8248 20.7422C96.6203 20.8424 96.3752 20.8796 96.1315 20.8552C95.6392 20.8065 95.1477 20.5309 94.7915 20.1077C94.4266 19.6859 94.1733 19.147 93.9221 18.5863L93.8152 18.3487L93.7664 18.6053C93.6479 19.2275 93.5206 19.906 93.0853 20.4084C92.8686 20.6494 92.5666 20.8281 92.2416 20.8843C91.9166 20.9473 91.5733 20.8403 91.3512 20.5858C91.0723 20.2709 90.9585 19.8369 90.8678 19.4205C90.7778 19.0007 90.727 18.5789 90.7013 18.1631C90.6505 17.3297 90.7013 16.5205 90.7466 15.75C90.7947 14.9788 90.8441 14.2435 90.8353 13.5515C90.8292 12.8596 90.748 12.2156 90.6214 11.6408C90.3749 10.4837 89.8651 9.63393 89.4128 9.15726C88.9551 8.67789 88.6172 8.52148 88.6172 8.52148Z" fill="#455A64"/>
<path d="M65.6574 15.7431C65.6553 15.7458 65.6756 15.7627 65.7169 15.7938C65.7671 15.8304 65.828 15.8751 65.9025 15.9292C65.9837 15.9902 66.0866 16.0606 66.2166 16.131C66.3446 16.2048 66.4909 16.2942 66.6683 16.3687C67.3575 16.6964 68.4632 17.0214 69.8451 16.9401C71.2142 16.8629 72.8575 16.3782 74.3247 15.286C75.8075 14.2196 77.1089 12.6495 78.1726 10.8504C78.7122 9.95196 79.1523 9.03045 79.6371 8.17935C80.1192 7.32826 80.6507 6.54081 81.2953 5.91993C81.9324 5.29566 82.6718 4.83389 83.4335 4.62196C83.8134 4.50889 84.1959 4.48383 84.5615 4.49196C84.9278 4.51159 85.2745 4.58539 85.5941 4.69034C86.2339 4.90498 86.7499 5.25841 87.1412 5.62201C87.5339 5.98899 87.798 6.37628 87.9788 6.70873C88.3166 7.39055 88.3349 7.82862 88.362 7.82185C88.3647 7.82185 88.3627 7.79545 88.3559 7.74399C88.3464 7.68237 88.3349 7.6079 88.3207 7.51649C88.2841 7.31743 88.1988 7.02967 88.039 6.67826C87.8643 6.33498 87.6037 5.93415 87.2083 5.55159C86.8142 5.1731 86.2901 4.80274 85.634 4.57456C85.3056 4.46284 84.9481 4.38227 84.569 4.35857C84.1912 4.34571 83.789 4.37008 83.3956 4.48383C82.6041 4.69711 81.839 5.16972 81.1842 5.8055C80.5214 6.43857 79.977 7.23888 79.4895 8.09539C78.9986 8.95258 78.5578 9.87139 78.0229 10.7618C76.9667 12.5465 75.6843 14.0998 74.2299 15.1567C72.7898 16.2394 71.1851 16.7248 69.837 16.8176C68.4781 16.9131 67.386 16.6117 66.696 16.3071C66.0013 15.997 65.6709 15.7221 65.6574 15.7431Z" fill="#455A64"/>
<path d="M64.9827 12.4828C64.9766 12.4929 65.0714 12.5586 65.2488 12.6683C65.4242 12.7814 65.6936 12.9209 66.0369 13.0685C66.3788 13.2195 66.804 13.3603 67.2848 13.4781C67.7675 13.5871 68.3085 13.6684 68.8807 13.69C69.4528 13.7049 69.9979 13.6589 70.4874 13.581C70.9749 13.4944 71.4075 13.3806 71.7589 13.252C72.111 13.126 72.3886 13.0041 72.5714 12.9026C72.7556 12.8044 72.8545 12.7455 72.849 12.7347C72.8348 12.7056 72.4245 12.9161 71.721 13.1348C71.3703 13.2472 70.9424 13.3461 70.4623 13.4226C69.9816 13.4903 69.4474 13.5309 68.8868 13.516C68.3261 13.495 67.7967 13.4206 67.3207 13.3217C66.8467 13.2147 66.4262 13.0881 66.0836 12.954C65.3944 12.6913 64.9989 12.4544 64.9827 12.4828Z" fill="#455A64"/>
<path d="M71.0507 23.6583C71.1983 23.8087 72.0548 23.1187 73.2979 23.0855C74.539 23.0341 75.4693 23.6617 75.5993 23.5019C75.6636 23.4308 75.5099 23.1566 75.105 22.8716C74.7062 22.5879 74.0312 22.3211 73.2573 22.3475C72.4834 22.3753 71.8401 22.6861 71.4738 22.9962C71.1001 23.309 70.9782 23.592 71.0507 23.6583Z" fill="#263238"/>
<path d="M72.8464 25.756C72.8667 26.2868 73.3325 26.708 73.8877 26.6972C74.4416 26.6863 74.8756 26.2483 74.8553 25.7174C74.8357 25.1866 74.3691 24.7648 73.8153 24.7756C73.2601 24.7864 72.8261 25.2252 72.8464 25.756Z" fill="#263238"/>
<path d="M60.8472 133.118C60.8648 134.027 64.387 259.436 64.387 259.436H83.2234L87.0395 152.157C87.0395 152.157 91.4953 208.248 91.4953 209.46C91.4953 210.671 95.4272 260.039 95.4272 260.039L112.891 258.614L111.746 145.666L109.612 129.105L60.8472 133.118Z" fill="#263238"/>
<path d="M52.586 84.4805L52.2725 99.1055C52.2725 99.1055 46.6731 102.086 45.2275 102.267C43.7826 102.448 35.5845 101.414 35.5845 101.414L36.0151 110.304C36.0151 110.304 49.0205 113.466 53.085 113.556C57.1496 113.646 58.9418 113.466 59.671 112.563C60.4002 111.659 63.0883 110.503 63.7769 106.43C64.4648 102.357 62.422 84.4805 62.422 84.4805H52.586Z" fill="#FFBE9D"/>
<path d="M59.5437 105.974C59.4422 106.024 58.8599 103.897 57.0182 102.026C55.2056 100.126 53.0986 99.4777 53.1514 99.3775C53.1615 99.3422 53.6944 99.4486 54.4906 99.8128C55.2849 100.173 56.3235 100.831 57.2592 101.793C58.1909 102.757 58.8158 103.816 59.151 104.621C59.4889 105.429 59.5789 105.965 59.5437 105.974Z" fill="#EB996E"/>
<path d="M36.6063 102.269C36.6063 102.269 34.915 98.6927 32.162 97.5715C29.4089 96.4502 25.84 96.7556 24.5143 95.9912C23.1886 95.2267 19.4673 94.4616 19.1105 95.7366C18.7537 97.0108 21.0991 97.866 23.4946 98.6623C25.8908 99.4578 26.8597 99.8153 26.6559 100.835C26.4521 101.855 23.4946 103.894 22.6279 104.149C21.7613 104.404 19.0888 104.755 19.0739 105.982C19.059 107.208 19.8749 107.055 21.2514 107.055C22.6279 107.055 25.4832 106.494 25.4832 106.494C25.4832 106.494 26.1969 106.659 25.84 107.061C25.4832 107.462 23.8514 108.941 24.8203 109.961C25.7893 110.98 27.2165 110.726 27.2165 110.726L29.1537 110.369C29.1537 110.369 30.2241 112.255 31.0908 111.49C31.9575 110.726 31.3454 111.673 31.3454 111.673C31.3454 111.673 32.3143 113.377 33.334 113.275C34.3537 113.173 38.0506 111.07 38.0506 111.07L40.2673 108.279L36.6063 102.269Z" fill="#FFBE9D"/>
<path d="M27.539 109.106C27.493 109.084 27.7035 108.678 28.187 108.173C28.4165 107.914 28.7029 107.622 28.8817 107.233C29.0645 106.855 29.1389 106.347 28.8492 105.995C28.56 105.641 28.057 105.537 27.6575 105.634C27.2451 105.724 26.91 105.954 26.6588 106.171C26.1598 106.624 25.8957 106.978 25.8517 106.942C25.8246 106.921 26.0088 106.528 26.4956 105.999C26.7448 105.745 27.0989 105.461 27.5864 105.333C28.0617 105.2 28.7124 105.299 29.1098 105.784C29.3089 106.024 29.3847 106.337 29.3712 106.616C29.3576 106.898 29.2703 107.15 29.1586 107.368C28.9324 107.811 28.604 108.102 28.3556 108.339C27.8335 108.798 27.5776 109.125 27.539 109.106Z" fill="#EB996E"/>
<path d="M31.6254 110.172C31.5787 110.144 32.1251 109.268 32.9294 107.821C33.3249 107.095 33.7765 106.218 34.1462 105.196C34.3127 104.689 34.5423 104.127 34.5409 103.59C34.5341 103.328 34.4366 103.058 34.2491 102.897C34.0656 102.736 33.7826 102.706 33.5192 102.788C32.9789 102.949 32.6661 103.513 32.3742 104.021C32.075 104.536 31.7852 105.034 31.5076 105.511C30.9598 106.439 30.4594 107.286 30.0234 108.025C29.5867 108.735 29.2495 109.307 29.1818 109.758C29.1012 110.203 29.2285 110.449 29.1947 110.458C29.1865 110.461 29.1466 110.408 29.106 110.288C29.064 110.169 29.0294 109.98 29.0531 109.74C29.0843 109.25 29.4134 108.622 29.8182 107.907C30.236 107.158 30.7154 106.299 31.2401 105.358C31.5123 104.877 31.796 104.376 32.0899 103.858C32.3797 103.364 32.7006 102.7 33.4217 102.469C33.7568 102.361 34.1773 102.392 34.4664 102.645C34.7501 102.895 34.8612 103.253 34.8693 103.582C34.8578 104.25 34.6127 104.778 34.436 105.304C34.0405 106.344 33.5605 107.222 33.1353 107.94C32.708 108.657 32.3316 109.216 32.0675 109.598C31.8021 109.98 31.6443 110.184 31.6254 110.172Z" fill="#EB996E"/>
<path d="M34.783 111.665C34.762 111.655 34.8527 111.426 35.0335 111.022C35.2143 110.617 35.4858 110.036 35.8277 109.322C36.1846 108.585 36.5922 107.744 37.0384 106.822C37.2489 106.357 37.4439 105.847 37.4141 105.321C37.402 105.058 37.3241 104.811 37.1656 104.608C37.0092 104.408 36.7811 104.285 36.5522 104.341C36.081 104.461 35.7844 105.071 35.4499 105.507C35.1303 105.975 34.8216 106.427 34.525 106.861C33.9637 107.717 33.4505 108.499 33.0016 109.184C32.5994 109.797 32.2568 110.32 31.9738 110.752C31.726 111.119 31.5797 111.317 31.5594 111.305C31.5398 111.292 31.6481 111.072 31.862 110.684C32.076 110.296 32.3949 109.739 32.7998 109.058C33.2054 108.377 33.6976 107.571 34.2664 106.69C34.5508 106.249 34.8561 105.79 35.1791 105.32C35.3436 105.083 35.5 104.849 35.6855 104.602C35.8731 104.367 36.108 104.098 36.4811 104.012C36.8583 103.92 37.2347 104.138 37.4277 104.401C37.6349 104.663 37.731 104.998 37.7418 105.302C37.7696 105.926 37.5414 106.475 37.318 106.952C36.8454 107.895 36.4073 108.724 36.0397 109.427C35.6707 110.128 35.3666 110.692 35.15 111.078C34.9333 111.467 34.8033 111.676 34.783 111.665Z" fill="#EB996E"/>
<path d="M23.783 96.2637C23.8669 96.2265 24.068 96.7106 23.8263 97.2597C23.5886 97.8102 23.0971 97.9917 23.0673 97.9057C23.0199 97.8224 23.3354 97.5644 23.5196 97.1257C23.7153 96.6923 23.6902 96.2854 23.783 96.2637Z" fill="#EB996E"/>
<path d="M38.5109 110.267C38.4669 110.224 38.9199 109.878 39.2415 109.079C39.3986 108.683 39.5157 108.18 39.513 107.619C39.513 107.058 39.383 106.441 39.1393 105.835C38.643 104.616 37.8271 103.696 37.2502 103.043C36.6605 102.392 36.2874 101.99 36.3226 101.955C36.3531 101.925 36.781 102.264 37.4215 102.879C38.0471 103.497 38.9226 104.418 39.4507 105.71C39.7094 106.352 39.8401 107.016 39.8225 107.623C39.8069 108.23 39.6559 108.764 39.4589 109.175C39.0519 110.007 38.5204 110.297 38.5109 110.267Z" fill="#EB996E"/>
<path d="M70.2109 53.968L78.7672 50.6124L94.5291 49.7207L101.937 52.5374L91.7855 58.1748L83.0329 57.8538L70.2109 53.968Z" fill="#FFBE9D"/>
<path d="M124.456 77.0363C124.456 77.0363 120.639 65.3444 117.1 58.5918C115.76 56.0352 113.355 54.2071 110.546 53.5462C106.461 52.5854 99.9214 50.9882 95.9828 49.7207C95.9828 49.7207 91.8377 54.0412 83.9558 53.924C76.2499 53.8096 74.6405 52.0729 74.6405 52.0729L63.8674 56.2031C63.8674 56.2031 56.2076 58.9493 54.8893 62.3395C53.6062 65.6389 51.2554 84.4815 51.2554 84.4815H62.4218L62.2106 117.767L60.1191 134.488C60.8936 134.622 112.537 136.815 112.537 136.815L110.723 90.3796L110.574 81.262L124.456 77.0363Z" fill="#1D3B64"/>
<path opacity="0.2" d="M92.5894 72.5152L94.1907 84.2213L101.937 87.6805L107.664 82.8008V71.9336L92.5894 72.5152Z" fill="black"/>
<path d="M107.461 75.8362C107.461 75.9337 104.241 76.0122 100.271 76.0122C96.2991 76.0122 93.0796 75.933 93.0796 75.8362C93.0796 75.7394 96.2984 75.6602 100.271 75.6602C104.241 75.6602 107.461 75.7387 107.461 75.8362Z" fill="#263238"/>
<path d="M56.3531 67.1777C56.3619 67.1764 56.3903 67.282 56.4357 67.4858C56.4885 67.7167 56.5569 68.0133 56.6422 68.383C56.8365 69.1623 57.1493 70.2944 57.67 71.6777C58.1839 73.065 58.9111 74.6907 59.7994 76.5195C60.6404 78.3821 61.4007 80.5251 62.1956 82.8475L62.2038 82.8712V82.8976C62.1855 85.6791 62.1652 88.7239 62.1435 91.9042C62.0683 99.0054 62.0006 105.432 61.9512 110.124C61.9106 112.429 61.8781 114.306 61.8544 115.643C61.8361 116.27 61.8219 116.769 61.8111 117.143C61.7975 117.486 61.7847 117.666 61.7731 117.665C61.7616 117.664 61.7515 117.484 61.7433 117.14C61.7386 116.766 61.7318 116.266 61.7237 115.639C61.7217 114.301 61.7183 112.423 61.7142 110.116C61.7386 105.425 61.7718 98.9993 61.8084 91.8987C61.8368 88.7192 61.8645 85.675 61.8896 82.8942L61.8977 82.9443C61.1177 80.6273 60.3702 78.4756 59.5584 76.6278C58.6911 74.7956 57.9788 73.1435 57.4879 71.7413C56.9895 70.3404 56.7045 69.1934 56.5406 68.4033C56.4635 68.0072 56.4086 67.7018 56.3829 67.4933C56.3551 67.2874 56.3443 67.1791 56.3531 67.1777Z" fill="#263238"/>
<path d="M111.39 61.7461C111.415 61.7488 111.406 62.1016 111.381 62.7373C111.355 63.4347 111.321 64.3414 111.281 65.4328C111.189 67.7681 111.065 70.8833 110.929 74.327C110.774 77.7713 110.633 80.8859 110.527 83.2212C110.464 84.3126 110.412 85.2185 110.372 85.9153C110.329 86.551 110.294 86.9025 110.271 86.9018C110.248 86.9011 110.238 86.5483 110.242 85.9105C110.255 85.2125 110.271 84.3052 110.291 83.2123C110.348 80.934 110.451 77.7876 110.596 74.3128C110.74 70.8393 110.898 67.6949 111.045 65.4206C111.119 64.2831 111.191 63.363 111.252 62.7285C111.316 62.0934 111.369 61.7441 111.39 61.7461Z" fill="#263238"/>
<g opacity="0.3">
<path d="M56.6679 68.8633C56.4167 73.959 58.3376 78.895 61.7386 82.6975C60.6878 77.9064 58.0647 73.4471 56.6679 68.8633Z" fill="black"/>
</g>
<g opacity="0.3">
<path d="M79.3506 114.838C81.7644 114.633 83.9412 113.202 85.5486 111.389C87.1553 109.577 88.6104 107.52 89.7113 105.363C91.2083 102.427 91.9511 99.2322 92.1522 95.8867C89.1426 103.949 84.732 110.332 79.3506 114.838Z" fill="black"/>
</g>
<path d="M93.1021 92.3653C93.1136 92.368 93.0987 92.4702 93.0595 92.6625C93.008 92.8927 92.9471 93.169 92.8733 93.5008C92.7947 93.8657 92.6817 94.3078 92.5252 94.8143C92.3743 95.3221 92.2145 95.9051 91.9829 96.5314C91.5645 97.7996 90.9524 99.2702 90.2008 100.868C89.4229 102.453 88.481 104.155 87.3598 105.859C86.2243 107.554 85.0205 109.083 83.8566 110.412C82.669 111.72 81.5457 112.85 80.5273 113.716C80.0358 114.168 79.555 114.535 79.14 114.865C78.7297 115.201 78.3607 115.469 78.0506 115.678C77.7696 115.87 77.536 116.029 77.341 116.161C77.1765 116.269 77.0871 116.32 77.081 116.311C77.0742 116.302 77.1507 116.231 77.3017 116.106C77.4859 115.96 77.7066 115.784 77.972 115.573C78.2693 115.35 78.6247 115.067 79.0215 114.719C79.423 114.377 79.8902 114 80.3682 113.539C81.3595 112.656 82.457 111.517 83.623 110.208C84.7652 108.878 85.9515 107.356 87.0788 105.674C88.1919 103.983 89.1337 102.299 89.9219 100.733C90.6829 99.1537 91.3139 97.7027 91.7581 96.4515C92.0025 95.834 92.1779 95.2591 92.3451 94.7588C92.5178 94.2598 92.6485 93.8244 92.746 93.4662C92.8435 93.1412 92.9247 92.8711 92.9924 92.6456C93.0541 92.4594 93.0913 92.3626 93.1021 92.3653Z" fill="#263238"/>
<path d="M91.6107 77.836C91.6222 77.838 91.6013 78.0012 91.5505 78.3099C91.4902 78.6505 91.4117 79.0987 91.3128 79.6587C91.2126 80.245 91.0752 80.96 90.8653 81.7786C90.6621 82.5986 90.4651 83.5424 90.1442 84.5574C89.9932 85.0686 89.8354 85.6035 89.6709 86.1593C89.503 86.7159 89.2877 87.2806 89.0866 87.873C88.6986 89.064 88.1779 90.2963 87.6512 91.6017C86.5319 94.1841 85.148 96.9595 83.4627 99.7389C81.7538 102.505 79.9121 105.001 78.1212 107.173C77.1983 108.236 76.3378 109.261 75.4535 110.148C75.0175 110.597 74.6126 111.046 74.1934 111.448C73.773 111.848 73.3688 112.232 72.9821 112.599C72.2245 113.346 71.4736 113.951 70.8358 114.505C70.202 115.065 69.6285 115.513 69.1519 115.869C68.6982 116.212 68.3353 116.486 68.0591 116.694C67.8072 116.879 67.6718 116.972 67.6643 116.963C67.6576 116.954 67.7794 116.843 68.0178 116.64C68.2832 116.42 68.6332 116.13 69.0699 115.767C69.5331 115.396 70.093 114.935 70.7132 114.363C71.3375 113.797 72.0742 113.182 72.819 112.427C73.1988 112.056 73.5969 111.669 74.0106 111.266C74.423 110.86 74.8218 110.408 75.2517 109.957C76.1231 109.066 76.9715 108.039 77.8835 106.976C79.6521 104.804 81.4761 102.316 83.1763 99.5636C84.8528 96.7983 86.2374 94.0426 87.3668 91.4799C87.8983 90.1839 88.4264 88.9611 88.8239 87.7796C89.0297 87.1919 89.2504 86.6313 89.4238 86.0794C89.5944 85.5276 89.7589 84.9975 89.9153 84.4903C90.2498 83.4835 90.4617 82.5471 90.6818 81.7339C90.9086 80.9221 91.0643 80.2132 91.1842 79.6323C91.3081 79.0784 91.4076 78.6349 91.4828 78.2977C91.5559 77.993 91.5992 77.8339 91.6107 77.836Z" fill="#263238"/>
<path d="M91.4492 141.136C91.4492 141.136 95.1271 138.149 96.1929 136.792C97.2586 135.435 97.954 134.65 97.954 134.65C97.954 134.65 102.359 133.33 103.979 131.468C105.598 129.606 108.258 126.916 108.258 126.916L113.48 132.388C113.48 132.388 110.468 137.271 110.223 138.879C109.978 140.489 108.139 144.922 108.139 144.922L98.1171 138.93C98.1171 138.93 95.9823 141.917 94.6159 142.244C93.496 142.511 91.5366 143.32 91.4492 141.136Z" fill="#FFBE9D"/>
<path d="M122.463 77.6406C122.463 77.6406 127.575 107.639 126.1 111.166C124.624 114.693 110.572 137.298 110.572 137.298L104.086 131.906C104.086 131.906 114.163 108.868 114.138 107.091C114.113 105.314 110.573 81.259 110.573 81.259L122.463 77.6406Z" fill="#FFBE9D"/>
</g>
<g filter="url(#filter0_d_1707_20572)">
<path d="M31.9812 32.3555C39.8578 32.3555 45.8508 33.9993 49.9603 37.2869C54.0698 40.506 56.1246 44.8552 56.1246 50.3345C56.1246 53.6221 55.2342 56.4303 53.4534 58.759C51.7411 61.0192 49.6863 62.7315 47.2891 63.8959C48.7275 64.4438 50.063 65.1288 51.2959 65.9507C52.5287 66.7726 53.6246 67.7999 54.5835 69.0328C55.5424 70.2656 56.2958 71.704 56.8437 73.3478C57.3917 74.9916 57.6656 76.9093 57.6656 79.1011C57.6656 82.0462 57.0149 84.6831 55.7136 87.0119C54.4808 89.3406 52.7342 91.3268 50.474 92.9706C48.2138 94.6144 45.5083 95.8473 42.3577 96.6692C39.2756 97.5596 35.8853 98.0048 32.1867 98.0048C25.0636 98.0048 19.687 97.0116 16.0569 95.0254C12.4268 93.0391 10.6118 90.5049 10.6118 87.4228C10.6118 85.5735 11.057 83.9982 11.9474 82.6969C12.8378 81.327 13.9337 80.2654 15.235 79.512C16.6048 80.4709 18.4199 81.4983 20.6801 82.5941C23.0088 83.6215 26.0225 84.1352 29.721 84.1352C33.2141 84.1352 35.7825 83.5188 37.4263 82.2859C39.1386 81.0531 39.9948 79.4435 39.9948 77.4573C39.9948 75.471 39.3098 73.9642 37.94 72.9368C36.6387 71.9094 34.3442 71.3957 31.0566 71.3957H21.3993C20.9198 70.6423 20.5089 69.7177 20.1664 68.6218C19.824 67.526 19.6527 66.2246 19.6527 64.7178C19.6527 63.1425 19.7897 61.8069 20.0637 60.711C20.4061 59.5467 20.8513 58.5878 21.3993 57.8344H31.0566C35.988 57.8344 38.4537 55.9509 38.4537 52.1838C38.4537 50.403 37.666 48.9647 36.0907 47.8688C34.5154 46.773 32.1525 46.225 29.0018 46.225C26.1937 46.225 23.728 46.5675 21.6047 47.2524C19.4815 47.8688 17.735 48.6565 16.3651 49.6154C15.2008 48.7935 14.2419 47.8004 13.4885 46.636C12.7351 45.4031 12.3584 43.9648 12.3584 42.321C12.3584 38.8964 14.1391 36.3965 17.7007 34.8212C21.2623 33.1774 26.0225 32.3555 31.9812 32.3555Z" fill="white"/>
<path d="M15.321 79.3891L15.2426 79.3343L15.1599 79.3822C13.8368 80.1482 12.7245 81.2265 11.8226 82.6137C10.913 83.9438 10.4618 85.5494 10.4618 87.4228C10.4618 90.5784 12.3257 93.1547 15.9849 95.157C19.6477 97.1611 25.0542 98.1548 32.1867 98.1548C35.8965 98.1548 39.3004 97.7083 42.3974 96.8139C45.5624 95.988 48.285 94.7481 50.5622 93.0919C52.8393 91.4359 54.6012 89.4331 55.8453 87.0836C57.1599 84.7306 57.8156 82.0685 57.8156 79.1011C57.8156 76.8973 57.5402 74.9629 56.986 73.3003C56.4333 71.6421 55.6723 70.1884 54.7019 68.9407C53.7337 67.6958 52.6261 66.6572 51.3791 65.8258C50.2275 65.0581 48.9874 64.4093 47.659 63.8791C49.9487 62.7087 51.92 61.0314 53.5729 58.8497C55.3759 56.4918 56.2746 53.6507 56.2746 50.3345C56.2746 44.812 54.2009 40.4184 50.0534 37.1693C45.907 33.8524 39.8753 32.2055 31.9812 32.2055C26.0116 32.2055 21.2276 33.0284 17.6389 34.6845C15.8406 35.4801 14.4813 36.5138 13.5718 37.7906C12.6612 39.0689 12.2084 40.5813 12.2084 42.321C12.2084 43.9885 12.5908 45.4547 13.3605 46.7142L13.3604 46.7142L13.3625 46.7175C14.1266 47.8984 15.0991 48.9053 16.2786 49.7379L16.3648 49.7987L16.4511 49.7383C17.804 48.7913 19.5343 48.0097 21.6466 47.3965L21.6466 47.3965L21.6508 47.3952C23.7559 46.7161 26.2055 46.375 29.0018 46.375C32.1397 46.375 34.4664 46.9216 36.0051 47.992C37.5438 49.0624 38.3037 50.4565 38.3037 52.1838C38.3037 54.0318 37.701 55.3953 36.5134 56.3025C35.3181 57.2156 33.5074 57.6844 31.0566 57.6844H21.3993H21.3229L21.278 57.7462C20.7174 58.517 20.2657 59.4926 19.9198 60.6687L19.9196 60.6687L19.9182 60.6747C19.6403 61.7861 19.5027 63.1346 19.5027 64.7178C19.5027 66.2353 19.6751 67.5525 20.0232 68.6666C20.3686 69.7717 20.7845 70.7091 21.2727 71.4763L21.3169 71.5457H21.3993H31.0566C34.3385 71.5457 36.588 72.0605 37.8471 73.0545L37.847 73.0546L37.85 73.0568C39.1757 74.0511 39.8448 75.5096 39.8448 77.4573C39.8448 79.3919 39.0147 80.9575 37.3387 82.1642L37.3363 82.1659C35.7311 83.3698 33.2021 83.9852 29.721 83.9852C26.0359 83.9852 23.0458 83.4733 20.7431 82.458C18.488 81.3645 16.6815 80.3414 15.321 79.3891Z" stroke="black" stroke-width="0.3"/>
</g>
<defs>
<filter id="filter0_d_1707_20572" x="0.312012" y="24.0547" width="67.6538" height="86.25" filterUnits="userSpaceOnUse" color-interpolation-filters="sRGB">
<feFlood flood-opacity="0" result="BackgroundImageFix"/>
<feColorMatrix in="SourceAlpha" type="matrix" values="0 0 0 0 0 0 0 0 0 0 0 0 0 0 0 0 0 0 127 0" result="hardAlpha"/>
<feOffset dy="2"/>
<feGaussianBlur stdDeviation="5"/>
<feComposite in2="hardAlpha" operator="out"/>
<feColorMatrix type="matrix" values="0 0 0 0 0 0 0 0 0 0 0 0 0 0 0 0 0 0 0.2 0"/>
<feBlend mode="normal" in2="BackgroundImageFix" result="effect1_dropShadow_1707_20572"/>
<feBlend mode="normal" in="SourceGraphic" in2="effect1_dropShadow_1707_20572" result="shape"/>
</filter>
</defs>
</svg>
