<svg width="53" height="20" viewBox="0 0 53 20" fill="none" xmlns="http://www.w3.org/2000/svg">
<path d="M17.292 3.2643L30.8988 3.26431L30.8988 11.4279L25.1905 11.4279L30.8989 16.6523L26.0496 16.6523L20.4514 11.4279L20.4514 16.6523L17.292 16.6523L17.292 8.35331L27.2685 8.35332L27.2685 6.36677L17.292 6.36677L17.292 3.2643Z" fill="black"/>
<path d="M32.3118 16.6523L35.6372 16.6523L35.6372 3.23718L32.3117 3.23717L32.3118 16.6523Z" fill="black"/>
<path d="M5.68106 13.4142L5.68104 3.26431L3.0761 3.2643C2.60502 3.2643 2.24471 3.61832 2.24471 4.05315C2.24471 6.44854 2.21703 13.4959 2.21704 15.836C2.21704 16.2714 2.57735 16.6523 3.02074 16.6523C4.82199 16.6523 10.004 16.6523 10.7519 16.6523L10.7519 13.4142L5.68106 13.4142Z" fill="black"/>
<path d="M12.47 20C12.7752 20 15.1028 20 15.879 20C15.879 20 15.879 13.3877 15.879 13.2789C14.7703 13.2789 13.607 13.2789 12.47 13.2789C12.47 15.5101 12.47 17.7414 12.47 20Z" fill="black"/>
<path d="M7.34373 3.26508C7.34373 3.31992 7.34374 6.6119 7.34374 6.6119C8.86796 6.6119 10.8075 6.6119 12.4701 6.6119C12.4701 8.92553 12.4701 11.6191 12.4701 11.6191C13.2463 11.6191 15.5739 11.6191 15.8791 11.6191L15.8791 4.08183C15.8791 3.64604 15.5183 3.29202 15.0756 3.26509C13.413 3.26508 9.4774 3.26508 7.34373 3.26508Z" fill="black"/>
<path d="M7.34374 8.24386C7.34375 9.35978 7.34375 10.4757 7.34375 11.6455C7.62088 11.6455 7.9257 11.6455 8.20283 11.6455C8.97913 11.6455 9.9484 11.6455 10.7246 11.6455C10.7246 11.6455 10.7246 8.29869 10.7246 8.24386C9.61588 8.24386 8.47996 8.24386 7.34374 8.24386ZM9.72705 10.6114C9.39453 10.6114 9.00643 10.6114 8.70122 10.6114C8.59083 10.6114 8.47996 10.6114 8.3414 10.6114C8.3414 10.1486 8.34139 9.7138 8.34139 9.25108C8.81238 9.25108 9.25606 9.25108 9.72704 9.25108C9.72704 9.27801 9.72705 10.6114 9.72705 10.6114Z" fill="black"/>
<path d="M51.9595 13.2784L51.9595 18.2852C51.9595 18.7205 51.5714 19.0744 51.1287 19.0744L46.0298 19.0744L46.0298 19.8906L51.9595 19.8906L51.9878 19.8906C52.4032 19.8906 52.763 19.5369 52.763 19.1015L52.763 19.0744L52.763 13.2784L51.9595 13.2784Z" fill="black"/>
<path d="M0.83139 6.58537L0.83138 1.57813C0.831379 1.1433 1.1639 0.816221 1.60728 0.816221L6.7063 0.816223C6.734 0.816223 6.73399 0.789287 6.73399 0.789287L6.73399 0.0273767C6.73399 0.0273767 6.73399 0.000440627 6.7063 0.000440617L0.831377 0.000438511C0.360295 0.000438343 -1.25824e-05 0.354458 -1.1654e-05 0.81622L-5.41594e-08 6.58537C0 6.6123 0.0276934 6.6123 0.0276934 6.6123L0.803697 6.6123C0.803697 6.6123 0.83139 6.61231 0.83139 6.58537Z" fill="black"/>
<path d="M50.5185 6.58493L50.5185 3.26505L37.0783 3.26504L37.0784 8.24438L37.0784 11.5922L46.03 11.5922L46.03 13.2517L37.0784 13.2517L37.0784 16.5986L50.5185 16.5986L50.5185 8.27229L41.5678 8.27228L41.5678 6.58492L50.5185 6.58493Z" fill="black"/>
</svg>
