<svg width="92" height="92" viewBox="0 0 92 92" fill="none" xmlns="http://www.w3.org/2000/svg">
<circle cx="46" cy="46" r="46" fill="#3D76A6"/>
<mask id="mask0_2269_38267" style="mask-type:alpha" maskUnits="userSpaceOnUse" x="0" y="0" width="92" height="92">
<circle cx="46" cy="46" r="46" fill="#F5F5F5"/>
</mask>
<g mask="url(#mask0_2269_38267)">
<path d="M53.1478 19.6046C51.7637 12.4559 59.5611 8.11277 64.2397 13.2331C68.9184 18.3534 65.4286 22.1956 60.7009 22.6686C55.9727 23.1416 54.3442 19.4233 54.3442 19.4233L53.1478 19.6046Z" fill="#263238"/>
<path d="M48.887 18.6942C50.4905 13.513 58.991 17.7281 61.0363 21.2052C63.0816 24.6823 62.1349 29.7362 62.1349 29.7362L48.887 18.6942Z" fill="#ECBA4E"/>
<path d="M26.4004 40.6411C23.8055 23.023 36.2141 16.6245 47.0043 16.8618C57.7951 17.0991 62.8961 25.63 62.8961 25.63C62.8961 25.63 70.6169 37.0129 61.1643 47.4578C51.7123 57.9021 26.4004 40.6411 26.4004 40.6411Z" fill="#263238"/>
<path d="M81.96 93.3102H12C12 93.3102 15.263 80.7165 19.9044 73.256C24.5457 65.7907 41.5834 63.252 41.5834 63.252L46.9794 64.1554L52.3755 63.252C52.3755 63.252 69.419 65.7907 74.0603 73.256C78.7022 80.7165 81.96 93.3102 81.96 93.3102Z" fill="#72BBA6"/>
<path d="M40.465 62.7224C33.3822 64.3127 30.1139 69.4693 36.4912 70.8259C36.4912 70.8259 34.052 75.3249 40.0207 77.2817C45.9893 79.2385 47.5468 74.2177 47.5468 74.2177C47.5468 74.2177 51.0662 79.3954 55.2444 77.2817C59.4232 75.168 59.8301 71.2041 55.8949 69.3867C55.8949 69.3867 58.2019 70.8259 59.2874 68.6548C60.3729 66.4838 56.1016 63.1674 49.6206 62.7224C43.1402 62.2769 40.465 62.7224 40.465 62.7224Z" fill="white"/>
<path d="M46.8503 69.9154C43.9228 69.9154 41.5503 67.5424 41.5503 64.6154V54.4902H52.1509V64.6154C52.1503 67.5424 49.7779 69.9154 46.8503 69.9154Z" fill="#FFBF9D"/>
<path d="M52.1509 53.3193V59.5357C52.1509 59.5357 50.371 62.6307 46.8503 62.6307C44.0217 62.6307 41.5509 59.9473 41.5509 59.9473V53.3193H52.1509Z" fill="#FF9A6C"/>
<path d="M32.0205 42.4359C29.1545 38.0821 25.83 40.8791 25.83 43.9448C25.83 48.3835 30.6446 52.2063 33.3959 49.0206C36.1478 45.8342 32.0205 42.4359 32.0205 42.4359Z" fill="#FFBF9D"/>
<path d="M60.6527 42.4359C63.5188 38.0821 66.8433 40.8791 66.8433 43.9448C66.8433 48.3835 62.0287 52.2063 59.2773 49.0206C56.526 45.8342 60.6527 42.4359 60.6527 42.4359Z" fill="#FFBF9D"/>
<path d="M46.3233 59.5354C34.9978 59.5307 28.3008 47.1549 30.9485 34.4476C33.1295 23.9764 59.5435 23.9805 61.7245 34.4476C64.3716 47.1554 57.6541 59.5401 46.3233 59.5354Z" fill="#FFBF9D"/>
<path d="M38.861 39.7546C38.861 40.3841 39.3709 40.894 40.0004 40.894C40.6298 40.894 41.1398 40.3841 41.1398 39.7546C41.1398 39.1252 40.6298 38.6152 40.0004 38.6152C39.3715 38.6152 38.861 39.1252 38.861 39.7546Z" fill="#263238"/>
<path d="M53.8119 39.7546C53.8119 40.3841 53.3019 40.894 52.6725 40.894C52.0431 40.894 51.5331 40.3841 51.5331 39.7546C51.5331 39.1252 52.0431 38.6152 52.6725 38.6152C53.3019 38.6152 53.8119 39.1252 53.8119 39.7546Z" fill="#263238"/>
<path d="M50.8139 37.5572C50.9394 37.6979 51.7147 37.088 52.8221 37.0802C53.9296 37.0723 54.7418 37.6666 54.8599 37.5181C54.978 37.3695 54.7861 37.1974 54.4317 36.9316C53.9529 36.5805 53.3822 36.3972 52.8 36.4076C52.2259 36.4065 51.6667 36.6012 51.2052 36.9629C50.8656 37.2209 50.7475 37.4946 50.8139 37.5572Z" fill="#263238"/>
<path d="M41.9959 37.5572C41.8703 37.6979 41.0951 37.088 39.9876 37.0802C38.8802 37.0723 38.068 37.6666 37.9499 37.5181C37.8318 37.3695 38.0237 37.1974 38.3781 36.9316C38.8569 36.5805 39.4275 36.3972 40.0098 36.4076C40.5839 36.4065 41.1431 36.6012 41.6046 36.9629C41.9442 37.2209 42.0623 37.4946 41.9959 37.5572Z" fill="#263238"/>
<path d="M50.8069 33.9153C50.9223 34.2591 52.0687 34.0958 53.4228 34.2677C54.7768 34.4396 55.8693 34.8521 56.0463 34.5341C56.1309 34.388 55.9386 34.0528 55.4923 33.6747C54.9065 33.255 54.2389 32.9986 53.5459 32.927C52.8538 32.8381 52.1528 32.9323 51.4994 33.202C51.007 33.4685 50.7377 33.7435 50.8069 33.9153Z" fill="#263238"/>
<path d="M42.0028 33.9153C41.8874 34.2591 40.7411 34.0958 39.387 34.2677C38.0329 34.4396 36.9404 34.8521 36.7635 34.5341C36.6789 34.388 36.8712 34.0528 37.3174 33.6747C37.9033 33.255 38.5709 32.9986 39.2639 32.927C39.9559 32.8381 40.657 32.9323 41.3104 33.202C41.8028 33.4685 42.0721 33.7435 42.0028 33.9153Z" fill="#263238"/>
<path d="M49.4249 49.9913C49.475 49.4925 49.4591 48.992 49.3777 48.5058C49.365 48.3876 49.3346 48.2575 49.241 48.2196C49.1947 48.1896 49.1404 48.1766 49.0856 48.1823L46.148 48.7203C46.1456 49.1736 46.2251 49.6182 46.3818 50.0279C46.5438 50.5501 46.8637 50.9868 47.2895 51.2672C47.5066 51.3981 47.7531 51.4641 48.0059 51.4591C48.2586 51.454 48.5094 51.3781 48.7348 51.2383C48.9214 51.0927 49.0795 50.906 49.1986 50.6909C49.3176 50.4758 49.3948 50.2372 49.4249 49.9913Z" fill="#FF9A6C"/>
<path d="M46.725 51.3102C46.725 51.3102 46.7782 51.4455 46.9657 51.5723C47.2452 51.7477 47.5721 51.8262 47.9007 51.797C48.3933 51.7668 48.8666 51.5708 49.2498 51.2384C49.4668 51.0057 49.6306 50.7251 49.7286 50.4184C49.8266 50.1117 49.8561 49.7872 49.8149 49.4698C49.7908 49.1475 49.7135 48.8331 49.5866 48.5404C49.5552 48.4463 49.5038 48.3613 49.4361 48.2917C49.3899 48.2547 49.3364 48.2285 49.2793 48.2147C49.2222 48.201 49.1628 48.2001 49.1048 48.2121L48.7014 48.2705L47.3603 48.5041C46.9384 48.5468 46.523 48.6505 46.126 48.8123C46.5429 48.875 46.9682 48.8668 47.3856 48.788L48.743 48.6483L49.1206 48.6001C49.1721 48.6125 49.1795 48.6142 49.1721 48.6125C49.201 48.6435 49.2213 48.6822 49.2308 48.7247C49.3302 48.9789 49.3942 49.2475 49.4207 49.5222C49.454 49.7792 49.4338 50.0419 49.3615 50.2925C49.2892 50.543 49.1665 50.7756 49.0017 50.9745C48.6832 51.2678 48.2907 51.4579 47.8737 51.5208C47.4778 51.5535 47.0826 51.481 46.725 51.3102Z" fill="#263238"/>
<path d="M45.7901 46.5471C45.3693 46.4176 44.9341 46.3409 44.4945 46.3188C44.2927 46.3188 44.1015 46.2604 44.0643 46.1223C44.0474 45.9118 44.0936 45.7011 44.1971 45.517C44.3882 45.0285 44.5847 44.5081 44.7918 43.9718C45.6148 41.7629 46.2149 39.9522 46.1246 39.9203C46.0343 39.8885 45.2962 41.6461 44.4679 43.855L43.8997 45.4108C43.774 45.6563 43.7382 45.9381 43.7989 46.2073C43.8296 46.2782 43.8755 46.3415 43.9333 46.3929C43.991 46.4443 44.0593 46.4824 44.1334 46.5046C44.2462 46.534 44.362 46.5501 44.4785 46.5524C44.9143 46.603 45.3547 46.6013 45.7901 46.5471Z" fill="#263238"/>
<path d="M63.0996 46.4826C63.0996 46.4826 63.2153 46.5559 63.4022 46.6374C63.6884 46.7393 64.0059 46.7393 64.2922 46.6374C64.7133 46.3848 65.0537 46.0345 65.2789 45.6222C65.504 45.2099 65.6058 44.7502 65.5738 44.2902C65.5927 43.7728 65.4767 43.2587 65.2356 42.7906C65.1748 42.5968 65.0612 42.4203 64.9055 42.2778C64.7499 42.1352 64.5572 42.0312 64.3456 41.9755C64.2144 41.9436 64.075 41.9556 63.9527 42.0094C63.8303 42.0632 63.7329 42.1552 63.6781 42.2689C63.5891 42.4401 63.6781 42.5542 63.598 42.5705C63.5179 42.5868 63.4556 42.4727 63.509 42.22C63.5396 42.0693 63.6279 41.9334 63.7582 41.837C63.9397 41.7138 64.1656 41.6584 64.3901 41.6821C64.661 41.728 64.9145 41.8368 65.1265 41.9981C65.3384 42.1593 65.5016 42.3676 65.6005 42.6031C65.8864 43.1234 66.03 43.6996 66.0188 44.282C66.0188 45.4964 65.3246 46.6374 64.3723 46.8982C64.1963 46.9468 64.0108 46.9587 63.8291 46.9334C63.6474 46.908 63.4742 46.8459 63.3221 46.7515C63.1085 46.6293 63.0729 46.4907 63.0996 46.4826Z" fill="#FF9A6C"/>
<path d="M29.7102 46.4826C29.7102 46.4826 29.5945 46.5559 29.4076 46.6374C29.1213 46.7393 28.8038 46.7393 28.5176 46.6374C28.0965 46.3848 27.756 46.0345 27.5309 45.6222C27.3057 45.2099 27.204 44.7502 27.236 44.2902C27.2171 43.7728 27.333 43.2587 27.5742 42.7906C27.635 42.5968 27.7485 42.4203 27.9042 42.2778C28.0599 42.1352 28.2526 42.0312 28.4642 41.9755C28.5954 41.9436 28.7347 41.9556 28.8571 42.0094C28.9795 42.0632 29.0769 42.1552 29.1317 42.2689C29.2207 42.4401 29.1317 42.5542 29.2118 42.5705C29.2919 42.5868 29.3542 42.4727 29.3008 42.22C29.2702 42.0693 29.1818 41.9334 29.0516 41.837C28.8701 41.7138 28.6441 41.6584 28.4197 41.6821C28.1488 41.728 27.8952 41.8368 27.6833 41.9981C27.4714 42.1593 27.3082 42.3676 27.2093 42.6031C26.9233 43.1234 26.7798 43.6996 26.791 44.282C26.791 45.4964 27.4852 46.6374 28.4375 46.8982C28.6134 46.9468 28.799 46.9587 28.9807 46.9334C29.1623 46.908 29.3355 46.8459 29.4877 46.7515C29.7013 46.6293 29.7369 46.4907 29.7102 46.4826Z" fill="#FF9A6C"/>
<path d="M48.5376 25.1842C29.72 31.3795 32.8359 49.0819 36.2986 59.5971C36.2986 59.5971 24.0985 42.2477 29.508 31.3795C34.9175 20.5119 48.5376 25.1842 48.5376 25.1842Z" fill="#263238"/>
</g>
</svg>
