<svg width="32" height="30" viewBox="0 0 32 30" fill="none" xmlns="http://www.w3.org/2000/svg">
<path d="M30.2758 14.9424C29.8346 14.4983 29.5484 13.9238 29.4596 13.3042C29.3708 12.6846 29.4841 12.0529 29.7828 11.5027C29.9973 11.106 30.1167 10.665 30.1318 10.2142C30.1469 9.76351 30.0572 9.31543 29.8698 8.90526C29.6823 8.49509 29.4022 8.13402 29.0515 7.85048C28.7008 7.56693 28.2891 7.36864 27.8488 7.27121C27.2376 7.13618 26.6862 6.8077 26.2764 6.3345C25.8666 5.8613 25.6203 5.2686 25.5741 4.64435C25.5404 4.1946 25.4028 3.7588 25.172 3.37132C24.9412 2.98383 24.6235 2.65525 24.2441 2.41145C23.8647 2.16766 23.4338 2.01532 22.9854 1.96644C22.5371 1.91757 22.0835 1.97349 21.6604 2.1298C21.0732 2.3468 20.4317 2.36882 19.831 2.19259C19.2303 2.01635 18.7024 1.65124 18.3255 1.15139C18.0543 0.790784 17.703 0.498169 17.2993 0.296652C16.8956 0.0951349 16.4506 -0.00976562 15.9994 -0.00976562C15.5482 -0.00976563 15.1031 0.0951349 14.6995 0.296652C14.2958 0.498169 13.9444 0.790784 13.6733 1.15139C13.2964 1.65124 12.7684 2.01635 12.1677 2.19259C11.567 2.36882 10.9255 2.3468 10.3383 2.1298C9.91523 1.97349 9.46165 1.91757 9.01329 1.96644C8.56494 2.01532 8.13406 2.16766 7.75462 2.41145C7.37518 2.65525 7.05755 2.98383 6.82675 3.37132C6.59595 3.7588 6.4583 4.1946 6.42465 4.64435C6.37783 5.26989 6.13016 5.86356 5.71855 6.33692C5.30693 6.81028 4.7534 7.13798 4.14042 7.27121C3.70071 7.36948 3.2898 7.56843 2.94 7.85241C2.59021 8.13639 2.31107 8.49765 2.12455 8.90779C1.93802 9.31792 1.8492 9.76574 1.86506 10.216C1.88092 10.6663 2.00104 11.1067 2.21596 11.5027C2.51435 12.0531 2.62735 12.6849 2.5382 13.3045C2.44904 13.9242 2.16248 14.4985 1.72104 14.9424C1.40351 15.2625 1.16459 15.652 1.02308 16.0801C0.881577 16.5082 0.841345 16.9634 0.905552 17.4097C0.969759 17.856 1.13665 18.2813 1.3931 18.6522C1.64956 19.0231 1.98857 19.3294 2.38347 19.547C2.93197 19.8489 3.36866 20.3194 3.62888 20.8889C3.8891 21.4584 3.959 22.0965 3.82824 22.7088C3.73377 23.1497 3.74298 23.6066 3.85516 24.0434C3.96735 24.4802 4.17943 24.885 4.47471 25.2258C4.76999 25.5667 5.14038 25.8343 5.55672 26.0076C5.97306 26.181 6.42395 26.2552 6.87388 26.2246C7.49842 26.1819 8.12009 26.3416 8.64674 26.68C9.17338 27.0185 9.57697 27.5176 9.79769 28.1034C9.95653 28.5256 10.2113 28.9051 10.5418 29.212C10.8724 29.519 11.2697 29.745 11.7025 29.8721C12.1354 29.9993 12.5918 30.0242 13.0358 29.9448C13.4799 29.8655 13.8995 29.6841 14.2614 29.4149C14.7638 29.0413 15.3733 28.8395 15.9994 28.8395C16.6255 28.8395 17.2349 29.0413 17.7373 29.4149C18.0993 29.6841 18.5188 29.8655 18.9629 29.9448C19.4069 30.0242 19.8634 29.9993 20.2962 29.8721C20.729 29.745 21.1263 29.519 21.4569 29.212C21.7874 28.9051 22.0422 28.5256 22.201 28.1034C22.4221 27.5179 22.8258 27.0192 23.3524 26.6812C23.879 26.3431 24.5005 26.1837 25.1248 26.2265C25.5748 26.2571 26.0257 26.1829 26.442 26.0095C26.8583 25.8362 27.2287 25.5686 27.524 25.2277C27.8193 24.8869 28.0314 24.4821 28.1436 24.0453C28.2557 23.6085 28.265 23.1516 28.1705 22.7107C28.0397 22.0984 28.1096 21.4603 28.3698 20.8908C28.6301 20.3213 29.0668 19.8508 29.6153 19.5489C30.0107 19.3314 30.3501 19.0251 30.6068 18.6539C30.8636 18.2828 31.0306 17.8571 31.0946 17.4104C31.1587 16.9637 31.118 16.5083 30.9759 16.08C30.8338 15.6517 30.5941 15.2622 30.2758 14.9424Z" fill="#E7EFF8"/>
<circle cx="15.8885" cy="15.0028" r="10.3915" stroke="#CCD4DB"/>
<path d="M19.6168 17.9042V19.9902H12.7568V19.2762C12.7568 19.0056 12.7848 18.7442 12.8408 18.4922C12.8968 18.2309 12.9621 18.0069 13.0368 17.8202C13.1115 17.6242 13.2281 17.4236 13.3868 17.2182C13.5455 17.0129 13.6808 16.8449 13.7928 16.7142C13.9048 16.5836 14.0728 16.4296 14.2968 16.2522C14.5208 16.0656 14.6935 15.9302 14.8148 15.8462C14.9361 15.7529 15.1275 15.6176 15.3888 15.4402C15.6501 15.2536 15.8321 15.1229 15.9348 15.0482C16.9335 14.3389 17.4328 13.7042 17.4328 13.1442C17.4328 12.7989 17.3301 12.5189 17.1248 12.3042C16.9288 12.0802 16.6395 11.9682 16.2568 11.9682C15.8555 11.9682 15.5288 12.0896 15.2768 12.3322C15.0341 12.5749 14.9128 12.8689 14.9128 13.2142H12.7988C12.7988 12.2436 13.1301 11.4456 13.7928 10.8202C14.4648 10.1949 15.3095 9.88223 16.3268 9.88223C17.2228 9.88223 17.9835 10.1576 18.6088 10.7082C19.2341 11.2496 19.5468 12.0102 19.5468 12.9902C19.5468 13.5596 19.4488 14.0682 19.2528 14.5162C19.0568 14.9642 18.8281 15.3236 18.5668 15.5942C18.3055 15.8649 17.9508 16.1682 17.5028 16.5042C17.4841 16.5136 17.2975 16.6349 16.9428 16.8682C16.5975 17.0922 16.3315 17.2836 16.1448 17.4422C15.9581 17.6009 15.8228 17.7549 15.7388 17.9042H19.6168Z" fill="#CCD4DB"/>
</svg>
