<svg width="32" height="30" viewBox="0 0 32 30" fill="none" xmlns="http://www.w3.org/2000/svg">
<path d="M30.2758 14.9424C29.8346 14.4983 29.5484 13.9238 29.4596 13.3042C29.3708 12.6846 29.4841 12.0529 29.7828 11.5027C29.9973 11.106 30.1167 10.665 30.1318 10.2142C30.1469 9.76351 30.0572 9.31543 29.8698 8.90526C29.6823 8.49509 29.4022 8.13402 29.0515 7.85048C28.7008 7.56693 28.2891 7.36864 27.8488 7.27121C27.2376 7.13618 26.6862 6.8077 26.2764 6.3345C25.8666 5.8613 25.6203 5.2686 25.5741 4.64435C25.5404 4.1946 25.4028 3.7588 25.172 3.37132C24.9412 2.98383 24.6235 2.65525 24.2441 2.41145C23.8647 2.16766 23.4338 2.01532 22.9854 1.96644C22.5371 1.91757 22.0835 1.97349 21.6604 2.1298C21.0732 2.3468 20.4317 2.36882 19.831 2.19259C19.2303 2.01635 18.7024 1.65124 18.3255 1.15139C18.0543 0.790784 17.703 0.498169 17.2993 0.296652C16.8956 0.0951349 16.4506 -0.00976562 15.9994 -0.00976562C15.5482 -0.00976563 15.1031 0.0951349 14.6995 0.296652C14.2958 0.498169 13.9444 0.790784 13.6733 1.15139C13.2964 1.65124 12.7684 2.01635 12.1677 2.19259C11.567 2.36882 10.9255 2.3468 10.3383 2.1298C9.91523 1.97349 9.46165 1.91757 9.01329 1.96644C8.56494 2.01532 8.13406 2.16766 7.75462 2.41145C7.37518 2.65525 7.05755 2.98383 6.82675 3.37132C6.59595 3.7588 6.4583 4.1946 6.42465 4.64435C6.37783 5.26989 6.13016 5.86356 5.71855 6.33692C5.30693 6.81028 4.7534 7.13798 4.14042 7.27121C3.70071 7.36948 3.2898 7.56843 2.94 7.85241C2.59021 8.13639 2.31107 8.49765 2.12455 8.90779C1.93802 9.31792 1.8492 9.76574 1.86506 10.216C1.88092 10.6663 2.00104 11.1067 2.21596 11.5027C2.51435 12.0531 2.62735 12.6849 2.5382 13.3045C2.44904 13.9242 2.16248 14.4985 1.72104 14.9424C1.40351 15.2625 1.16459 15.652 1.02308 16.0801C0.881577 16.5082 0.841345 16.9634 0.905552 17.4097C0.969759 17.856 1.13665 18.2813 1.3931 18.6522C1.64956 19.0231 1.98857 19.3294 2.38347 19.547C2.93197 19.8489 3.36866 20.3194 3.62888 20.8889C3.8891 21.4584 3.959 22.0965 3.82824 22.7088C3.73377 23.1497 3.74298 23.6066 3.85516 24.0434C3.96735 24.4802 4.17943 24.885 4.47471 25.2258C4.76999 25.5667 5.14038 25.8343 5.55672 26.0076C5.97306 26.181 6.42395 26.2552 6.87388 26.2246C7.49842 26.1819 8.12009 26.3416 8.64674 26.68C9.17338 27.0185 9.57697 27.5176 9.79769 28.1034C9.95653 28.5256 10.2113 28.9051 10.5418 29.212C10.8724 29.519 11.2697 29.745 11.7025 29.8721C12.1354 29.9993 12.5918 30.0242 13.0358 29.9448C13.4799 29.8655 13.8995 29.6841 14.2614 29.4149C14.7638 29.0413 15.3733 28.8395 15.9994 28.8395C16.6255 28.8395 17.2349 29.0413 17.7373 29.4149C18.0993 29.6841 18.5188 29.8655 18.9629 29.9448C19.4069 30.0242 19.8634 29.9993 20.2962 29.8721C20.729 29.745 21.1263 29.519 21.4569 29.212C21.7874 28.9051 22.0422 28.5256 22.201 28.1034C22.4221 27.5179 22.8258 27.0192 23.3524 26.6812C23.879 26.3431 24.5005 26.1837 25.1248 26.2265C25.5748 26.2571 26.0257 26.1829 26.442 26.0095C26.8583 25.8362 27.2287 25.5686 27.524 25.2277C27.8193 24.8869 28.0314 24.4821 28.1436 24.0453C28.2557 23.6085 28.265 23.1516 28.1705 22.7107C28.0397 22.0984 28.1096 21.4603 28.3698 20.8908C28.6301 20.3213 29.0668 19.8508 29.6153 19.5489C30.0107 19.3314 30.3501 19.0251 30.6068 18.6539C30.8636 18.2828 31.0306 17.8571 31.0946 17.4104C31.1587 16.9637 31.118 16.5083 30.9759 16.08C30.8338 15.6517 30.5941 15.2622 30.2758 14.9424Z" fill="#FF9C61"/>
<circle cx="15.8885" cy="15.0028" r="10.3915" stroke="#F2814F"/>
<path d="M16.3079 20.1442C15.3093 20.1442 14.4459 19.8456 13.7179 19.2482C12.9899 18.6416 12.6073 17.7969 12.5699 16.7142H14.6699C14.7166 17.1622 14.8846 17.4982 15.1739 17.7222C15.4633 17.9462 15.8413 18.0582 16.3079 18.0582C16.7186 18.0582 17.0453 17.9602 17.2879 17.7642C17.5399 17.5589 17.6706 17.2929 17.6799 16.9662C17.6893 16.6116 17.5586 16.3222 17.2879 16.0982C17.0173 15.8742 16.6579 15.7622 16.2099 15.7622H15.3419V14.0682H16.0979C16.9473 14.0682 17.3813 13.7089 17.3999 12.9902C17.4093 12.6916 17.3066 12.4489 17.0919 12.2622C16.8773 12.0662 16.6019 11.9682 16.2659 11.9682C15.8553 11.9682 15.5193 12.0896 15.2579 12.3322C14.9966 12.5749 14.8706 12.8689 14.8799 13.2142H12.7659C12.7659 12.2062 13.1159 11.3989 13.8159 10.7922C14.5253 10.1856 15.3419 9.88223 16.2659 9.88223C17.2833 9.88223 18.0813 10.1669 18.6599 10.7362C19.2386 11.2962 19.5279 11.9869 19.5279 12.8082C19.5279 13.2562 19.4253 13.6716 19.2199 14.0542C19.0239 14.4276 18.7813 14.7262 18.4919 14.9502C18.8653 15.1369 19.1779 15.4169 19.4299 15.7902C19.6819 16.1636 19.8079 16.6162 19.8079 17.1482C19.8079 18.0256 19.4813 18.7442 18.8279 19.3042C18.1839 19.8642 17.3439 20.1442 16.3079 20.1442Z" fill="#F2814F"/>
</svg>
