<svg width="141" height="131" viewBox="0 0 141 131" fill="none" xmlns="http://www.w3.org/2000/svg">
<path d="M124.831 61.866C124.831 61.866 128.969 59.3484 129.902 60.0882C131.248 61.1561 131.696 62.9584 131.696 62.9584C131.696 62.9584 133.882 54.6224 135.967 54.9385C137.164 55.1198 136.577 56.052 136.041 57.2222C135.543 58.3088 134.694 62.2966 134.694 62.2966C134.694 62.2966 138.648 57.6051 139.81 57.6896C140.709 57.7551 140.839 58.5461 139.546 59.8141C138.253 61.0825 136.104 65.0778 136.104 65.0778C136.104 65.0778 138.874 62.4954 140.019 62.4811C140.932 62.4698 141.521 63.1036 140.34 64.1292C139.159 65.1548 137.371 65.9244 136.418 67.7795C135.243 70.0663 132.737 75.766 132.737 75.766L123.965 72.6609C123.965 72.6609 122.538 66.8426 122.481 65.429C122.481 65.429 122.601 62.4419 122.584 61.9096C122.567 61.3777 123.978 61.2413 124.406 62.2625C124.834 63.2837 124.64 64.3549 124.814 65.0341C124.987 65.7133 125.297 66.3427 125.793 66.6465C126.289 66.9503 127.553 66.9711 127.876 66.5957C128.199 66.2203 128.59 65.1275 128.675 64.4552C128.76 63.7828 128.651 62.7214 128.651 62.7214C128.651 62.7214 125.009 64.2008 124.831 61.866Z" fill="#FFBE9D"/>
<path d="M26.2812 89.013L20.1863 86.7299C20.1863 86.7299 13.9813 83.0971 12.8323 84.3872C12.8323 84.3872 11.6052 83.8025 11.0597 85.1114C10.7436 85.8697 11.7862 86.971 11.7862 86.971C11.7862 86.971 11.4616 87.3 11.9755 88.4136C12.4893 89.5271 18.3793 93.0393 18.3793 93.0393C18.3793 93.0393 26.0371 97.215 29.1333 99.2126L34.4761 91.9462L33.7332 91.6687C33.7332 91.6687 33.292 88.0474 31.8098 87.0818C30.1968 86.031 28.2509 83.1881 27.8227 82.0745C27.3945 80.961 25.3385 81.4748 25.6812 83.7878C26.0238 86.1009 27.8227 86.7003 27.6515 88.2424C27.4807 89.7839 26.2812 89.013 26.2812 89.013Z" fill="#FFBE9D"/>
<path d="M16.9387 89.8593C16.9148 89.902 15.7272 89.2821 14.287 88.4751C12.8462 87.6677 11.6982 86.9786 11.722 86.9357C11.7459 86.893 12.9331 87.5126 14.374 88.3203C15.8142 89.1273 16.9629 89.8164 16.9387 89.8593Z" fill="#EB996E"/>
<path d="M19.9127 88.1435C19.9025 88.1653 19.4858 87.9969 18.8189 87.7081C18.1527 87.4183 17.2383 87.002 16.2495 86.4967C15.2611 85.9907 14.3899 85.4854 13.7806 85.0862C13.4772 84.885 13.2341 84.7183 13.0735 84.5925C12.9115 84.469 12.8253 84.3961 12.8324 84.3862C12.8485 84.3637 13.2239 84.6099 13.8468 84.9798C14.4697 85.3497 15.3456 85.8346 16.3303 86.3388C17.3153 86.8421 18.2188 87.2754 18.8714 87.5942C19.5244 87.9117 19.9233 88.121 19.9127 88.1435Z" fill="#EB996E"/>
<path d="M21.1951 91.5022C21.1883 91.5131 20.9963 91.4081 20.655 91.209C20.2895 90.9907 19.805 90.7016 19.2189 90.3515L19.2026 90.3419L19.1937 90.3225C18.9247 89.7408 18.5902 89.0565 18.1589 88.3415C17.9407 87.99 17.7014 87.6102 17.3836 87.317C17.0668 87.0227 16.5622 86.9716 16.1827 87.227C16.1013 87.273 16.0031 87.3702 15.9915 87.4019C16.0007 87.4165 15.9996 87.4192 16.0054 87.4424L16.03 87.5181C16.0453 87.5683 16.0648 87.6194 16.0832 87.6702C16.1572 87.8734 16.2373 88.0739 16.3161 88.2706C16.477 88.6631 16.6328 89.0432 16.7825 89.4091C17.0856 90.1319 17.3638 90.795 17.6069 91.375L17.5957 91.3573C18.0965 91.9441 18.5108 92.4296 18.821 92.7934C18.951 92.9516 19.0587 93.0832 19.1484 93.1923C19.2217 93.285 19.2578 93.3362 19.2527 93.3406C19.2476 93.345 19.2016 93.3028 19.1187 93.2186C19.0219 93.1159 18.9049 92.9922 18.7641 92.8435C18.4422 92.4896 18.013 92.0174 17.4941 91.4466L17.4876 91.4394L17.4828 91.4289C17.2291 90.8602 16.9397 90.1997 16.6294 89.4735C16.4766 89.1083 16.3181 88.7282 16.1541 88.3357C16.0743 88.138 15.9932 87.9378 15.9171 87.7305C15.898 87.6787 15.8783 87.6272 15.8612 87.5723L15.8346 87.4908C15.8251 87.4612 15.8186 87.4087 15.8169 87.3691C15.8486 87.2614 15.8974 87.2396 15.941 87.1881C15.9874 87.1468 16.0358 87.11 16.0866 87.0776C16.3055 86.9385 16.5646 86.8666 16.8213 86.8887C17.0795 86.9054 17.314 87.0289 17.4961 87.1847C17.8483 87.5144 18.0778 87.8952 18.299 88.2566C18.7293 88.9866 19.0532 89.6774 19.3113 90.271L19.2861 90.242C19.8599 90.6119 20.3342 90.9178 20.6919 91.1486C21.0226 91.3658 21.2019 91.4913 21.1951 91.5022Z" fill="#EB996E"/>
<path d="M27.3055 91.5629C27.2973 91.5875 27.0127 91.5077 26.5565 91.3795C26.1009 91.2554 25.4668 91.0788 24.7548 91.0614C24.044 91.0453 23.4118 91.2448 23.0177 91.4869C22.6177 91.7259 22.4411 91.9697 22.4166 91.9485C22.4016 91.942 22.5458 91.6625 22.9498 91.3812C23.347 91.0982 24.0126 90.8663 24.7583 90.8837C25.5022 90.9025 26.1449 91.1047 26.594 91.2598C27.0444 91.4201 27.313 91.5411 27.3055 91.5629Z" fill="#EB996E"/>
<path d="M26.8471 89.9518C26.8877 89.9821 26.736 90.246 26.589 90.5846C26.4394 90.9221 26.348 91.2123 26.2979 91.2031C26.2511 91.1959 26.2672 90.873 26.4264 90.5133C26.5836 90.1526 26.8103 89.9221 26.8471 89.9518Z" fill="#EB996E"/>
<path d="M61.975 60.9774C62.3958 58.1048 65.7405 53.9861 68.7004 53.9816C67.0038 51.5223 66.9779 48.062 68.637 45.5785C69.7792 43.8693 71.621 42.6125 72.4021 40.7178C73.2859 38.5742 72.6077 36.1524 72.6919 33.8418C72.8154 30.4595 74.575 27.3708 76.2887 24.4328C77.8577 21.7427 79.7719 18.7937 82.8602 18.133C84.8142 17.715 86.8405 18.3317 88.6752 19.1129C97.4534 22.8514 104.28 30.7312 106.622 39.8289C107.183 42.007 107.559 44.363 109.077 46.0459C110.684 47.8284 113.499 48.7954 113.981 51.1272C114.327 52.7992 113.254 54.4801 113.415 56.1788C113.55 57.6019 116.215 61.75 116.83 63.0459C117.888 65.2785 117.505 67.6908 116.428 69.9148C115.35 72.1388 112.606 74.3046 110.172 74.9105L82.9629 65.8438C80.403 67.301 77.853 72.9384 74.9143 73.2848C71.9756 73.6312 68.3898 74.9105 65.5626 71.8163C62.599 68.5732 61.5543 63.8499 61.975 60.9774Z" fill="#263238"/>
<path d="M107.091 33.9124C106.787 36.1893 107.411 39.9538 108.655 41.899C109.49 43.2045 110.884 44.0541 112.259 44.8008C113.634 45.5479 115.075 46.2642 116.117 47.4177C117.159 48.5711 117.718 50.3008 117.021 51.6823C119.473 52.5961 120.572 55.7186 119.673 58.1335C118.773 60.5485 116.307 62.1728 113.732 62.6556L102.509 59.2798L100.045 44.959L106.523 33.9121" fill="#263238"/>
<path d="M108.468 48.5103C108.471 48.5052 108.546 48.5382 108.688 48.6057C108.826 48.6794 109.047 48.7626 109.301 48.9242C109.821 49.2246 110.54 49.7459 111.268 50.5642C111.639 50.9669 111.982 51.4643 112.316 52.0197C112.624 52.5888 112.935 53.2175 113.133 53.9287C113.57 55.3304 113.665 57.0338 113.163 58.7082L113.122 58.6056C113.768 58.9657 114.392 59.4352 114.948 59.993C116.381 61.4141 117.199 63.2614 117.396 64.9897C117.586 66.7312 117.172 68.3092 116.592 69.4804C116.009 70.6621 115.285 71.4657 114.749 71.9601C114.476 72.2039 114.256 72.3839 114.096 72.4917C113.939 72.6035 113.855 72.6594 113.852 72.6547C113.849 72.6495 113.925 72.5837 114.074 72.4634C114.226 72.3471 114.438 72.1592 114.702 71.91C115.218 71.4044 115.919 70.5977 116.479 69.4262C117.036 68.2649 117.429 66.7118 117.233 65.0091C117.032 63.3183 116.226 61.5109 114.822 60.1191C114.278 59.5729 113.668 59.1126 113.037 58.7594L112.975 58.725L112.996 58.6564C113.489 57.0229 113.405 55.3546 112.985 53.9734C112.795 53.2731 112.494 52.6519 112.197 52.0883C111.873 51.538 111.541 51.0432 111.181 50.6409C110.474 49.8236 109.775 49.2935 109.269 48.9788C109.021 48.8103 108.807 48.7186 108.674 48.6358C108.537 48.558 108.466 48.5151 108.468 48.5103Z" fill="#455A64"/>
<path d="M75.2705 63.3418C75.2705 63.3418 70.2561 64.8665 68.4984 67.4234C67.255 69.2321 54.5237 96.8031 54.5237 96.8031L35.1974 90.9922L28.2876 100.119L49.7906 112.037C53.7774 114.247 58.6261 114.226 62.5931 111.981C64.7929 110.736 66.5857 108.882 67.7555 106.641L73.2231 96.1655L75.2705 63.3418Z" fill="#DC7E3F"/>
<path d="M70.1389 123.392L73.1567 110.385L70.8703 100.94C69.3994 96.077 68.1368 88.1553 69.7369 81.775L75.0818 63.4276L80.9584 60.7251L94.406 58.4121C94.9233 58.5846 108.468 62.4098 108.468 62.4098C110.343 62.8452 111.096 63.1442 111.096 63.1442L112.649 73.1881L107.979 89.7424L105.945 106.237L110.413 123.392H70.1389Z" fill="#DC7E3F"/>
<path d="M77.9112 62.1282L81.811 60.3828L99.3872 60.6276L103.544 63.0405C103.544 63.0405 89.0239 79.0668 85.3795 79.597C76.2132 80.9298 77.9112 62.1282 77.9112 62.1282Z" fill="#FFBE9D"/>
<path d="M110.715 63.0078C110.715 63.0078 113.348 63.6001 115.605 68.4147C117.862 73.229 121.51 86.6278 121.51 86.6278L123.07 72.4284L135.777 73.8263L133.318 107.762C133.318 107.762 128.821 114.284 121.298 113.682C113.776 113.08 104.226 89.3023 104.226 89.3023L110.715 63.0078Z" fill="#DC7E3F"/>
<path d="M119.526 103.968C119.523 103.967 119.522 103.94 119.523 103.885C119.526 103.821 119.53 103.742 119.533 103.645C119.547 103.419 119.565 103.111 119.589 102.722C119.637 101.92 119.733 100.761 119.866 99.3307C120.131 96.4697 120.615 92.5293 121.209 88.1879C121.803 83.8449 122.307 79.9102 122.604 77.0544C122.752 75.6265 122.867 74.4703 122.936 73.6704C122.974 73.2824 123.004 72.9752 123.025 72.7498C123.037 72.6537 123.045 72.5753 123.053 72.5108C123.06 72.457 123.065 72.4297 123.068 72.4297C123.071 72.43 123.072 72.458 123.071 72.5122C123.068 72.577 123.065 72.6557 123.061 72.7526C123.048 72.9783 123.029 73.2865 123.006 73.6759C122.957 74.4778 122.862 75.6364 122.729 77.0667C122.464 79.9276 121.979 83.8684 121.385 88.2115C120.791 92.5528 120.287 96.4871 119.99 99.343C119.842 100.771 119.727 101.927 119.658 102.727C119.62 103.115 119.591 103.422 119.569 103.648C119.558 103.744 119.549 103.822 119.541 103.887C119.535 103.94 119.529 103.968 119.526 103.968Z" fill="#263238"/>
<path d="M54.7432 104.128C54.7319 104.133 54.6825 104.043 54.6024 103.874C54.5205 103.707 54.4186 103.457 54.3071 103.142C54.0834 102.515 53.8502 101.616 53.7506 100.6C53.6535 99.5843 53.7097 98.6569 53.809 97.9981C53.8581 97.6684 53.9102 97.4035 53.9583 97.2235C54.0043 97.0431 54.0357 96.9446 54.0476 96.9473C54.0763 96.9535 53.9992 97.3565 53.9337 98.0131C53.8673 98.6691 53.8318 99.5822 53.9276 100.583C54.0258 101.583 54.2358 102.472 54.4268 103.104C54.6167 103.736 54.7698 104.117 54.7432 104.128Z" fill="#263238"/>
<path d="M56.8805 104.441C56.8706 104.448 56.7915 104.358 56.6565 104.187C56.5194 104.018 56.337 103.762 56.1263 103.435C55.7035 102.782 55.1948 101.826 54.8024 100.703C54.4123 99.5774 54.2176 98.5115 54.144 97.7376C54.1065 97.3506 54.0901 97.0359 54.0925 96.8184C54.0925 96.6008 54.0986 96.4808 54.1109 96.4805C54.1409 96.4794 54.1627 96.9585 54.2688 97.7222C54.3738 98.4856 54.5852 99.5327 54.9705 100.644C55.3581 101.753 55.842 102.705 56.2337 103.369C56.6244 104.034 56.9047 104.423 56.8805 104.441Z" fill="#263238"/>
<path d="M71.925 74.1211C71.9308 74.1228 71.9086 74.2176 71.8609 74.3963C71.807 74.5899 71.7347 74.8494 71.644 75.1754C71.448 75.8682 71.1721 76.8409 70.8336 78.0363C70.1731 80.454 69.2539 83.8117 68.8137 87.6137C68.5938 89.5122 68.5495 91.3404 68.7391 92.9844C68.914 94.6299 69.2768 96.0834 69.6344 97.2832C69.9938 98.484 70.3341 99.4415 70.5669 100.104C70.6791 100.423 70.7684 100.677 70.8353 100.866C70.8953 101.041 70.9239 101.134 70.9181 101.136C70.9123 101.138 70.8724 101.05 70.8018 100.879C70.7272 100.692 70.6276 100.442 70.5022 100.127C70.2492 99.4721 69.8905 98.5202 69.5141 97.3197C69.14 96.1205 68.7616 94.6606 68.5764 93.0025C68.3763 91.3462 68.4165 89.5006 68.6375 87.5936C69.0797 83.7736 70.0211 80.4128 70.7129 78.0022C71.0651 76.7962 71.3661 75.8256 71.5779 75.1559C71.6819 74.8341 71.7647 74.5777 71.8268 74.3864C71.8854 74.2105 71.9188 74.1194 71.925 74.1211Z" fill="#263238"/>
<path d="M107.46 96.4848C107.457 96.4861 107.441 96.4578 107.414 96.4016C107.383 96.3354 107.343 96.2526 107.295 96.1496C107.188 95.9144 107.04 95.5877 106.852 95.1731C106.664 94.7473 106.424 94.2304 106.168 93.6204C105.922 93.004 105.642 92.305 105.334 91.5334C105.034 90.7567 104.745 89.8907 104.414 88.9684C104.269 88.5003 104.12 88.0165 103.965 87.518C103.889 87.2684 103.811 87.0151 103.732 86.7587C103.659 86.5006 103.595 86.236 103.525 85.9694C102.953 83.8432 102.466 81.4541 102.323 78.9085C102.167 76.3671 102.409 73.9112 103.058 71.7945C103.665 69.6636 104.733 67.9151 105.872 66.6938C107.01 65.4592 108.196 64.747 109.044 64.3672C109.473 64.181 109.814 64.0555 110.051 63.9942C110.161 63.9635 110.25 63.9386 110.32 63.9188C110.381 63.9028 110.412 63.8963 110.413 63.899C110.414 63.9021 110.384 63.9147 110.325 63.9362C110.256 63.9601 110.17 63.9904 110.062 64.0279C109.829 64.1002 109.494 64.2356 109.073 64.4296C108.24 64.8254 107.078 65.5465 105.965 66.7781C104.85 67.9983 103.808 69.7277 103.214 71.8406C102.58 73.9405 102.346 76.3722 102.5 78.898C102.642 81.4265 103.122 83.806 103.683 85.9271C103.751 86.1931 103.819 86.4552 103.886 86.7144C103.963 86.9704 104.039 87.2234 104.114 87.4727C104.265 87.9705 104.412 88.4543 104.553 88.9217C104.877 89.8437 105.159 90.71 105.45 91.4884C105.749 92.2624 106.02 92.9637 106.259 93.5819C106.506 94.1946 106.737 94.7149 106.915 95.1445C107.09 95.5645 107.228 95.8953 107.327 96.1339C107.369 96.24 107.403 96.3252 107.43 96.3931C107.453 96.4527 107.462 96.4834 107.46 96.4848Z" fill="#263238"/>
<g opacity="0.3">
<path d="M102.617 81.1113C100.955 88.97 100.933 97.0544 103.793 104.56C103.959 104.996 104.616 106.543 105.081 106.566C105.671 106.595 105.951 105.861 106.053 105.279C106.263 104.083 106.392 102.114 106.602 100.918C106.865 99.4203 107.221 95.9527 107.221 95.9527C107.221 95.9527 105.847 92.8081 105.243 91.1218C104.122 87.9928 103.174 85.0064 102.651 81.3592" fill="black"/>
</g>
<path d="M101.26 111.553C101.265 111.556 101.219 111.627 101.127 111.758C101.024 111.903 100.888 112.092 100.719 112.327C100.628 112.452 100.529 112.588 100.421 112.736C100.306 112.882 100.17 113.03 100.03 113.195C99.7425 113.517 99.4374 113.906 99.0357 114.276C98.8407 114.467 98.6368 114.666 98.4247 114.874C98.2103 115.08 97.9641 115.269 97.7214 115.478C97.2433 115.906 96.6767 116.292 96.0923 116.714C94.8911 117.509 93.4963 118.275 91.949 118.89C90.3932 119.485 88.8473 119.864 87.4245 120.092C86.7089 120.177 86.0304 120.276 85.3887 120.284C85.0685 120.294 84.7596 120.322 84.4623 120.315C84.1657 120.306 83.8803 120.297 83.6075 120.288C83.062 120.288 82.5741 120.208 82.1442 120.165C81.9297 120.139 81.7289 120.122 81.5465 120.092C81.3664 120.056 81.2007 120.023 81.0497 119.993C80.766 119.934 80.5383 119.886 80.3644 119.85C80.2082 119.816 80.1271 119.794 80.1284 119.789C80.1298 119.782 80.2137 119.792 80.3719 119.815C80.5471 119.843 80.7762 119.88 81.0616 119.925C81.213 119.95 81.3787 119.978 81.5587 120.009C81.7412 120.033 81.9416 120.045 82.1554 120.067C82.5843 120.1 83.0702 120.171 83.6123 120.163C83.8834 120.168 84.1667 120.173 84.4616 120.179C84.7569 120.182 85.0634 120.15 85.3812 120.137C86.0181 120.123 86.6908 120.019 87.4003 119.93C88.8105 119.696 90.3421 119.314 91.8849 118.725C93.4195 118.115 94.8048 117.359 96.0016 116.578C96.5839 116.163 97.1496 115.785 97.6279 115.364C97.8707 115.159 98.1176 114.974 98.333 114.772C98.5465 114.569 98.7517 114.374 98.9478 114.186C99.3525 113.825 99.6624 113.444 99.9553 113.129C100.098 112.969 100.238 112.825 100.356 112.683C100.468 112.539 100.571 112.406 100.665 112.285C100.845 112.058 100.989 111.876 101.099 111.737C101.199 111.613 101.255 111.549 101.26 111.553Z" fill="#263238"/>
<path d="M98.4863 106.357C98.4983 106.36 98.4816 106.492 98.441 106.73C98.4035 106.968 98.3237 107.309 98.203 107.724C97.964 108.554 97.5095 109.672 96.7918 110.784C96.0703 111.894 95.235 112.765 94.5756 113.323C94.2462 113.602 93.9676 113.815 93.7655 113.946C93.565 114.08 93.4511 114.15 93.4439 114.14C93.4252 114.114 93.8609 113.807 94.492 113.229C95.1238 112.653 95.9312 111.781 96.6428 110.687C97.3503 109.591 97.816 108.498 98.0833 107.686C98.3527 106.874 98.455 106.351 98.4863 106.357Z" fill="#263238"/>
<path d="M92.2963 15.959C97.054 15.9914 101.708 18.6774 104.115 22.7811C106.523 26.8845 106.599 32.2573 104.306 36.4265C103.525 37.8479 102.401 39.1937 100.857 39.6891C101.382 31.5352 98.1324 23.2145 92.2192 17.5758" fill="#ECBA4E"/>
<path d="M97.8641 17.189C97.1577 15.7201 97.9139 13.8824 99.1734 12.8479C100.433 11.8135 102.074 11.3958 103.66 11.017C105.245 10.6386 106.887 10.2454 108.175 9.24609C107.99 11.7998 107.355 14.4276 105.702 16.3833C104.049 18.3387 101.186 19.4284 98.8256 18.4348" fill="#ECBA4E"/>
<path d="M99.5021 18.8743C98.4172 19.3308 97.1236 19.0455 96.1526 18.3803C95.1815 17.7151 94.487 16.7184 93.9169 15.6884C93.2169 14.4231 92.667 13.0562 92.4805 11.6225C92.294 10.1888 92.49 8.67975 93.1995 7.41992C95.0663 9.40837 97.1215 11.079 98.1887 13.5888C98.8154 15.0631 98.7394 17.4269 98.0674 18.8811" fill="#ECBA4E"/>
<path d="M104.788 27.1387C104.8 27.137 104.833 27.3054 104.881 27.613C104.907 27.7664 104.934 27.9549 104.951 28.1752C104.97 28.3954 105.001 28.6457 105.006 28.9243C105.037 29.4804 105.027 30.1449 104.972 30.8796C104.906 31.6134 104.789 32.4173 104.596 33.2459C104.395 34.0734 104.138 34.8439 103.865 35.5286C103.584 36.2098 103.293 36.8075 103.015 37.2903C102.885 37.5364 102.745 37.7461 102.629 37.9343C102.514 38.1232 102.405 38.2794 102.313 38.4049C102.131 38.6575 102.027 38.7932 102.016 38.7864C102.007 38.7792 102.092 38.6299 102.255 38.367C102.338 38.2364 102.438 38.0758 102.544 37.8829C102.651 37.6912 102.783 37.4785 102.905 37.2303C103.167 36.7437 103.443 36.146 103.713 35.4682C103.974 34.787 104.224 34.0236 104.423 33.205C104.614 32.385 104.735 31.5909 104.808 30.8653C104.872 30.1387 104.895 29.4807 104.88 28.9284C104.883 28.6518 104.861 28.4026 104.852 28.183C104.844 27.9631 104.827 27.7749 104.812 27.6208C104.785 27.3122 104.776 27.1404 104.788 27.1387Z" fill="#263238"/>
<path d="M103.724 17.9994C103.731 18.0086 103.598 18.1147 103.346 18.3002C103.075 18.4491 102.668 18.6677 102.115 18.7768C101.018 19.0267 99.4336 18.9746 97.7609 18.5286L97.7111 18.5153L97.6998 18.4645C97.677 18.3625 97.6528 18.2528 97.6282 18.1426C97.4489 17.2579 97.4066 16.3853 97.5157 15.6063C97.6146 14.8258 97.885 14.147 98.2317 13.6611C98.5665 13.1613 98.976 12.8827 99.2433 12.6952C99.5349 12.5373 99.6971 12.4569 99.7026 12.4678C99.7081 12.4787 99.5567 12.5803 99.2819 12.7528C99.0309 12.955 98.6453 13.24 98.3357 13.7317C98.0139 14.2097 97.7653 14.8674 97.6777 15.6277C97.5805 16.3857 97.6262 17.2394 97.8021 18.1072C97.826 18.2153 97.8499 18.3227 97.8724 18.4226L97.8113 18.3585C99.4517 18.7983 101.015 18.8706 102.09 18.6568C102.634 18.5658 103.036 18.37 103.313 18.2422C103.569 18.0778 103.716 17.9902 103.724 17.9994Z" fill="#263238"/>
<path d="M105.12 13.5775C105.126 13.6099 104.622 13.6805 103.84 13.912C103.449 14.0252 102.993 14.1926 102.501 14.4081C102.012 14.6314 101.488 14.9076 100.967 15.2452C100.45 15.5878 99.9874 15.9581 99.5874 16.3171C99.1933 16.6826 98.8578 17.0338 98.5976 17.3475C98.0736 17.9718 97.8076 18.4055 97.78 18.3877C97.7694 18.3813 97.8288 18.2691 97.9454 18.0703C98.0589 17.8698 98.2475 17.5937 98.5001 17.268C98.7507 16.9404 99.0814 16.5749 99.4759 16.1968C99.8762 15.8251 100.343 15.4446 100.87 15.0962C101.399 14.7528 101.934 14.4763 102.435 14.2578C102.939 14.047 103.406 13.8895 103.806 13.7903C104.206 13.6887 104.534 13.626 104.763 13.6018C104.992 13.5748 105.119 13.5653 105.12 13.5775Z" fill="#263238"/>
<path d="M99.4288 18.8314C99.4346 18.8328 99.4301 18.8679 99.4155 18.934C99.4042 19.0012 99.3729 19.096 99.3244 19.2157C99.2256 19.453 99.0166 19.7782 98.65 20.0684C98.2849 20.3487 97.7465 20.5948 97.1174 20.5631C96.4877 20.5416 95.8355 20.1608 95.4301 19.5692C95.0247 18.9777 94.9046 18.2317 95.1123 17.6364C95.3097 17.038 95.7338 16.6248 96.127 16.3857C96.5296 16.1488 96.9088 16.071 97.1655 16.0649C97.2947 16.0629 97.3943 16.0676 97.4611 16.0816C97.528 16.0918 97.562 16.1004 97.5614 16.1062C97.5597 16.1246 97.4192 16.1051 97.171 16.1338C96.9241 16.1607 96.5675 16.2541 96.1935 16.4925C95.828 16.7325 95.441 17.1324 95.2681 17.6861C95.086 18.2341 95.1999 18.9173 95.5767 19.469C95.9551 20.019 96.5511 20.3718 97.1277 20.3998C97.7063 20.4383 98.2191 20.2218 98.575 19.9678C98.932 19.7053 99.1482 19.4063 99.2624 19.1857C99.3783 18.9644 99.4107 18.8263 99.4288 18.8314Z" fill="#263238"/>
<path d="M95.2958 18.9171C95.2794 18.9341 95.1775 18.7316 95.3391 18.4657C95.4148 18.3405 95.5583 18.212 95.7438 18.1496C95.9279 18.0828 96.1413 18.0708 96.3527 18.0858C97.2037 18.1462 97.8226 18.4779 97.7994 18.5172C97.7806 18.5666 97.1529 18.3194 96.3408 18.2631C95.9388 18.2222 95.59 18.3283 95.442 18.5376C95.2838 18.7357 95.3237 18.9147 95.2958 18.9171Z" fill="#263238"/>
<path d="M93.2 7.41816C93.2334 7.43351 92.8232 7.9163 92.6797 8.87642C92.6013 9.35137 92.5907 9.92691 92.5989 10.5686C92.6067 11.2086 92.6354 11.9137 92.7806 12.6327C93.1042 14.0647 93.6896 15.2969 94.2368 16.0845C94.5137 16.4814 94.7578 16.7893 94.9307 16.9973C95.1039 17.2056 95.2113 17.3096 95.2031 17.3195C95.1827 17.3451 94.7183 16.9438 94.1349 16.1579C93.5491 15.3689 92.9385 14.1346 92.6067 12.6682C92.4581 11.93 92.4346 11.2137 92.4356 10.5693C92.4363 9.92588 92.4598 9.33842 92.5563 8.8546C92.6466 8.36943 92.8065 7.99608 92.946 7.75946C93.0858 7.52215 93.1932 7.41271 93.2 7.41816Z" fill="#263238"/>
<path d="M94.9667 11.4615C94.9848 11.4482 95.1771 11.6634 95.4461 12.0442C95.7151 12.4244 96.0547 12.9757 96.352 13.6242C96.6497 14.273 96.8434 14.8915 96.9511 15.345C97.0585 15.7991 97.0895 16.0862 97.068 16.0907C97.0128 16.1036 96.781 14.9754 96.1908 13.6982C95.606 12.4196 94.9187 11.4953 94.9667 11.4615Z" fill="#263238"/>
<path d="M94.3898 13.5871C94.4256 13.5567 94.9994 14.1377 95.7519 14.8121C96.5017 15.4896 97.1021 16.0529 97.0673 16.0921C97.037 16.1265 96.3861 15.625 95.6322 14.9434C94.8753 14.2646 94.3502 13.6198 94.3898 13.5871Z" fill="#263238"/>
<path d="M103.313 21.5861C103.315 21.5881 103.298 21.6045 103.264 21.6342C103.216 21.6751 103.167 21.717 103.114 21.762C102.984 21.8735 102.786 22.0225 102.532 22.1943C102.026 22.5391 101.276 22.9482 100.386 23.2421C99.4944 23.5333 98.6475 23.6485 98.0358 23.671C97.73 23.683 97.4814 23.6806 97.311 23.668C97.2421 23.6632 97.1773 23.6584 97.1146 23.654C97.0696 23.6499 97.0464 23.6468 97.0464 23.6444C97.0464 23.642 97.0703 23.6403 97.1153 23.6397C97.178 23.64 97.2428 23.64 97.312 23.6403C97.4825 23.6444 97.7297 23.6393 98.0334 23.6209C98.641 23.5858 99.4794 23.4634 100.364 23.1746C101.247 22.8831 101.995 22.4845 102.505 22.1524C102.76 21.987 102.962 21.8449 103.097 21.7402C103.153 21.6993 103.205 21.6604 103.256 21.6232C103.292 21.5973 103.311 21.5844 103.313 21.5861Z" fill="#FAFAFA"/>
<path d="M105.322 25.715C105.323 25.717 105.306 25.7334 105.272 25.7627C105.224 25.803 105.173 25.8446 105.12 25.8889C104.989 25.999 104.79 26.147 104.535 26.3192C104.029 26.6639 103.283 27.0802 102.401 27.3993C101.518 27.7164 100.678 27.8715 100.068 27.9295C99.7628 27.9592 99.5146 27.9725 99.3434 27.9714C99.2742 27.9711 99.2091 27.9711 99.146 27.9708C99.101 27.9697 99.0771 27.968 99.0771 27.9656C99.0771 27.9633 99.1007 27.9602 99.1457 27.9564C99.2084 27.9523 99.2732 27.9483 99.3421 27.9435C99.5126 27.936 99.7594 27.9152 100.062 27.8794C100.668 27.8088 101.5 27.6469 102.377 27.3321C103.252 27.0151 103.996 26.609 104.508 26.2769C104.764 26.1112 104.967 25.9697 105.103 25.8667C105.159 25.8262 105.211 25.788 105.262 25.7511C105.3 25.7259 105.32 25.7133 105.322 25.715Z" fill="#FAFAFA"/>
<path d="M104.764 31.7309C104.767 31.735 104.715 31.7725 104.619 31.8373C104.524 31.9031 104.381 31.9897 104.2 32.0889C103.838 32.2877 103.312 32.5199 102.7 32.6805C102.088 32.8397 101.515 32.8953 101.102 32.899C100.896 32.9014 100.729 32.8959 100.614 32.885C100.498 32.8755 100.435 32.868 100.436 32.8629C100.436 32.8581 100.5 32.8564 100.615 32.8574C100.73 32.8598 100.896 32.8578 101.101 32.8489C101.511 32.8322 102.077 32.7694 102.682 32.6116C103.288 32.4524 103.812 32.2304 104.177 32.0442C104.36 31.9515 104.506 31.8721 104.605 31.8138C104.705 31.7565 104.761 31.7265 104.764 31.7309Z" fill="#FAFAFA"/>
<path d="M105.921 30.8112C105.925 30.8306 105.718 30.8865 105.46 30.9359C105.202 30.9857 104.99 31.0103 104.986 30.9912C104.983 30.9721 105.189 30.9162 105.447 30.8664C105.705 30.8166 105.917 30.7921 105.921 30.8112Z" fill="#FAFAFA"/>
<path d="M102.537 37.886C102.54 37.9041 102.191 37.9576 101.76 37.9252C101.328 37.8945 100.991 37.7905 100.996 37.7732C101 37.7527 101.34 37.8243 101.765 37.8543C102.189 37.8867 102.535 37.8652 102.537 37.886Z" fill="#FAFAFA"/>
<path d="M96.0663 20.0605C96.0758 20.0776 95.8723 20.2081 95.6118 20.3517C95.3513 20.4956 95.1324 20.5982 95.1229 20.5808C95.1133 20.5634 95.3169 20.4332 95.5774 20.2893C95.8379 20.1458 96.0568 20.0431 96.0663 20.0605Z" fill="#FAFAFA"/>
<path d="M94.3737 16.478C94.3826 16.4998 93.8828 16.6495 93.369 17.0184C92.8514 17.3825 92.5455 17.805 92.5278 17.7896C92.521 17.7849 92.5882 17.6734 92.7235 17.5128C92.8582 17.3522 93.0662 17.1469 93.328 16.9604C93.5899 16.7746 93.8524 16.6457 94.0481 16.5714C94.2438 16.4967 94.3714 16.4698 94.3737 16.478Z" fill="#FAFAFA"/>
<path d="M97.4447 20.4425C97.4216 20.4391 97.5395 19.9781 97.4628 19.4091C97.3926 18.839 97.1611 18.4234 97.1826 18.4142C97.1897 18.4101 97.2569 18.5076 97.3346 18.6822C97.4127 18.8561 97.4952 19.1101 97.5331 19.3999C97.5702 19.69 97.5549 19.9563 97.5239 20.1445C97.4928 20.3331 97.4529 20.4446 97.4447 20.4425Z" fill="#FAFAFA"/>
<path d="M107.994 9.32227C107.994 9.32227 107.875 9.47638 107.621 9.72016C107.368 9.96428 106.973 10.2899 106.441 10.6278C105.91 10.9653 105.241 11.3073 104.481 11.6414C103.721 11.978 102.871 12.3104 102.009 12.724C101.149 13.1389 100.362 13.6125 99.7474 14.1662C99.1323 14.7182 98.6904 15.333 98.4194 15.8949C98.1493 16.4591 98.0433 16.9617 98.0143 17.3095C97.984 17.6583 98.0089 17.8526 97.9973 17.853C97.9973 17.853 97.9908 17.8049 97.9857 17.7125C97.9765 17.6201 97.9782 17.4834 97.9867 17.3074C98.0075 16.9566 98.1067 16.4465 98.374 15.8734C98.642 15.3026 99.0842 14.678 99.7034 14.1175C100.322 13.5549 101.114 13.0765 101.978 12.6599C102.843 12.2446 103.695 11.9142 104.454 11.5814C105.214 11.251 105.882 10.9155 106.414 10.5852C106.946 10.2548 107.344 9.93701 107.602 9.70004C107.73 9.58105 107.828 9.48695 107.892 9.41978C107.958 9.35431 107.994 9.32227 107.994 9.32227Z" fill="#FAFAFA"/>
<path d="M107.072 13.3711C107.074 13.3725 107.058 13.3991 107.027 13.4485C106.983 13.5144 106.936 13.5846 106.885 13.6627C106.762 13.8488 106.571 14.1093 106.321 14.4203C105.824 15.0432 105.062 15.8506 104.099 16.5997C103.135 17.3467 102.164 17.8844 101.437 18.2117C101.073 18.3764 100.774 18.4974 100.563 18.57C100.474 18.6007 100.395 18.6287 100.32 18.6542C100.265 18.6727 100.235 18.6815 100.234 18.6791C100.234 18.6767 100.262 18.6638 100.316 18.6409C100.389 18.6113 100.467 18.5796 100.553 18.5441C100.76 18.464 101.056 18.3361 101.415 18.1663C102.134 17.8284 103.096 17.2867 104.055 16.5437C105.013 15.7984 105.776 15.0013 106.282 14.3886C106.536 14.0827 106.733 13.8277 106.862 13.6466C106.917 13.5716 106.968 13.5038 107.015 13.4407C107.05 13.3937 107.07 13.3698 107.072 13.3711Z" fill="#FAFAFA"/>
<path d="M92.8409 8.58008C92.8409 8.58008 93.2613 8.74033 93.8743 9.12731C94.4866 9.51157 95.2743 10.1498 95.9643 11.0172C96.6514 11.8873 97.0929 12.8004 97.3268 13.4844C97.5634 14.1693 97.6234 14.6153 97.6234 14.6153C97.621 14.6157 97.6122 14.5891 97.5975 14.5379C97.5788 14.468 97.559 14.394 97.5372 14.3136C97.4898 14.1179 97.4032 13.8386 97.2794 13.5011C97.0346 12.8253 96.5897 11.9245 95.9084 11.0612C95.2241 10.201 94.4485 9.56203 93.8467 9.16925C93.5463 8.97183 93.2943 8.82386 93.1146 8.73283C93.041 8.69327 92.9738 8.65713 92.9101 8.6227C92.8637 8.59678 92.8398 8.58212 92.8409 8.58008Z" fill="#FAFAFA"/>
<path d="M75.7414 21.4023C75.8747 23.2094 74.6814 24.8238 73.4788 26.1795C72.2763 27.5351 70.9384 28.948 70.6786 30.7414C70.2179 33.9198 73.3295 36.8704 72.6878 40.0171C72.3438 41.7035 70.9629 43.0581 70.7171 44.7618C70.4791 46.4093 71.3622 48.0221 72.4567 49.2764C73.5511 50.5308 74.8188 50.3474 75.7868 51.7016C76.8066 53.1282 78.4483 54.5923 79.9866 55.4344C83.4739 57.3441 87.6591 54.581 89.3414 54.0853" fill="#263238"/>
<path d="M102.113 28.8119C103.721 28.1123 103.847 22.3515 99.8136 21.6863C98.1958 21.4193 96.8483 20.63 95.4883 19.7146C94.284 18.9041 93.927 16.8468 92.9072 15.8134C90.4063 13.278 86.5017 12.2272 83.0663 13.1645C79.6308 14.1018 76.8005 16.99 75.9338 20.4439C75.3481 22.7781 75.748 25.5374 77.5878 27.0887C79.7232 28.889 82.889 28.489 85.6251 27.9292C88.3613 27.3694 91.4582 26.8167 93.7426 28.4236C95.1204 29.3926 95.91 30.9688 96.7522 32.4274C97.5944 33.8864 98.6513 35.3757 100.244 35.9239C100.244 35.9239 101.456 38.7736 100.467 40.7573C99.4768 42.741 101.631 39.358 101.631 39.358C101.631 39.358 105.557 32.3756 102.113 28.8119Z" fill="#263238"/>
<path d="M81.6853 69.2341C81.6628 65.473 81.6867 54.9123 81.6853 54.9317C81.6853 54.9317 75.7111 53.9263 74.4902 46.1262C73.8829 42.2472 74.0919 35.8897 74.4308 30.6933C74.736 26.016 77.8479 20.2836 82.5081 20.7868L97.0542 24.4978C98.4699 24.6505 99.533 25.8612 99.5019 27.2851L98.6165 63.4103L81.6853 69.2341Z" fill="#FFBE9D"/>
<path d="M76.9064 35.144C76.8866 35.6721 77.3173 36.1242 77.8686 36.1549C78.4185 36.1856 78.8816 35.7836 78.9013 35.2554C78.9211 34.7276 78.4905 34.2745 77.9405 34.2438C77.3892 34.2131 76.9265 34.6162 76.9064 35.144Z" fill="#263238"/>
<path d="M75.8038 34.0119C75.9276 34.1425 76.6865 33.5837 77.7626 33.5888C78.8376 33.5786 79.6259 34.134 79.7432 34.0024C79.8005 33.9444 79.6747 33.7085 79.3313 33.4572C78.9934 33.2073 78.4165 32.9635 77.7462 32.9648C77.0759 32.9669 76.5116 33.2127 76.187 33.4644C75.8556 33.718 75.7431 33.9536 75.8038 34.0119Z" fill="#263238"/>
<path d="M86.3807 35.7248C86.5049 35.8554 87.2645 35.2966 88.3399 35.3017C89.4146 35.2915 90.2035 35.8469 90.3205 35.7153C90.3778 35.657 90.2533 35.4217 89.9086 35.1704C89.5707 34.9202 88.9942 34.6764 88.3239 34.6777C87.6535 34.6801 87.0893 34.9256 86.7643 35.1772C86.4336 35.4306 86.3204 35.6662 86.3807 35.7248Z" fill="#263238"/>
<path d="M82.4569 42.2036C82.462 42.1423 81.7934 42.0253 80.7098 41.8842C80.435 41.8552 80.1752 41.7999 80.1292 41.6124C80.0651 41.4136 80.1807 41.1177 80.3143 40.7982C80.5741 40.1337 80.8462 39.4375 81.1316 38.7078C82.2666 35.7313 83.089 33.2836 82.9687 33.2389C82.8483 33.1942 81.8305 35.5707 80.6959 38.5472C80.4227 39.2813 80.1612 39.9809 79.9127 40.6506C79.808 40.9626 79.6283 41.3165 79.7678 41.7287C79.8414 41.9343 80.0426 42.0836 80.2189 42.1313C80.3948 42.1856 80.5496 42.189 80.6853 42.1971C81.776 42.2582 82.4528 42.2647 82.4569 42.2036Z" fill="#263238"/>
<path d="M81.6865 54.9323C81.6865 54.9323 86.9314 55.2822 92.1354 52.1699C92.0475 52.1887 89.2598 57.5904 81.7878 56.7738L81.6865 54.9323Z" fill="#EB996E"/>
<path d="M82.7674 45.3074C82.6392 44.6453 83.418 44.4305 83.9908 44.0746C84.5636 43.7186 84.8929 43.2454 85.4296 43.6538C85.7361 43.887 85.955 44.2222 86.0928 44.5819C86.1855 44.8243 86.2438 45.0879 86.2002 45.3436C86.1473 45.6545 85.9496 45.9229 85.7208 46.1397C85.3972 46.4466 84.9925 46.6774 84.5527 46.751C84.1128 46.8244 83.6379 46.7296 83.2877 46.4537C82.9376 46.1776 82.7309 45.7132 82.8056 45.2737" fill="#EB996E"/>
<path d="M85.6236 42.9474C85.4487 42.9368 85.444 44.1049 84.4422 44.9317C83.4425 45.7613 82.1977 45.6273 82.1882 45.7906C82.1715 45.8639 82.465 46.018 82.9904 46.0334C83.506 46.0521 84.2591 45.8884 84.8718 45.3825C85.4828 44.8755 85.7467 44.1977 85.7876 43.7186C85.833 43.2304 85.7034 42.9409 85.6236 42.9474Z" fill="#263238"/>
<path d="M86.2189 33.3021C86.3242 33.5946 87.3992 33.4586 88.6611 33.6134C89.9264 33.7429 90.9438 34.1149 91.1119 33.8527C91.1869 33.7272 91.01 33.4517 90.5991 33.1677C90.1917 32.8841 89.5411 32.6137 88.7835 32.5278C88.0256 32.4432 87.3317 32.5619 86.8711 32.748C86.4074 32.9335 86.1739 33.163 86.2189 33.3021Z" fill="#263238"/>
<path d="M75.9528 30.2844C76.1416 30.5292 76.8832 30.2772 77.7748 30.267C78.6657 30.2257 79.4206 30.4347 79.5952 30.1797C79.6715 30.0556 79.5532 29.8108 79.2239 29.5786C78.8993 29.3474 78.3561 29.1578 77.7434 29.1749C77.1311 29.193 76.5999 29.4136 76.2893 29.6631C75.9736 29.9134 75.8696 30.1647 75.9528 30.2844Z" fill="#263238"/>
<path d="M100.354 50.5902C98.21 51.0225 98.0187 49.9311 96.4166 48.4418C94.8144 46.9526 93.9869 44.6712 94.2617 42.501C94.5041 40.5859 95.5366 38.6377 94.8727 36.8248C93.9948 34.4283 90.6357 33.6911 89.7441 31.2997C89.2258 29.9099 89.6909 28.2839 89.1038 26.9218C88.5514 25.6408 87.204 24.9033 85.8923 24.4291C84.5806 23.9548 83.1742 23.6275 82.0729 22.7714C80.9716 21.9152 80.285 20.2998 80.9952 19.0996C86.8122 19.7965 92.5454 21.1897 98.0337 23.2395C99.3062 23.7148 100.643 24.2859 101.396 25.4168C102.192 26.6136 102.153 28.1601 102.087 29.5959C101.76 36.5974 101.433 43.5986 101.106 50.6001" fill="#263238"/>
<path d="M105.324 47.9707C105.328 47.9741 105.357 47.9414 105.409 47.8739C105.457 47.804 105.544 47.7082 105.624 47.5619C105.8 47.2793 106.012 46.8241 106.138 46.1985C106.263 45.5762 106.274 44.7695 106.013 43.896C105.769 43.0242 105.162 42.0879 104.198 41.4554C103.273 40.8032 102.069 40.3487 101.303 39.3108C100.921 38.8042 100.76 38.1461 100.88 37.4799C100.984 36.8109 101.29 36.155 101.558 35.4567C102.155 34.0594 102.16 32.3141 101.458 30.8013C101.104 30.0491 100.579 29.3478 99.8752 28.8357C99.1769 28.3075 98.3242 28.0355 97.4834 27.8442C96.6389 27.6515 95.7967 27.5397 95.0146 27.3038C94.2348 27.0706 93.4891 26.7211 92.947 26.1728C92.3913 25.6314 92.1557 24.882 92.0503 24.1271C91.9439 23.3729 91.8873 22.5904 91.6831 21.8601C91.3019 20.3977 90.5586 19.1021 89.5787 18.1713C88.5992 17.2347 87.399 16.697 86.266 16.5279C85.1289 16.3506 84.0573 16.5613 83.2516 16.9841C82.4371 17.3987 81.8718 17.9735 81.508 18.4935C81.1456 19.0203 80.9764 19.4939 80.898 19.8167C80.8172 20.1406 80.8223 20.3183 80.8223 20.3183C80.8728 20.3394 80.8834 19.5866 81.6164 18.5716C81.9857 18.0785 82.5465 17.5375 83.3372 17.1556C84.1183 16.7662 85.1409 16.5831 86.2282 16.7669C87.3104 16.9435 88.4549 17.4727 89.3813 18.3759C90.3108 19.2753 91.0172 20.5252 91.3773 21.9395C91.5703 22.646 91.6197 23.3906 91.7264 24.1758C91.8277 24.9478 92.0871 25.8036 92.7073 26.4088C93.3084 27.0184 94.1052 27.3859 94.916 27.6307C95.7354 27.8783 96.5802 27.9894 97.4071 28.1787C98.2294 28.3655 99.031 28.6253 99.6727 29.1108C100.325 29.5834 100.817 30.2367 101.152 30.9435C101.816 32.3731 101.825 34.0028 101.262 35.3452C101.004 36.0319 100.691 36.7056 100.581 37.4352C100.451 38.1608 100.646 38.9327 101.072 39.4789C101.923 40.5976 103.163 41.033 104.061 41.6566C104.994 42.2536 105.573 43.1176 105.829 43.9546C106.098 44.7883 106.108 45.5687 106.006 46.1766C105.793 47.4092 105.272 47.9489 105.324 47.9707Z" fill="#455A64"/>
<path d="M95.1781 40.2227C93.4127 44.2862 93.0854 48.9576 94.2671 53.2274C94.6203 54.5029 95.1076 55.8254 94.8061 57.1142C94.4799 58.5094 93.3134 59.5187 92.4621 60.6714C90.997 62.6558 90.4259 65.275 90.9326 67.689C91.4389 70.1029 93.0144 72.2721 95.1532 73.5002C95.3786 72.2178 96.5716 71.3436 97.7479 70.7862C98.9245 70.2287 100.225 69.8151 101.122 68.8721C102.019 67.9286 102.273 66.1993 101.23 65.4202C104.232 64.636 105.933 61.0707 105.301 58.0331C104.669 54.9955 102.199 52.5959 99.3889 51.2802" fill="#263238"/>
<path d="M98.3791 70.5012C97.8421 70.7955 97.3214 71.0587 97.2553 71.6673C97.1776 72.3813 97.8622 73.635 98.1084 74.3097C98.5894 75.6299 98.227 77.217 97.2202 78.1973C96.2133 79.1775 94.617 79.4973 93.3101 78.9811C94.2706 79.0548 95.0858 78.1175 95.171 77.1581C95.2566 76.1986 94.7912 75.2722 94.2184 74.4976C93.6459 73.7226 92.9524 73.0342 92.4669 72.2019C91.4785 70.5081 90.0107 65.8997 91.1406 63.3184" fill="#263238"/>
<path d="M101.108 65.537C101.105 65.5319 101.168 65.4783 101.293 65.3815C101.418 65.2857 101.599 65.1404 101.828 64.9481C102.282 64.5622 102.927 63.9781 103.581 63.1356C104.23 62.2976 104.894 61.1857 105.241 59.8226C105.582 58.4707 105.607 56.8566 105.021 55.3452C104.73 54.592 104.295 53.9247 103.788 53.3526C103.286 52.7754 102.739 52.2725 102.227 51.7839C101.713 51.2956 101.229 50.821 100.827 50.3277C100.425 49.8336 100.121 49.3184 99.9102 48.8193C99.4737 47.822 99.4563 46.8973 99.6094 46.3133C99.6872 46.02 99.7847 45.8042 99.8645 45.6675C99.946 45.5311 99.991 45.4616 99.9964 45.465C100.02 45.4759 99.8116 45.75 99.677 46.3289C99.5484 46.9041 99.5842 47.7995 100.025 48.7692C100.239 49.254 100.543 49.7552 100.941 50.2342C101.34 50.715 101.824 51.1814 102.339 51.6652C102.854 52.1501 103.407 52.6533 103.919 53.2387C104.437 53.818 104.888 54.5071 105.187 55.2814C105.789 56.8355 105.757 58.4864 105.401 59.8638C105.037 61.2539 104.349 62.3753 103.68 63.214C103.006 64.0569 102.342 64.6311 101.872 65.0027C101.635 65.1875 101.447 65.3246 101.314 65.4115C101.183 65.4981 101.112 65.5418 101.108 65.537Z" fill="#455A64"/>
<g filter="url(#filter0_d_1707_21011)">
<path d="M33.437 54.8386C34.0603 55.2418 34.6102 55.8101 35.0868 56.5433C35.6001 57.2399 35.8567 58.1198 35.8567 59.183C35.8567 59.7696 35.8017 60.3745 35.6917 60.9977C35.5817 61.5843 35.3984 62.1709 35.1418 62.7575L23.7033 88.6591C23.1901 88.6957 22.6951 88.7141 22.2185 88.7141C21.7786 88.7141 21.357 88.7141 20.9537 88.7141C19.3039 88.7141 17.9657 88.4025 16.9392 87.7792C15.9127 87.1559 15.3994 86.0744 15.3994 84.5346C15.3994 83.7647 15.5827 82.9398 15.9493 82.06C16.316 81.1434 16.8109 80.0619 17.4341 78.8154L25.4631 62.3726H11.9899C11.7699 61.9693 11.5499 61.4377 11.33 60.7778C11.11 60.1179 11 59.4213 11 58.6881C11 57.2949 11.3116 56.305 11.9349 55.7184C12.5581 55.1319 13.3464 54.8386 14.2996 54.8386H33.437Z" fill="white"/>
<path d="M58.588 71.5563C58.588 68.3301 58.1114 65.8371 57.1582 64.0773C56.2417 62.3176 54.9219 61.4377 53.1987 61.4377C51.4756 61.4377 50.1558 62.3176 49.2393 64.0773C48.3594 65.8371 47.9194 68.3301 47.9194 71.5563C47.9194 74.7826 48.3594 77.2939 49.2393 79.0903C50.1558 80.8501 51.4756 81.73 53.1987 81.73C54.9219 81.73 56.2417 80.8501 57.1582 79.0903C58.1114 77.2939 58.588 74.7826 58.588 71.5563ZM67.9918 71.5563C67.9918 74.3793 67.6252 76.8906 66.8919 79.0903C66.1587 81.2901 65.1322 83.1415 63.8123 84.6446C62.5292 86.1111 60.9711 87.2293 59.138 87.9992C57.3415 88.7691 55.3801 89.154 53.2537 89.154C51.0907 89.154 49.0926 88.7691 47.2595 87.9992C45.4631 87.2293 43.905 86.1111 42.5852 84.6446C41.302 83.1415 40.2938 81.2901 39.5606 79.0903C38.864 76.8906 38.5157 74.3793 38.5157 71.5563C38.5157 68.7334 38.864 66.2404 39.5606 64.0773C40.2938 61.8776 41.302 60.0445 42.5852 58.5781C43.905 57.0749 45.4631 55.9384 47.2595 55.1685C49.0926 54.3986 51.0907 54.0137 53.2537 54.0137C55.3801 54.0137 57.3415 54.3986 59.138 55.1685C60.9711 55.9384 62.5292 57.0749 63.8123 58.5781C65.1322 60.0445 66.1587 61.8776 66.8919 64.0773C67.6252 66.2404 67.9918 68.7334 67.9918 71.5563Z" fill="white"/>
<path d="M91.9381 71.5563C91.9381 68.3301 91.4615 65.8371 90.5083 64.0773C89.5918 62.3176 88.2719 61.4377 86.5488 61.4377C84.8257 61.4377 83.5059 62.3176 82.5893 64.0773C81.7095 65.8371 81.2695 68.3301 81.2695 71.5563C81.2695 74.7826 81.7095 77.2939 82.5893 79.0903C83.5059 80.8501 84.8257 81.73 86.5488 81.73C88.2719 81.73 89.5918 80.8501 90.5083 79.0903C91.4615 77.2939 91.9381 74.7826 91.9381 71.5563ZM101.342 71.5563C101.342 74.3793 100.975 76.8906 100.242 79.0903C99.5088 81.2901 98.4822 83.1415 97.1624 84.6446C95.8792 86.1111 94.3211 87.2293 92.488 87.9992C90.6916 88.7691 88.7302 89.154 86.6038 89.154C84.4408 89.154 82.4427 88.7691 80.6096 87.9992C78.8132 87.2293 77.2551 86.1111 75.9352 84.6446C74.6521 83.1415 73.6439 81.2901 72.9106 79.0903C72.2141 76.8906 71.8658 74.3793 71.8658 71.5563C71.8658 68.7334 72.2141 66.2404 72.9106 64.0773C73.6439 61.8776 74.6521 60.0445 75.9352 58.5781C77.2551 57.0749 78.8132 55.9384 80.6096 55.1685C82.4427 54.3986 84.4408 54.0137 86.6038 54.0137C88.7302 54.0137 90.6916 54.3986 92.488 55.1685C94.3211 55.9384 95.8792 57.0749 97.1624 58.5781C98.4822 60.0445 99.5088 61.8776 100.242 64.0773C100.975 66.2404 101.342 68.7334 101.342 71.5563Z" fill="white"/>
<path d="M33.4813 54.6886L33.5185 54.7126C34.1613 55.1285 34.7247 55.7119 35.2102 56.4579C35.7447 57.1851 36.0067 58.097 36.0067 59.183C36.0067 59.779 35.9508 60.3926 35.8394 61.0238L35.8392 61.0254C35.7269 61.6239 35.5401 62.2214 35.2792 62.8176L35.279 62.8181L23.8405 88.7197L23.8041 88.8023L23.714 88.8087C23.1975 88.8456 22.699 88.8641 22.2185 88.8641H22.2159H22.2134H22.2108H22.2082H22.2056H22.2031H22.2005H22.1979H22.1953H22.1928H22.1902H22.1876H22.185H22.1825H22.1799H22.1773H22.1748H22.1722H22.1696H22.167H22.1645H22.1619H22.1593H22.1568H22.1542H22.1516H22.1491H22.1465H22.1439H22.1414H22.1388H22.1362H22.1337H22.1311H22.1285H22.126H22.1234H22.1209H22.1183H22.1157H22.1132H22.1106H22.1081H22.1055H22.1029H22.1004H22.0978H22.0953H22.0927H22.0901H22.0876H22.085H22.0825H22.0799H22.0774H22.0748H22.0723H22.0697H22.0672H22.0646H22.062H22.0595H22.0569H22.0544H22.0518H22.0493H22.0467H22.0442H22.0416H22.0391H22.0365H22.034H22.0315H22.0289H22.0264H22.0238H22.0213H22.0187H22.0162H22.0136H22.0111H22.0085H22.006H22.0035H22.0009H21.9984H21.9958H21.9933H21.9908H21.9882H21.9857H21.9831H21.9806H21.9781H21.9755H21.973H21.9704H21.9679H21.9654H21.9628H21.9603H21.9578H21.9552H21.9527H21.9502H21.9476H21.9451H21.9426H21.94H21.9375H21.935H21.9324H21.9299H21.9274H21.9248H21.9223H21.9198H21.9173H21.9147H21.9122H21.9097H21.9071H21.9046H21.9021H21.8996H21.897H21.8945H21.892H21.8895H21.8869H21.8844H21.8819H21.8794H21.8769H21.8743H21.8718H21.8693H21.8668H21.8643H21.8617H21.8592H21.8567H21.8542H21.8517H21.8491H21.8466H21.8441H21.8416H21.8391H21.8366H21.8341H21.8315H21.829H21.8265H21.824H21.8215H21.819H21.8165H21.8139H21.8114H21.8089H21.8064H21.8039H21.8014H21.7989H21.7964H21.7939H21.7914H21.7889H21.7864H21.7838H21.7813H21.7788H21.7763H21.7738H21.7713H21.7688H21.7663H21.7638H21.7613H21.7588H21.7563H21.7538H21.7513H21.7488H21.7463H21.7438H21.7413H21.7388H21.7363H21.7338H21.7313H21.7288H21.7263H21.7238H21.7213H21.7188H21.7163H21.7138H21.7113H21.7089H21.7064H21.7039H21.7014H21.6989H21.6964H21.6939H21.6914H21.6889H21.6864H21.6839H21.6815H21.679H21.6765H21.674H21.6715H21.669H21.6665H21.664H21.6616H21.6591H21.6566H21.6541H21.6516H21.6491H21.6466H21.6442H21.6417H21.6392H21.6367H21.6342H21.6318H21.6293H21.6268H21.6243H21.6218H21.6194H21.6169H21.6144H21.6119H21.6095H21.607H21.6045H21.602H21.5995H21.5971H21.5946H21.5921H21.5897H21.5872H21.5847H21.5822H21.5798H21.5773H21.5748H21.5723H21.5699H21.5674H21.5649H21.5625H21.56H21.5575H21.5551H21.5526H21.5501H21.5477H21.5452H21.5427H21.5403H21.5378H21.5353H21.5329H21.5304H21.528H21.5255H21.523H21.5206H21.5181H21.5156H21.5132H21.5107H21.5083H21.5058H21.5033H21.5009H21.4984H21.496H21.4935H21.4911H21.4886H21.4861H21.4837H21.4812H21.4788H21.4763H21.4739H21.4714H21.469H21.4665H21.4641H21.4616H21.4592H21.4567H21.4543H21.4518H21.4494H21.4469H21.4445H21.442H21.4396H21.4371H21.4347H21.4322H21.4298H21.4273H21.4249H21.4224H21.42H21.4175H21.4151H21.4127H21.4102H21.4078H21.4053H21.4029H21.4005H21.398H21.3956H21.3931H21.3907H21.3883H21.3858H21.3834H21.3809H21.3785H21.3761H21.3736H21.3712H21.3688H21.3663H21.3639H21.3614H21.359H21.3566H21.3541H21.3517H21.3493H21.3469H21.3444H21.342H21.3396H21.3371H21.3347H21.3323H21.3298H21.3274H21.325H21.3226H21.3201H21.3177H21.3153H21.3128H21.3104H21.308H21.3056H21.3031H21.3007H21.2983H21.2959H21.2935H21.291H21.2886H21.2862H21.2838H21.2813H21.2789H21.2765H21.2741H21.2717H21.2692H21.2668H21.2644H21.262H21.2596H21.2572H21.2547H21.2523H21.2499H21.2475H21.2451H21.2427H21.2403H21.2378H21.2354H21.233H21.2306H21.2282H21.2258H21.2234H21.221H21.2186H21.2161H21.2137H21.2113H21.2089H21.2065H21.2041H21.2017H21.1993H21.1969H21.1945H21.1921H21.1897H21.1873H21.1849H21.1825H21.1801H21.1777H21.1753H21.1728H21.1704H21.168H21.1656H21.1632H21.1608H21.1584H21.156H21.1537H21.1513H21.1489H21.1465H21.1441H21.1417H21.1393H21.1369H21.1345H21.1321H21.1297H21.1273H21.1249H21.1225H21.1201H21.1177H21.1153H21.1129H21.1106H21.1082H21.1058H21.1034H21.101H21.0986H21.0962H21.0938H21.0914H21.0891H21.0867H21.0843H21.0819H21.0795H21.0771H21.0747H21.0724H21.07H21.0676H21.0652H21.0628H21.0604H21.0581H21.0557H21.0533H21.0509H21.0485H21.0462H21.0438H21.0414H21.039H21.0366H21.0343H21.0319H21.0295H21.0271H21.0248H21.0224H21.02H21.0176H21.0153H21.0129H21.0105H21.0081H21.0058H21.0034H21.001H20.9987H20.9963H20.9939H20.9915H20.9892H20.9868H20.9844H20.9821H20.9797H20.9773H20.975H20.9726H20.9702H20.9679H20.9655H20.9631H20.9608H20.9584H20.956H20.9537C19.2863 88.8641 17.9186 88.5493 16.8614 87.9074C15.7773 87.2492 15.2494 86.1099 15.2494 84.5346C15.2494 83.7411 15.4383 82.8968 15.8105 82.0033C15.8106 82.0029 15.8107 82.0026 15.8109 82.0023L15.9493 82.06C16.316 81.1434 16.8109 80.0619 17.4341 78.8154L33.4813 54.6886ZM33.4813 54.6886H33.437H14.2996C13.3129 54.6886 12.4864 54.9934 11.8321 55.6092C11.1644 56.2377 10.85 57.2786 10.85 58.6881C10.85 59.4365 10.9623 60.1492 11.1877 60.8252C11.4092 61.4897 11.6324 62.0304 11.8582 62.4444L11.9008 62.5226H11.9899H25.2229L17.3 78.7483C17.2999 78.7485 17.2998 78.7488 17.2996 78.749L33.4813 54.6886ZM100.384 64.0298C99.6459 61.8146 98.6104 59.9631 97.2752 58.4791C95.9771 56.959 94.4003 55.8091 92.5466 55.0304C90.7301 54.252 88.7485 53.8637 86.6038 53.8637C84.4226 53.8637 82.4046 54.2519 80.5515 55.0302L80.5505 55.0306C78.733 55.8096 77.1567 56.9596 75.8225 58.4791L75.8223 58.4793C74.5238 59.9633 73.5067 61.8148 72.7683 64.0299L72.7678 64.0314C72.0655 66.2124 71.7158 68.7214 71.7158 71.5563C71.7158 74.3914 72.0655 76.9184 72.7676 79.1356L72.7683 79.1378C73.5066 81.3527 74.5235 83.2219 75.8211 84.742L75.8237 84.745C77.158 86.2274 78.7339 87.3585 80.5505 88.137L80.5515 88.1375C82.4046 88.9157 84.4226 89.304 86.6038 89.304C88.7485 89.304 90.7301 88.9157 92.5466 88.1373C94.4 87.3587 95.9768 86.2273 97.2751 84.7436C98.6101 83.2232 99.6457 81.3535 100.384 79.1378C101.124 76.9199 101.492 74.392 101.492 71.5563C101.492 68.721 101.124 66.2114 100.384 64.0298ZM100.384 64.0298C100.384 64.0296 100.384 64.0294 100.384 64.0292L100.242 64.0773L100.384 64.0299C100.384 64.0299 100.384 64.0298 100.384 64.0298ZM57.0252 64.1466L57.0263 64.1488C57.9625 65.8771 58.438 68.3414 58.438 71.5563C58.438 74.771 57.9626 77.2544 57.0257 79.02L57.0252 79.0211C56.5757 79.8841 56.032 80.5224 55.3977 80.9453C54.7646 81.3674 54.0334 81.58 53.1987 81.58C52.3641 81.58 51.6329 81.3674 50.9998 80.9453C50.3659 80.5227 49.8225 79.8849 49.3731 79.0227C48.5082 77.2557 48.0694 74.7711 48.0694 71.5563C48.0694 68.341 48.5084 65.8752 49.3728 64.1456C49.8222 63.2831 50.3658 62.6451 50.9998 62.2224C51.6329 61.8003 52.3641 61.5877 53.1987 61.5877C54.0334 61.5877 54.7646 61.8003 55.3977 62.2224C56.032 62.6452 56.5757 63.2836 57.0252 64.1466ZM47.2004 88.137L47.2014 88.1375C49.0545 88.9157 51.0725 89.304 53.2537 89.304C55.3984 89.304 57.3799 88.9157 59.1964 88.1373C61.0498 87.3588 62.6267 86.2274 63.9251 84.7436C65.26 83.2232 66.2957 81.3535 67.0342 79.1378C67.7735 76.9199 68.1418 74.392 68.1418 71.5563C68.1418 68.721 67.7736 66.2114 67.0342 64.0298C66.2958 61.8147 65.2603 59.9632 63.9251 58.4792C62.627 56.959 61.0503 55.8091 59.1965 55.0304C57.38 54.252 55.3984 53.8637 53.2537 53.8637C51.0725 53.8637 49.0545 54.2519 47.2014 55.0302L47.2004 55.0306C45.383 55.8096 43.8067 56.9596 42.4724 58.4791L42.4723 58.4793C41.1737 59.9633 40.1566 61.8148 39.4182 64.0299L39.4178 64.0314C38.7154 66.2124 38.3657 68.7214 38.3657 71.5563C38.3657 74.3914 38.7154 76.9184 39.4176 79.1356L39.4175 79.1356L39.4182 79.1378C40.1565 81.3527 41.1734 83.2219 42.4711 84.742L42.471 84.742L42.4737 84.745C43.8079 86.2274 45.3838 87.3585 47.2004 88.137ZM90.3752 64.1466L90.3764 64.1488C91.3126 65.8771 91.7881 68.3414 91.7881 71.5563C91.7881 74.771 91.3127 77.2544 90.3758 79.02L90.3753 79.0211C89.9258 79.8841 89.3821 80.5224 88.7478 80.9453C88.1147 81.3674 87.3834 81.58 86.5488 81.58C85.7142 81.58 84.983 81.3674 84.3498 80.9453C83.716 80.5227 83.1726 79.885 82.7233 79.0229C81.8583 77.2559 81.4195 74.7713 81.4195 71.5563C81.4195 68.3409 81.8585 65.8751 82.723 64.1454C83.1724 63.283 83.7159 62.645 84.3498 62.2224C84.983 61.8003 85.7142 61.5877 86.5488 61.5877C87.3834 61.5877 88.1147 61.8003 88.7478 62.2224C89.3821 62.6452 89.9258 63.2836 90.3752 64.1466Z" stroke="black" stroke-width="0.3"/>
</g>
<defs>
<filter id="filter0_d_1707_21011" x="0.700195" y="45.7129" width="110.942" height="55.7402" filterUnits="userSpaceOnUse" color-interpolation-filters="sRGB">
<feFlood flood-opacity="0" result="BackgroundImageFix"/>
<feColorMatrix in="SourceAlpha" type="matrix" values="0 0 0 0 0 0 0 0 0 0 0 0 0 0 0 0 0 0 127 0" result="hardAlpha"/>
<feOffset dy="2"/>
<feGaussianBlur stdDeviation="5"/>
<feComposite in2="hardAlpha" operator="out"/>
<feColorMatrix type="matrix" values="0 0 0 0 0 0 0 0 0 0 0 0 0 0 0 0 0 0 0.2 0"/>
<feBlend mode="normal" in2="BackgroundImageFix" result="effect1_dropShadow_1707_21011"/>
<feBlend mode="normal" in="SourceGraphic" in2="effect1_dropShadow_1707_21011" result="shape"/>
</filter>
</defs>
</svg>
