<svg width="92" height="92" viewBox="0 0 92 92" fill="none" xmlns="http://www.w3.org/2000/svg">
<circle cx="46" cy="46" r="46" fill="#3D76A6"/>
<mask id="mask0_2269_35723" style="mask-type:alpha" maskUnits="userSpaceOnUse" x="0" y="0" width="92" height="92">
<circle cx="46" cy="46" r="46" fill="#F5F5F5"/>
</mask>
<g mask="url(#mask0_2269_35723)">
<path d="M62.5208 39.5893C67.2914 30.9527 65.4319 16.2791 55.0119 12.6367C44.1908 8.85389 34.8745 12.0571 34.0366 17.8617C34.0366 17.8617 28.3123 16.5186 24.5195 22.6451C20.7267 28.7717 23.4521 39.0717 29.122 45.3007C34.7919 51.5298 58.6407 46.6134 62.5208 39.5893Z" fill="#263238"/>
<path d="M80.958 92.3552H11C11 92.3552 14.2629 79.7619 18.9041 72.3016C23.5453 64.8366 40.5825 62.2979 40.5825 62.2979L45.9784 63.2013L51.3743 62.2979C51.3743 62.2979 68.4174 64.8366 73.0586 72.3016C77.7003 79.7619 80.958 92.3552 80.958 92.3552Z" fill="#FAFAFA"/>
<path d="M45.8494 68.9609C42.922 68.9609 40.5496 66.5879 40.5496 63.661V53.5361H51.1499V63.661C51.1493 66.5879 48.7769 68.9609 45.8494 68.9609Z" fill="#FFBF9D"/>
<path d="M51.1498 52.3652V58.5814C51.1498 58.5814 49.3699 61.6763 45.8494 61.6763C43.0209 61.6763 40.5501 58.993 40.5501 58.993V52.3652H51.1498Z" fill="#FF9A6C"/>
<path d="M31.0199 41.4818C28.1539 37.1281 24.8295 39.9249 24.8295 42.9906C24.8295 47.4292 29.644 51.2519 32.3952 48.0662C35.147 44.88 31.0199 41.4818 31.0199 41.4818Z" fill="#FFBF9D"/>
<path d="M59.6509 41.4818C62.5169 37.1281 65.8413 39.9249 65.8413 42.9906C65.8413 47.4292 61.0268 51.2519 58.2756 48.0662C55.5244 44.88 59.6509 41.4818 59.6509 41.4818Z" fill="#FFBF9D"/>
<path d="M45.3225 58.5814C33.9973 58.5767 27.3005 46.2012 29.9481 33.4942C32.129 23.0233 58.5423 23.0274 60.7232 33.4942C63.3703 46.2017 56.6529 58.586 45.3225 58.5814Z" fill="#FFBF9D"/>
<path d="M37.8605 38.8005C37.8605 39.4299 38.3704 39.9399 38.9998 39.9399C39.6292 39.9399 40.1392 39.4299 40.1392 38.8005C40.1392 38.1711 39.6292 37.6611 38.9998 37.6611C38.371 37.6611 37.8605 38.1711 37.8605 38.8005Z" fill="#263238"/>
<path d="M52.8107 38.8005C52.8107 39.4299 52.3007 39.9399 51.6713 39.9399C51.0419 39.9399 50.532 39.4299 50.532 38.8005C50.532 38.1711 51.0419 37.6611 51.6713 37.6611C52.3007 37.6611 52.8107 38.1711 52.8107 38.8005Z" fill="#263238"/>
<path d="M42.7695 68.8271H48.6244L47.4534 73.5111H43.9405L42.7695 68.8271Z" fill="#D04C48"/>
<path d="M58.0223 98.3037C55.0948 98.3037 52.7224 95.9307 52.7224 93.0038V82.8789H63.3227V93.0038C63.3222 95.9307 60.9497 98.3037 58.0223 98.3037Z" fill="#EEEEEE"/>
<path d="M49.2094 92.832L42.1835 92.832L43.94 73.5108L47.4529 73.5108L49.2094 92.832Z" fill="#D04C48"/>
<path d="M35.7435 63.2647L40.4272 59.4589L45.6967 68.8268L41.3055 74.6818L35.7435 63.2647Z" fill="white"/>
<path d="M55.8209 63.2647L51.1371 59.4589L45.6967 68.8268L50.2589 74.6818L55.8209 63.2647Z" fill="white"/>
<path d="M49.813 36.604C49.9385 36.7448 50.7138 36.1348 51.8212 36.127C52.9286 36.1192 53.7408 36.7135 53.8589 36.5649C53.977 36.4163 53.7851 36.2443 53.4307 35.9784C52.9519 35.6273 52.3813 35.4441 51.799 35.4545C51.225 35.4534 50.6658 35.6481 50.2043 36.0097C49.8647 36.2678 49.7466 36.5414 49.813 36.604Z" fill="#263238"/>
<path d="M40.995 36.604C40.8695 36.7448 40.0943 36.1348 38.9868 36.127C37.8794 36.1192 37.0673 36.7135 36.9492 36.5649C36.831 36.4163 37.023 36.2443 37.3774 35.9784C37.8561 35.6273 38.4268 35.4441 39.009 35.4545C39.5831 35.4534 40.1422 35.6481 40.6037 36.0097C40.9433 36.2678 41.0615 36.5414 40.995 36.604Z" fill="#263238"/>
<path d="M49.8059 32.9622C49.9213 33.3059 51.0676 33.1426 52.4217 33.3145C53.7757 33.4864 54.8682 33.8989 55.0451 33.5809C55.1297 33.4348 54.9374 33.0997 54.4912 32.7216C53.9053 32.3019 53.2378 32.0455 52.5447 31.9739C51.8527 31.885 51.1517 31.9792 50.4983 32.2489C50.0059 32.5153 49.7367 32.7903 49.8059 32.9622Z" fill="#263238"/>
<path d="M41.0022 32.9622C40.8868 33.3059 39.7405 33.1426 38.3865 33.3145C37.0324 33.4864 35.94 33.8989 35.763 33.5809C35.6784 33.4348 35.8707 33.0997 36.3169 32.7216C36.9028 32.3019 37.5703 32.0455 38.2634 31.9739C38.9554 31.885 39.6564 31.9792 40.3098 32.2489C40.8022 32.5153 41.0714 32.7903 41.0022 32.9622Z" fill="#263238"/>
<path d="M48.4237 49.0382C48.4738 48.5393 48.458 48.0389 48.3766 47.5527C48.3639 47.4345 48.3335 47.3043 48.2398 47.2665C48.1935 47.2365 48.1393 47.2235 48.0844 47.2291L45.147 47.7671C45.1445 48.2204 45.224 48.665 45.3807 49.0748C45.5427 49.5969 45.8626 50.0336 46.2884 50.314C46.5055 50.4449 46.752 50.5109 47.0048 50.5059C47.2575 50.5008 47.5083 50.4248 47.7337 50.2851C47.9202 50.1395 48.0784 49.9528 48.1974 49.7377C48.3165 49.5226 48.3936 49.284 48.4237 49.0382Z" fill="#FF9A6C"/>
<path d="M45.7239 50.357C45.7239 50.357 45.777 50.4923 45.9646 50.6191C46.2441 50.7945 46.571 50.873 46.8996 50.8438C47.3921 50.8136 47.8654 50.6176 48.2486 50.2852C48.4656 50.0525 48.6294 49.772 48.7274 49.4653C48.8254 49.1586 48.8549 48.834 48.8137 48.5167C48.7896 48.1943 48.7123 47.8799 48.5854 47.5873C48.554 47.4932 48.5026 47.4082 48.4349 47.3386C48.3887 47.3016 48.3352 47.2753 48.2781 47.2616C48.2211 47.2479 48.1616 47.247 48.1036 47.259L47.7002 47.3174L46.3592 47.5509C45.9373 47.5936 45.5219 47.6974 45.1249 47.8592C45.5417 47.9219 45.9671 47.9137 46.3844 47.8349L47.7418 47.6952L48.1194 47.647C48.1709 47.6593 48.1783 47.6611 48.1709 47.6593C48.1998 47.6904 48.2201 47.7291 48.2296 47.7715C48.3291 48.0258 48.393 48.2943 48.4195 48.5691C48.4528 48.8261 48.4326 49.0887 48.3603 49.3393C48.288 49.5898 48.1653 49.8224 48.0005 50.0213C47.682 50.3146 47.2895 50.5047 46.8725 50.5676C46.4766 50.6002 46.0814 50.5278 45.7239 50.357Z" fill="#263238"/>
<path d="M44.7891 45.5938C44.3684 45.4643 43.9332 45.3876 43.4936 45.3655C43.2918 45.3655 43.1006 45.3071 43.0635 45.169C43.0465 44.9585 43.0928 44.7478 43.1962 44.5637C43.3874 44.0752 43.5838 43.5548 43.7909 43.0186C44.6139 40.8097 45.2139 38.9991 45.1236 38.9672C45.0334 38.9354 44.2953 40.6929 43.467 42.9017L42.8989 44.4575C42.7731 44.703 42.7374 44.9848 42.798 45.254C42.8287 45.3249 42.8746 45.3882 42.9324 45.4396C42.9902 45.491 43.0584 45.5291 43.1325 45.5513C43.2453 45.5807 43.3611 45.5967 43.4776 45.5991C43.9134 45.6497 44.3537 45.6479 44.7891 45.5938Z" fill="#263238"/>
<path d="M62.0983 45.5293C62.0983 45.5293 62.214 45.6027 62.4009 45.6842C62.6871 45.7861 63.0047 45.7861 63.2909 45.6842C63.712 45.4316 64.0524 45.0813 64.2776 44.6689C64.5027 44.2566 64.6044 43.797 64.5725 43.337C64.5913 42.8196 64.4754 42.3056 64.2343 41.8374C64.1735 41.6436 64.0599 41.4672 63.9042 41.3246C63.7486 41.1821 63.5559 41.0781 63.3443 41.0224C63.2131 40.9904 63.0738 41.0024 62.9514 41.0562C62.829 41.11 62.7316 41.2021 62.6768 41.3158C62.5878 41.4869 62.6768 41.601 62.5967 41.6173C62.5166 41.6336 62.4543 41.5195 62.5077 41.2669C62.5383 41.1161 62.6267 40.9803 62.7569 40.8839C62.9384 40.7607 63.1643 40.7053 63.3888 40.729C63.6597 40.7749 63.9132 40.8837 64.1251 41.0449C64.337 41.2062 64.5003 41.4145 64.5992 41.6499C64.8851 42.1703 65.0287 42.7464 65.0175 43.3288C65.0175 44.5432 64.3233 45.6842 63.371 45.945C63.195 45.9935 63.0095 46.0055 62.8278 45.9801C62.6462 45.9547 62.473 45.8926 62.3208 45.7983C62.1072 45.676 62.0716 45.5375 62.0983 45.5293Z" fill="#FF9A6C"/>
<path d="M28.7098 45.5293C28.7098 45.5293 28.5941 45.6027 28.4072 45.6842C28.121 45.7861 27.8034 45.7861 27.5172 45.6842C27.0961 45.4316 26.7557 45.0813 26.5306 44.6689C26.3054 44.2566 26.2037 43.797 26.2356 43.337C26.2168 42.8196 26.3327 42.3056 26.5738 41.8374C26.6346 41.6436 26.7482 41.4672 26.9039 41.3246C27.0596 41.1821 27.2522 41.0781 27.4638 41.0224C27.595 40.9904 27.7343 41.0024 27.8567 41.0562C27.9791 41.11 28.0765 41.2021 28.1313 41.3158C28.2203 41.4869 28.1313 41.601 28.2114 41.6173C28.2915 41.6336 28.3538 41.5195 28.3004 41.2669C28.2698 41.1161 28.1815 40.9803 28.0512 40.8839C27.8697 40.7607 27.6438 40.7053 27.4193 40.729C27.1484 40.7749 26.8949 40.8837 26.683 41.0449C26.4711 41.2062 26.3079 41.4145 26.2089 41.6499C25.923 42.1703 25.7795 42.7464 25.7906 43.3288C25.7906 44.5432 26.4848 45.6842 27.4371 45.945C27.6131 45.9935 27.7986 46.0055 27.9803 45.9801C28.1619 45.9547 28.3351 45.8926 28.4873 45.7983C28.7009 45.676 28.7365 45.5375 28.7098 45.5293Z" fill="#FF9A6C"/>
<path d="M36.5887 26.3224C37.0044 20.5536 45.0731 24.3458 49.5474 29.1615C54.8127 34.8273 58.9621 35.89 62.5201 33.3425C66.0782 30.795 61.4235 19.2895 50.3993 16.7608C39.3751 14.2321 35.0665 22.2925 36.5887 26.3224Z" fill="#263238"/>
</g>
</svg>
