<svg width="92" height="92" viewBox="0 0 92 92" fill="none" xmlns="http://www.w3.org/2000/svg">
<circle cx="46" cy="46" r="46" fill="#3D76A6"/>
<mask id="mask0_2269_37287" style="mask-type:alpha" maskUnits="userSpaceOnUse" x="0" y="0" width="92" height="92">
<circle cx="46" cy="46" r="46" fill="#F5F5F5"/>
</mask>
<g mask="url(#mask0_2269_37287)">
<path d="M66.4846 63.6013C60.8163 67.0183 52.2767 71.5138 46.6862 71.4401L46.6851 71.4412L46.8103 72.4864C41.0367 72.5631 31.3764 67.3351 25.191 63.5761C22.7711 62.1053 22.3215 58.96 24.0926 56.7889C25.2959 55.314 25.93 53.2448 24.6541 50.459C21.5199 43.6027 20.7365 33.5841 25.2279 23.4401C29.3675 14.1089 40.183 10.5285 45.853 14.7664C51.5289 10.5344 62.3321 14.1147 66.4652 23.4401C70.9631 33.5841 70.1791 43.6027 67.0391 50.459C65.7656 53.2442 66.4009 55.3134 67.6035 56.7889C69.3834 58.9717 68.9215 62.1317 66.4846 63.6013Z" fill="#263238"/>
<path d="M81.96 92.7789H12C12 92.7789 15.263 80.1853 19.9044 72.7247C24.5457 65.2595 41.5834 62.7207 41.5834 62.7207L46.9794 63.6242L52.3755 62.7207C52.3755 62.7207 69.419 65.2595 74.0603 72.7247C78.7022 80.1853 81.96 92.7789 81.96 92.7789Z" fill="#FAFAFA"/>
<path d="M46.8503 69.3842C43.9228 69.3842 41.5503 67.0111 41.5503 64.0842V53.959H52.1509V64.0842C52.1503 67.0111 49.7779 69.3842 46.8503 69.3842Z" fill="#FFBF9D"/>
<path d="M52.1509 52.7881V59.0044C52.1509 59.0044 50.371 62.0994 46.8503 62.0994C44.0217 62.0994 41.5509 59.416 41.5509 59.416V52.7881H52.1509Z" fill="#FF9A6C"/>
<path d="M32.0205 41.9047C29.1545 37.5508 25.83 40.3478 25.83 43.4135C25.83 47.8523 30.6446 51.6751 33.3959 48.4893C36.1478 45.303 32.0205 41.9047 32.0205 41.9047Z" fill="#FFBF9D"/>
<path d="M60.6527 41.9047C63.5188 37.5508 66.8433 40.3478 66.8433 43.4135C66.8433 47.8523 62.0287 51.6751 59.2773 48.4893C56.526 45.303 60.6527 41.9047 60.6527 41.9047Z" fill="#FFBF9D"/>
<path d="M46.3233 59.0042C34.9978 58.9995 28.3008 46.6236 30.9485 33.9163C33.1295 23.4451 59.5435 23.4492 61.7245 33.9163C64.3716 46.6242 57.6541 59.0089 46.3233 59.0042Z" fill="#FFBF9D"/>
<path d="M38.861 39.2234C38.861 39.8528 39.3709 40.3628 40.0004 40.3628C40.6298 40.3628 41.1398 39.8528 41.1398 39.2234C41.1398 38.594 40.6298 38.084 40.0004 38.084C39.3715 38.084 38.861 38.594 38.861 39.2234Z" fill="#263238"/>
<path d="M53.8119 39.2234C53.8119 39.8528 53.302 40.3628 52.6725 40.3628C52.0431 40.3628 51.5331 39.8528 51.5331 39.2234C51.5331 38.594 52.0431 38.084 52.6725 38.084C53.302 38.084 53.8119 38.594 53.8119 39.2234Z" fill="#263238"/>
<path d="M43.7701 69.25H49.6252L48.4541 73.9341H44.9411L43.7701 69.25Z" fill="#99AFBC"/>
<path d="M59.0238 98.7279C56.0962 98.7279 53.7238 96.3549 53.7238 93.4279V83.3027H64.3244V93.4279C64.3238 96.3549 61.9513 98.7279 59.0238 98.7279Z" fill="#EEEEEE"/>
<path d="M50.2107 93.2559L43.1846 93.2559L44.9411 73.9341L48.4542 73.9341L50.2107 93.2559Z" fill="#99AFBC"/>
<path d="M36.7441 63.6876L41.4281 59.8818L46.6977 69.2499L42.3063 75.105L36.7441 63.6876Z" fill="white"/>
<path d="M56.8221 63.6876L52.1382 59.8818L46.6976 69.2499L51.2599 75.105L56.8221 63.6876Z" fill="white"/>
<path d="M50.814 37.0259C50.9395 37.1667 51.7147 36.5567 52.8222 36.5489C53.9297 36.5411 54.7418 37.1354 54.8599 36.9868C54.9781 36.8382 54.7861 36.6662 54.4317 36.4003C53.9529 36.0492 53.3823 35.866 52.8 35.8764C52.2259 35.8753 51.6668 36.0699 51.2053 36.4316C50.8656 36.6897 50.7475 36.9634 50.814 37.0259Z" fill="#263238"/>
<path d="M41.9959 37.0259C41.8703 37.1667 41.0951 36.5567 39.9876 36.5489C38.8802 36.5411 38.068 37.1354 37.9499 36.9868C37.8318 36.8382 38.0237 36.6662 38.3781 36.4003C38.8569 36.0492 39.4275 35.866 40.0098 35.8764C40.5839 35.8753 41.1431 36.0699 41.6046 36.4316C41.9442 36.6897 42.0623 36.9634 41.9959 37.0259Z" fill="#263238"/>
<path d="M50.8069 33.3831C50.9223 33.7269 52.0687 33.5636 53.4227 33.7354C54.7768 33.9073 55.8693 34.3198 56.0463 34.0019C56.1309 33.8558 55.9385 33.5206 55.4923 33.1425C54.9064 32.7228 54.2389 32.4664 53.5458 32.3948C52.8538 32.3059 52.1527 32.4001 51.4993 32.6698C51.0069 32.9362 50.7377 33.2112 50.8069 33.3831Z" fill="#263238"/>
<path d="M42.0028 33.3831C41.8874 33.7269 40.7411 33.5636 39.387 33.7354C38.0329 33.9073 36.9404 34.3198 36.7635 34.0019C36.6789 33.8558 36.8712 33.5206 37.3174 33.1425C37.9033 32.7228 38.5709 32.4664 39.2639 32.3948C39.9559 32.3059 40.657 32.4001 41.3104 32.6698C41.8028 32.9362 42.0721 33.2112 42.0028 33.3831Z" fill="#263238"/>
<path d="M49.4249 49.4601C49.475 48.9613 49.4591 48.4608 49.3777 47.9746C49.365 47.8564 49.3346 47.7262 49.241 47.6884C49.1947 47.6584 49.1404 47.6453 49.0856 47.651L46.148 48.189C46.1456 48.6423 46.2251 49.0869 46.3818 49.4967C46.5438 50.0188 46.8637 50.4556 47.2895 50.736C47.5066 50.8669 47.7531 50.9329 48.0059 50.9278C48.2586 50.9228 48.5094 50.8468 48.7348 50.707C48.9214 50.5615 49.0795 50.3748 49.1986 50.1596C49.3176 49.9445 49.3948 49.7059 49.4249 49.4601Z" fill="#FF9A6C"/>
<path d="M46.725 50.7799C46.725 50.7799 46.7782 50.9152 46.9657 51.0421C47.2452 51.2174 47.5721 51.296 47.9007 51.2667C48.3933 51.2365 48.8666 51.0405 49.2498 50.7081C49.4668 50.4754 49.6306 50.1949 49.7286 49.8882C49.8266 49.5815 49.8561 49.2569 49.8149 48.9396C49.7908 48.6172 49.7135 48.3028 49.5866 48.0101C49.5552 47.9161 49.5038 47.831 49.4361 47.7615C49.3899 47.7244 49.3364 47.6982 49.2793 47.6845C49.2222 47.6708 49.1628 47.6699 49.1048 47.6819L48.7014 47.7402L47.3603 47.9738C46.9384 48.0165 46.523 48.1202 46.126 48.282C46.5429 48.3448 46.9682 48.3366 47.3856 48.2577L48.743 48.118L49.1206 48.0698C49.1721 48.0822 49.1795 48.084 49.1721 48.0822C49.201 48.1132 49.2213 48.152 49.2308 48.1944C49.3302 48.4487 49.3942 48.7172 49.4207 48.992C49.454 49.249 49.4338 49.5116 49.3615 49.7622C49.2892 50.0128 49.1665 50.2453 49.0017 50.4442C48.6832 50.7375 48.2907 50.9276 47.8737 50.9905C47.4778 51.0232 47.0826 50.9507 46.725 50.7799Z" fill="#263238"/>
<path d="M45.79 46.0158C45.3693 45.8863 44.9341 45.8096 44.4944 45.7875C44.2926 45.7875 44.1015 45.7291 44.0643 45.5911C44.0474 45.3806 44.0936 45.1698 44.1971 44.9857C44.3882 44.4972 44.5847 43.9768 44.7918 43.4405C45.6148 41.2316 46.2148 39.421 46.1246 39.3891C46.0343 39.3572 45.2962 41.1148 44.4679 43.3237L43.8997 44.8795C43.7739 45.125 43.7382 45.4069 43.7988 45.676C43.8296 45.7469 43.8754 45.8103 43.9332 45.8617C43.991 45.913 44.0593 45.9511 44.1333 45.9734C44.2461 46.0028 44.362 46.0188 44.4785 46.0212C44.9143 46.0718 45.3546 46.07 45.79 46.0158Z" fill="#263238"/>
<path d="M63.0996 45.9513C63.0996 45.9513 63.2153 46.0247 63.4022 46.1062C63.6884 46.2081 64.0059 46.2081 64.2922 46.1062C64.7133 45.8536 65.0537 45.5033 65.2789 45.0909C65.504 44.6786 65.6058 44.219 65.5738 43.7589C65.5927 43.2416 65.4767 42.7275 65.2356 42.2593C65.1748 42.0655 65.0612 41.8891 64.9055 41.7465C64.7499 41.604 64.5572 41.5 64.3456 41.4443C64.2144 41.4123 64.075 41.4243 63.9527 41.4781C63.8303 41.5319 63.7329 41.624 63.6781 41.7377C63.5891 41.9088 63.6781 42.0229 63.598 42.0392C63.5179 42.0555 63.4556 41.9414 63.509 41.6888C63.5396 41.538 63.6279 41.4022 63.7582 41.3057C63.9397 41.1825 64.1656 41.1272 64.3901 41.1509C64.661 41.1968 64.9145 41.3056 65.1265 41.4668C65.3384 41.628 65.5016 41.8364 65.6005 42.0719C65.8864 42.5922 66.03 43.1684 66.0188 43.7508C66.0188 44.9652 65.3246 46.1062 64.3723 46.367C64.1963 46.4155 64.0108 46.4275 63.8291 46.4021C63.6474 46.3767 63.4742 46.3146 63.3221 46.2203C63.1085 46.098 63.0729 45.9595 63.0996 45.9513Z" fill="#FF9A6C"/>
<path d="M29.7102 45.9513C29.7102 45.9513 29.5945 46.0247 29.4076 46.1062C29.1213 46.2081 28.8038 46.2081 28.5176 46.1062C28.0965 45.8536 27.756 45.5033 27.5309 45.0909C27.3057 44.6786 27.204 44.219 27.236 43.7589C27.2171 43.2416 27.333 42.7275 27.5742 42.2593C27.635 42.0655 27.7485 41.8891 27.9042 41.7465C28.0599 41.604 28.2526 41.5 28.4642 41.4443C28.5954 41.4123 28.7347 41.4243 28.8571 41.4781C28.9795 41.5319 29.0769 41.624 29.1317 41.7377C29.2207 41.9088 29.1317 42.0229 29.2118 42.0392C29.2919 42.0555 29.3542 41.9414 29.3008 41.6888C29.2702 41.538 29.1818 41.4022 29.0516 41.3057C28.8701 41.1825 28.6441 41.1272 28.4197 41.1509C28.1488 41.1968 27.8952 41.3056 27.6833 41.4668C27.4714 41.628 27.3082 41.8364 27.2093 42.0719C26.9233 42.5922 26.7798 43.1684 26.791 43.7508C26.791 44.9652 27.4852 46.1062 28.4375 46.367C28.6134 46.4155 28.799 46.4275 28.9807 46.4021C29.1623 46.3767 29.3355 46.3146 29.4877 46.2203C29.7013 46.098 29.7369 45.9595 29.7102 45.9513Z" fill="#FF9A6C"/>
<path d="M45.436 22.115C44.32 31.0182 59.6281 35.0946 62.9099 34.5319C66.1922 33.9692 65.3286 23.4804 57.0583 21.5799C48.7886 19.6793 45.8634 18.7074 45.436 22.115Z" fill="#263238"/>
<path d="M46.2351 22.2139C47.3511 31.1171 32.0693 35.095 28.7876 34.5324C25.5058 33.9697 26.3689 23.4809 34.6392 21.5803C42.9095 19.6798 45.8083 18.8056 46.2351 22.2139Z" fill="#263238"/>
</g>
</svg>
