<svg width="92" height="92" viewBox="0 0 92 92" fill="none" xmlns="http://www.w3.org/2000/svg">
<circle cx="46" cy="46" r="46" fill="#3D76A6"/>
<mask id="mask0_2269_36242" style="mask-type:alpha" maskUnits="userSpaceOnUse" x="0" y="0" width="92" height="92">
<circle cx="46" cy="46" r="46" fill="#F5F5F5"/>
</mask>
<g mask="url(#mask0_2269_36242)">
<path d="M40.408 13.8241C24.1812 15.3423 24.4833 29.3043 26.8792 39.5519C29.2751 49.7995 24.9122 59.0711 24.9122 59.0711C24.9122 59.0711 51.7724 63.4589 65.8978 59.0711C65.8978 59.0711 68.9187 31.3653 63.2258 21.1184C57.5329 10.8702 42.5925 10.598 40.408 13.8241Z" fill="#263238"/>
<path d="M80.96 91.9684H11C11 91.9684 14.263 79.3747 18.9044 71.9142C23.5457 64.4489 40.5834 61.9102 40.5834 61.9102L45.9794 62.8136L51.3755 61.9102C51.3755 61.9102 68.419 64.4489 73.0603 71.9142C77.7022 79.3747 80.96 91.9684 80.96 91.9684Z" fill="#FAFAFA"/>
<path d="M45.8501 68.5736C42.9226 68.5736 40.5501 66.2006 40.5501 63.2736V53.1484H51.1507V63.2736C51.1502 66.2006 48.7777 68.5736 45.8501 68.5736Z" fill="#FFBF9D"/>
<path d="M51.1506 51.9766V58.1929C51.1506 58.1929 49.3706 61.2879 45.85 61.2879C43.0214 61.2879 40.5505 58.6045 40.5505 58.6045V51.9766H51.1506Z" fill="#FF9A6C"/>
<path d="M31.0202 41.0941C28.1541 36.7403 24.8296 39.5373 24.8296 42.603C24.8296 47.0417 29.6442 50.8645 32.3955 47.6788C35.1474 44.4924 31.0202 41.0941 31.0202 41.0941Z" fill="#FFBF9D"/>
<path d="M59.6523 41.0941C62.5184 36.7403 65.8429 39.5373 65.8429 42.603C65.8429 47.0417 61.0283 50.8645 58.277 47.6788C55.5257 44.4924 59.6523 41.0941 59.6523 41.0941Z" fill="#FFBF9D"/>
<path d="M45.3233 58.1936C33.9978 58.1889 27.3008 45.8131 29.9485 33.1058C32.1295 22.6346 58.5435 22.6387 60.7245 33.1058C63.3716 45.8137 56.6541 58.1983 45.3233 58.1936Z" fill="#FFBF9D"/>
<path d="M37.861 38.4128C37.861 39.0423 38.3709 39.5522 39.0004 39.5522C39.6298 39.5522 40.1398 39.0423 40.1398 38.4128C40.1398 37.7834 39.6298 37.2734 39.0004 37.2734C38.3715 37.2734 37.861 37.7834 37.861 38.4128Z" fill="#263238"/>
<path d="M52.8117 38.4128C52.8117 39.0423 52.3017 39.5522 51.6723 39.5522C51.0429 39.5522 50.5329 39.0423 50.5329 38.4128C50.5329 37.7834 51.0429 37.2734 51.6723 37.2734C52.3017 37.2734 52.8117 37.7834 52.8117 38.4128Z" fill="#263238"/>
<path d="M42.7702 68.4395H48.6253L47.4543 73.1235H43.9412L42.7702 68.4395Z" fill="#4D5D85"/>
<path d="M58.0237 97.9164C55.0962 97.9164 52.7237 95.5434 52.7237 92.6164V82.4912H63.3243V92.6164C63.3237 95.5434 60.9513 97.9164 58.0237 97.9164Z" fill="#EEEEEE"/>
<path d="M49.2109 92.4453L42.1848 92.4453L43.9414 73.1235L47.4544 73.1235L49.2109 92.4453Z" fill="#4D5D85"/>
<path d="M35.7439 62.8771L40.4278 59.0712L45.6974 68.4393L41.3061 74.2945L35.7439 62.8771Z" fill="white"/>
<path d="M55.822 62.8771L51.1381 59.0712L45.6975 68.4393L50.2599 74.2945L55.822 62.8771Z" fill="white"/>
<path d="M31.3942 24.7429C29.0973 27.5322 28.5422 34.9618 28.5422 34.9618H33.803L36.4097 26.7243V34.5619C36.4097 34.5619 39.0164 35.2744 42.3532 34.9618L44.2221 28.6962L47.0455 34.5619C47.0455 34.5619 50.9034 35.6216 53.1974 34.5619L52.4573 28.6962L55.2695 34.5619C55.2695 34.5619 59.7375 35.1702 61.942 33.919C61.942 33.919 63.7289 26.7242 56.2215 22.9706C48.7141 19.2169 35.7738 19.4247 31.3942 24.7429Z" fill="#263238"/>
<path d="M49.814 36.2154C49.9395 36.3561 50.7147 35.7462 51.8222 35.7384C52.9297 35.7305 53.7418 36.3248 53.8599 36.1763C53.9781 36.0277 53.7861 35.8557 53.4317 35.5898C52.9529 35.2387 52.3823 35.0554 51.8 35.0659C51.2259 35.0647 50.6668 35.2594 50.2053 35.6211C49.8656 35.8791 49.7475 36.1528 49.814 36.2154Z" fill="#263238"/>
<path d="M40.996 36.2154C40.8705 36.3561 40.0953 35.7462 38.9878 35.7384C37.8803 35.7305 37.0682 36.3248 36.9501 36.1763C36.8319 36.0277 37.0239 35.8557 37.3783 35.5898C37.857 35.2387 38.4277 35.0554 39.01 35.0659C39.5841 35.0647 40.1432 35.2594 40.6047 35.6211C40.9444 35.8791 41.0625 36.1528 40.996 36.2154Z" fill="#263238"/>
<path d="M49.807 32.5735C49.9224 32.9173 51.0688 32.754 52.4229 32.9259C53.7769 33.0978 54.8694 33.5103 55.0464 33.1923C55.131 33.0462 54.9387 32.711 54.4924 32.3329C53.9066 31.9132 53.239 31.6568 52.546 31.5852C51.8539 31.4963 51.1529 31.5905 50.4995 31.8602C50.0071 32.1267 49.7378 32.4017 49.807 32.5735Z" fill="#263238"/>
<path d="M41.003 32.5735C40.8876 32.9173 39.7412 32.754 38.3871 32.9259C37.0331 33.0978 35.9406 33.5103 35.7636 33.1923C35.679 33.0462 35.8713 32.711 36.3176 32.3329C36.9034 31.9132 37.571 31.6568 38.264 31.5852C38.9561 31.4963 39.6571 31.5905 40.3105 31.8602C40.8029 32.1267 41.0722 32.4017 41.003 32.5735Z" fill="#263238"/>
<path d="M48.4253 48.6495C48.4754 48.1507 48.4595 47.6502 48.3781 47.164C48.3654 47.0458 48.3351 46.9157 48.2414 46.8778C48.1951 46.8478 48.1409 46.8348 48.086 46.8405L45.1485 47.3785C45.146 47.8318 45.2255 48.2764 45.3822 48.6861C45.5442 49.2083 45.8641 49.645 46.2899 49.9254C46.5071 50.0563 46.7535 50.1224 47.0063 50.1173C47.2591 50.1122 47.5099 50.0363 47.7353 49.8965C47.9218 49.7509 48.0799 49.5642 48.199 49.3491C48.318 49.134 48.3952 48.8954 48.4253 48.6495Z" fill="#FF9A6C"/>
<path d="M45.7255 49.9693C45.7255 49.9693 45.7786 50.1047 45.9662 50.2315C46.2457 50.4069 46.5726 50.4854 46.9012 50.4562C47.3938 50.426 47.8671 50.23 48.2503 49.8976C48.4672 49.6649 48.6311 49.3843 48.7291 49.0776C48.8271 48.7709 48.8566 48.4463 48.8154 48.129C48.7913 47.8066 48.714 47.4922 48.5871 47.1996C48.5557 47.1055 48.5043 47.0205 48.4366 46.9509C48.3903 46.9139 48.3369 46.8876 48.2798 46.8739C48.2227 46.8602 48.1632 46.8593 48.1052 46.8713L47.7019 46.9297L46.3608 47.1633C45.9389 47.206 45.5235 47.3097 45.1265 47.4715C45.5433 47.5342 45.9687 47.526 46.386 47.4472L47.7435 47.3075L48.1211 47.2593C48.1726 47.2716 48.18 47.2734 48.1726 47.2716C48.2015 47.3027 48.2218 47.3414 48.2313 47.3838C48.3307 47.6381 48.3947 47.9067 48.4212 48.1814C48.4545 48.4384 48.4343 48.7011 48.362 48.9516C48.2897 49.2022 48.167 49.4348 48.0022 49.6337C47.6837 49.927 47.2912 50.1171 46.8742 50.1799C46.4782 50.2126 46.0831 50.1402 45.7255 49.9693Z" fill="#263238"/>
<path d="M44.79 45.2053C44.3692 45.0758 43.934 44.9991 43.4944 44.977C43.2926 44.977 43.1014 44.9186 43.0643 44.7805C43.0473 44.57 43.0936 44.3593 43.197 44.1752C43.3882 43.6867 43.5846 43.1663 43.7917 42.63C44.6147 40.4211 45.2148 38.6104 45.1245 38.5786C45.0342 38.5467 44.2962 40.3043 43.4678 42.5132L42.8996 44.069C42.7739 44.3145 42.7382 44.5963 42.7988 44.8655C42.8295 44.9364 42.8754 44.9997 42.9332 45.0511C42.9909 45.1025 43.0592 45.1406 43.1333 45.1628C43.2461 45.1922 43.3619 45.2083 43.4784 45.2106C43.9143 45.2612 44.3546 45.2595 44.79 45.2053Z" fill="#263238"/>
<path d="M62.0995 45.1408C62.0995 45.1408 62.2152 45.2141 62.4021 45.2956C62.6883 45.3975 63.0059 45.3975 63.2921 45.2956C63.7132 45.043 64.0537 44.6927 64.2788 44.2804C64.5039 43.8681 64.6057 43.4084 64.5737 42.9484C64.5926 42.431 64.4767 41.917 64.2355 41.4488C64.1747 41.255 64.0612 41.0785 63.9055 40.936C63.7498 40.7934 63.5571 40.6894 63.3455 40.6337C63.2143 40.6018 63.075 40.6138 62.9526 40.6676C62.8302 40.7214 62.7328 40.8134 62.678 40.9271C62.589 41.0983 62.678 41.2124 62.5979 41.2287C62.5178 41.245 62.4555 41.1309 62.5089 40.8782C62.5395 40.7275 62.6279 40.5916 62.7581 40.4952C62.9396 40.372 63.1655 40.3166 63.39 40.3403C63.6609 40.3862 63.9145 40.495 64.1264 40.6563C64.3383 40.8175 64.5015 41.0258 64.6004 41.2613C64.8864 41.7816 65.0299 42.3578 65.0187 42.9402C65.0187 44.1546 64.3245 45.2956 63.3722 45.5564C63.1963 45.605 63.0107 45.617 62.829 45.5916C62.6474 45.5662 62.4742 45.5041 62.322 45.4097C62.1084 45.2875 62.0728 45.1489 62.0995 45.1408Z" fill="#FF9A6C"/>
<path d="M28.71 45.1408C28.71 45.1408 28.5943 45.2141 28.4074 45.2956C28.1212 45.3975 27.8036 45.3975 27.5174 45.2956C27.0963 45.043 26.7558 44.6927 26.5307 44.2804C26.3056 43.8681 26.2038 43.4084 26.2358 42.9484C26.2169 42.431 26.3328 41.917 26.574 41.4488C26.6348 41.255 26.7484 41.0785 26.904 40.936C27.0597 40.7934 27.2524 40.6894 27.464 40.6337C27.5952 40.6018 27.7345 40.6138 27.8569 40.6676C27.9793 40.7214 28.0767 40.8134 28.1315 40.9271C28.2205 41.0983 28.1315 41.2124 28.2116 41.2287C28.2917 41.245 28.354 41.1309 28.3006 40.8782C28.27 40.7275 28.1816 40.5916 28.0514 40.4952C27.8699 40.372 27.644 40.3166 27.4195 40.3403C27.1486 40.3862 26.895 40.495 26.6831 40.6563C26.4712 40.8175 26.308 41.0258 26.2091 41.2613C25.9231 41.7816 25.7796 42.3578 25.7908 42.9402C25.7908 44.1546 26.485 45.2956 27.4373 45.5564C27.6133 45.605 27.7988 45.617 27.9805 45.5916C28.1621 45.5662 28.3353 45.5041 28.4875 45.4097C28.7011 45.2875 28.7367 45.1489 28.71 45.1408Z" fill="#FF9A6C"/>
</g>
</svg>
