<svg width="21" height="21" viewBox="0 0 21 21" fill="none" xmlns="http://www.w3.org/2000/svg">
<path d="M14.5934 5.2543C14.0237 4.60398 13.7098 3.76882 13.71 2.9043H11.135V13.2376C11.1152 13.7968 10.8791 14.3265 10.4765 14.7151C10.0739 15.1037 9.53622 15.3209 8.97668 15.321C7.79335 15.321 6.81002 14.3543 6.81002 13.1543C6.81002 11.721 8.19335 10.646 9.61835 11.0876V8.4543C6.74335 8.07096 4.22668 10.3043 4.22668 13.1543C4.22668 15.9293 6.52668 17.9043 8.96835 17.9043C11.585 17.9043 13.71 15.7793 13.71 13.1543V7.91263C14.7542 8.66251 16.0078 9.06484 17.2934 9.06263V6.48763C17.2934 6.48763 15.7267 6.56263 14.5934 5.2543Z" fill="#757575"/>
</svg>
