<svg width="92" height="92" viewBox="0 0 92 92" fill="none" xmlns="http://www.w3.org/2000/svg">
<circle cx="46" cy="46" r="46" fill="#3D76A6"/>
<mask id="mask0_2269_37763" style="mask-type:alpha" maskUnits="userSpaceOnUse" x="0" y="0" width="92" height="92">
<circle cx="46" cy="46" r="46" fill="#F5F5F5"/>
</mask>
<g mask="url(#mask0_2269_37763)">
<path d="M65.6519 41.8558C72.2681 29.8665 67.0277 22.9932 62.7926 25.2418C62.7926 25.2418 62.1515 17.8072 52.4548 13.3251C41.235 8.13902 26.743 12.1815 23.9175 19.994C21.3108 27.2028 25.9664 30.677 25.9664 30.677C25.9664 30.677 23.0845 35.858 28.0147 43.6093C32.9454 51.3606 62.6898 47.2241 65.6519 41.8558Z" fill="#263238"/>
<path d="M81.96 92.7242H12C12 92.7242 15.263 80.1306 19.9044 72.67C24.5457 65.2048 41.5834 62.666 41.5834 62.666L46.9794 63.5695L52.3755 62.666C52.3755 62.666 69.419 65.2048 74.0603 72.67C78.7022 80.1306 81.96 92.7242 81.96 92.7242Z" fill="#BD5F2E"/>
<path d="M41.7989 62.5244L34.8348 63.923C34.8348 63.923 36.4404 72.3593 42.8072 76.5766L47.1305 70.9025V64.8159L41.7989 62.5244Z" fill="white"/>
<path d="M51.8766 62.5244L58.8406 63.923C58.8406 63.923 57.2351 72.3593 50.8683 76.5766L46.545 70.9025V64.8159L51.8766 62.5244Z" fill="white"/>
<path d="M46.8503 69.3295C43.9228 69.3295 41.5503 66.9564 41.5503 64.0295V53.9043H52.1509V64.0295C52.1503 66.9564 49.7779 69.3295 46.8503 69.3295Z" fill="#FFBF9D"/>
<path d="M52.1509 52.7334V58.9497C52.1509 58.9497 50.371 62.0447 46.8503 62.0447C44.0217 62.0447 41.5509 59.3614 41.5509 59.3614V52.7334H52.1509Z" fill="#FF9A6C"/>
<path d="M32.0205 41.85C29.1545 37.4962 25.83 40.2931 25.83 43.3588C25.83 47.7976 30.6446 51.6204 33.3959 48.4346C36.1478 45.2483 32.0205 41.85 32.0205 41.85Z" fill="#FFBF9D"/>
<path d="M60.6527 41.85C63.5188 37.4962 66.8433 40.2931 66.8433 43.3588C66.8433 47.7976 62.0287 51.6204 59.2773 48.4346C56.526 45.2483 60.6527 41.85 60.6527 41.85Z" fill="#FFBF9D"/>
<path d="M46.3233 58.9495C34.9978 58.9448 28.3008 46.5689 30.9485 33.8616C33.1295 23.3904 59.5435 23.3945 61.7245 33.8616C64.3716 46.5695 57.6541 58.9542 46.3233 58.9495Z" fill="#FFBF9D"/>
<path d="M38.861 39.1687C38.861 39.7981 39.3709 40.3081 40.0004 40.3081C40.6298 40.3081 41.1398 39.7981 41.1398 39.1687C41.1398 38.5393 40.6298 38.0293 40.0004 38.0293C39.3715 38.0293 38.861 38.5393 38.861 39.1687Z" fill="#263238"/>
<path d="M53.8119 39.1687C53.8119 39.7981 53.302 40.3081 52.6725 40.3081C52.0431 40.3081 51.5331 39.7981 51.5331 39.1687C51.5331 38.5393 52.0431 38.0293 52.6725 38.0293C53.302 38.0293 53.8119 38.5393 53.8119 39.1687Z" fill="#263238"/>
<path d="M50.814 36.9712C50.9395 37.112 51.7147 36.502 52.8222 36.4942C53.9297 36.4864 54.7418 37.0807 54.8599 36.9321C54.9781 36.7835 54.7861 36.6115 54.4317 36.3456C53.9529 35.9945 53.3823 35.8113 52.8 35.8217C52.2259 35.8206 51.6668 36.0152 51.2053 36.3769C50.8656 36.635 50.7475 36.9087 50.814 36.9712Z" fill="#263238"/>
<path d="M41.9959 36.9712C41.8703 37.112 41.0951 36.502 39.9876 36.4942C38.8802 36.4864 38.068 37.0807 37.9499 36.9321C37.8318 36.7835 38.0237 36.6115 38.3781 36.3456C38.8569 35.9945 39.4275 35.8113 40.0098 35.8217C40.5839 35.8206 41.1431 36.0152 41.6046 36.3769C41.9442 36.635 42.0623 36.9087 41.9959 36.9712Z" fill="#263238"/>
<path d="M50.8069 33.3294C50.9223 33.6731 52.0687 33.5099 53.4227 33.6817C54.7768 33.8536 55.8693 34.2661 56.0463 33.9482C56.1309 33.8021 55.9385 33.4669 55.4923 33.0888C54.9064 32.6691 54.2389 32.4127 53.5458 32.3411C52.8538 32.2521 52.1527 32.3464 51.4993 32.6161C51.0069 32.8825 50.7377 33.1575 50.8069 33.3294Z" fill="#263238"/>
<path d="M42.0028 33.3294C41.8874 33.6731 40.7411 33.5099 39.387 33.6817C38.0329 33.8536 36.9404 34.2661 36.7635 33.9482C36.6789 33.8021 36.8712 33.4669 37.3174 33.0888C37.9033 32.6691 38.5709 32.4127 39.2639 32.3411C39.9559 32.2521 40.657 32.3464 41.3104 32.6161C41.8028 32.8825 42.0721 33.1575 42.0028 33.3294Z" fill="#263238"/>
<path d="M49.4249 49.4064C49.475 48.9075 49.4591 48.4071 49.3777 47.9209C49.365 47.8027 49.3346 47.6725 49.241 47.6346C49.1947 47.6047 49.1404 47.5916 49.0856 47.5973L46.148 48.1353C46.1456 48.5886 46.2251 49.0332 46.3818 49.443C46.5438 49.9651 46.8637 50.4019 47.2895 50.6823C47.5066 50.8132 47.7531 50.8792 48.0059 50.8741C48.2586 50.8691 48.5094 50.7931 48.7348 50.6533C48.9214 50.5077 49.0795 50.3211 49.1986 50.1059C49.3176 49.8908 49.3948 49.6522 49.4249 49.4064Z" fill="#FF9A6C"/>
<path d="M46.725 50.7252C46.725 50.7252 46.7782 50.8606 46.9657 50.9874C47.2452 51.1627 47.5721 51.2413 47.9007 51.212C48.3933 51.1818 48.8666 50.9858 49.2498 50.6535C49.4668 50.4208 49.6306 50.1402 49.7286 49.8335C49.8266 49.5268 49.8561 49.2022 49.8149 48.8849C49.7908 48.5625 49.7135 48.2481 49.5866 47.9555C49.5552 47.8614 49.5038 47.7764 49.4361 47.7068C49.3899 47.6697 49.3364 47.6435 49.2793 47.6298C49.2222 47.6161 49.1628 47.6152 49.1048 47.6272L48.7014 47.6855L47.3603 47.9191C46.9384 47.9618 46.523 48.0655 46.126 48.2273C46.5429 48.2901 46.9682 48.2819 47.3856 48.2031L48.743 48.0633L49.1206 48.0151C49.1721 48.0275 49.1795 48.0293 49.1721 48.0275C49.201 48.0585 49.2213 48.0973 49.2308 48.1397C49.3302 48.394 49.3942 48.6625 49.4207 48.9373C49.454 49.1943 49.4338 49.4569 49.3615 49.7075C49.2892 49.9581 49.1665 50.1907 49.0017 50.3895C48.6832 50.6828 48.2907 50.8729 47.8737 50.9358C47.4778 50.9685 47.0826 50.896 46.725 50.7252Z" fill="#263238"/>
<path d="M45.79 45.9621C45.3693 45.8326 44.9341 45.7559 44.4944 45.7338C44.2926 45.7338 44.1015 45.6754 44.0643 45.5373C44.0474 45.3269 44.0936 45.1161 44.1971 44.932C44.3882 44.4435 44.5847 43.9231 44.7918 43.3868C45.6148 41.1779 46.2148 39.3672 46.1246 39.3354C46.0343 39.3035 45.2962 41.0611 44.4679 43.27L43.8997 44.8258C43.7739 45.0713 43.7382 45.3532 43.7988 45.6223C43.8296 45.6932 43.8754 45.7566 43.9332 45.8079C43.991 45.8593 44.0593 45.8974 44.1333 45.9197C44.2461 45.9491 44.362 45.9651 44.4785 45.9674C44.9143 46.0181 45.3546 46.0163 45.79 45.9621Z" fill="#263238"/>
<path d="M63.0996 45.8976C63.0996 45.8976 63.2153 45.971 63.4022 46.0525C63.6884 46.1544 64.0059 46.1544 64.2922 46.0525C64.7133 45.7999 65.0537 45.4495 65.2789 45.0372C65.504 44.6249 65.6058 44.1653 65.5738 43.7052C65.5927 43.1878 65.4767 42.6738 65.2356 42.2056C65.1748 42.0118 65.0612 41.8354 64.9055 41.6928C64.7499 41.5503 64.5572 41.4463 64.3456 41.3906C64.2144 41.3586 64.075 41.3706 63.9527 41.4244C63.8303 41.4782 63.7329 41.5703 63.6781 41.684C63.5891 41.8551 63.6781 41.9692 63.598 41.9855C63.5179 42.0018 63.4556 41.8877 63.509 41.6351C63.5396 41.4843 63.6279 41.3485 63.7582 41.252C63.9397 41.1288 64.1656 41.0735 64.3901 41.0972C64.661 41.1431 64.9145 41.2519 65.1265 41.4131C65.3384 41.5743 65.5016 41.7827 65.6005 42.0181C65.8864 42.5385 66.03 43.1147 66.0188 43.6971C66.0188 44.9114 65.3246 46.0525 64.3723 46.3133C64.1963 46.3618 64.0108 46.3738 63.8291 46.3484C63.6474 46.323 63.4742 46.2609 63.3221 46.1666C63.1085 46.0443 63.0729 45.9058 63.0996 45.8976Z" fill="#FF9A6C"/>
<path d="M29.7102 45.8976C29.7102 45.8976 29.5945 45.971 29.4076 46.0525C29.1213 46.1544 28.8038 46.1544 28.5176 46.0525C28.0965 45.7999 27.756 45.4495 27.5309 45.0372C27.3057 44.6249 27.204 44.1653 27.236 43.7052C27.2171 43.1878 27.333 42.6738 27.5742 42.2056C27.635 42.0118 27.7485 41.8354 27.9042 41.6928C28.0599 41.5503 28.2526 41.4463 28.4642 41.3906C28.5954 41.3586 28.7347 41.3706 28.8571 41.4244C28.9795 41.4782 29.0769 41.5703 29.1317 41.684C29.2207 41.8551 29.1317 41.9692 29.2118 41.9855C29.2919 42.0018 29.3542 41.8877 29.3008 41.6351C29.2702 41.4843 29.1818 41.3485 29.0516 41.252C28.8701 41.1288 28.6441 41.0735 28.4197 41.0972C28.1488 41.1431 27.8952 41.2519 27.6833 41.4131C27.4714 41.5743 27.3082 41.7827 27.2093 42.0181C26.9233 42.5385 26.7798 43.1147 26.791 43.6971C26.791 44.9114 27.4852 46.0525 28.4375 46.3133C28.6134 46.3618 28.799 46.3738 28.9807 46.3484C29.1623 46.323 29.3355 46.2609 29.4877 46.1666C29.7013 46.0443 29.7369 45.9058 29.7102 45.8976Z" fill="#FF9A6C"/>
<path d="M57.6487 26.6326C54.6791 33.0158 48.1786 29.3809 48.1786 29.3809C48.1786 29.3809 43.9155 33.2082 37.3622 32.598C30.809 31.9873 27.3952 24.4582 35.3729 21.2723C43.3505 18.0864 61.8247 17.6584 57.6487 26.6326Z" fill="#263238"/>
</g>
</svg>
